<svg width="107" height="36" viewBox="0 0 107 36" fill="none" xmlns="http://www.w3.org/2000/svg">
<path d="M0 4.46775C0 4.19622 0.0483767 3.94341 0.14513 3.71089C0.241884 3.47837 0.371408 3.27394 0.536825 3.09916C0.700682 2.92282 0.89731 2.78705 1.12359 2.6903C1.34987 2.59354 1.59331 2.54517 1.85548 2.54517C2.11765 2.54517 2.37358 2.59354 2.59518 2.6903C2.81677 2.78705 3.00872 2.92282 3.17258 3.09916C3.33643 3.2755 3.4644 3.47837 3.55491 3.71089C3.64542 3.94341 3.69067 4.19622 3.69067 4.46775V9.77358C4.33674 9.3538 5.03118 9.02764 5.77399 8.79668C6.51681 8.56416 7.29552 8.44868 8.11168 8.44868C9.23371 8.44868 10.2855 8.66092 11.2655 9.08695C12.2455 9.51141 13.1023 10.0904 13.8326 10.8207C14.5629 11.551 15.1419 12.4109 15.5664 13.3972C15.9908 14.3834 16.2046 15.4383 16.2046 16.5604C16.2046 17.6824 15.9924 18.7202 15.5664 19.7064C15.1419 20.6927 14.5629 21.5541 13.8326 22.2907C13.1007 23.0272 12.2455 23.6078 11.2655 24.0338C10.2855 24.4583 9.23371 24.672 8.11168 24.672C6.98965 24.672 5.9519 24.4598 4.96563 24.0338C3.97937 23.6078 3.11796 23.0272 2.38138 22.2907C1.64481 21.5541 1.06429 20.6927 0.63826 19.7064C0.213794 18.7202 0 17.6715 0 16.5604L0 4.46775ZM3.69067 16.5572C3.69067 17.1581 3.80615 17.7276 4.03867 18.266C4.27119 18.8044 4.58798 19.2757 4.9906 19.6768C5.39322 20.0794 5.85982 20.3962 6.39353 20.6287C6.92567 20.8612 7.49839 20.9767 8.11012 20.9767C8.72185 20.9767 9.29457 20.8612 9.82671 20.6287C10.3589 20.3962 10.827 20.0794 11.2296 19.6768C11.6323 19.2741 11.9459 18.8044 12.1738 18.266C12.4 17.7276 12.514 17.1581 12.514 16.5572C12.514 15.9564 12.4 15.3697 12.1738 14.8313C11.9475 14.2929 11.6323 13.8247 11.2296 13.4284C10.827 13.032 10.3589 12.7168 9.82671 12.4842C9.29457 12.2517 8.72185 12.1362 8.11012 12.1362C7.49839 12.1362 6.92567 12.2533 6.39353 12.4842C5.85982 12.7168 5.39322 13.0304 4.9906 13.4284C4.58798 13.8247 4.27119 14.2929 4.03867 14.8313C3.80615 15.3697 3.69067 15.9455 3.69067 16.5572Z" fill="#845DC2"/>
<path d="M17.7012 16.5587C17.7012 15.4367 17.9165 14.3849 18.3472 13.4049C18.7779 12.4248 19.3616 11.5665 20.0982 10.8284C20.8347 10.0918 21.693 9.51131 22.6746 9.08528C23.6546 8.66082 24.7002 8.44702 25.8113 8.44702C26.9224 8.44702 27.9882 8.65925 28.9745 9.08528C29.9608 9.50975 30.8191 10.0918 31.551 10.8284C32.2813 11.565 32.8571 12.4248 33.2769 13.4049C33.6967 14.3849 33.9058 15.4367 33.9058 16.5587V22.5777C33.9058 22.8383 33.8574 23.0818 33.7607 23.3096C33.6639 23.5359 33.5313 23.7341 33.3612 23.9042C33.1911 24.0743 32.9898 24.21 32.7573 24.313C32.5247 24.4145 32.2782 24.466 32.0176 24.466C31.5759 24.466 31.2014 24.3364 30.8955 24.0743C30.5897 23.8136 30.3852 23.4859 30.2838 23.088C29.6377 23.5749 28.9371 23.9603 28.1833 24.2444C27.4296 24.5268 26.6384 24.6688 25.8113 24.6688C24.7002 24.6688 23.6546 24.4566 22.6746 24.0306C21.6946 23.6045 20.8347 23.024 20.0982 22.2874C19.3616 21.5509 18.7779 20.6894 18.3472 19.7032C17.9165 18.7169 17.7012 17.6682 17.7012 16.5571V16.5587ZM21.3903 16.5587C21.3903 17.1595 21.5058 17.7291 21.7383 18.2675C21.9708 18.8059 22.2876 19.2772 22.6902 19.6782C23.0928 20.0808 23.5594 20.3976 24.0931 20.6301C24.6253 20.8627 25.198 20.9781 25.8113 20.9781C26.4246 20.9781 26.9989 20.8627 27.5372 20.6301C28.0756 20.3976 28.5438 20.0808 28.9402 19.6782C29.3365 19.2756 29.6487 18.8059 29.8749 18.2675C30.1012 17.7291 30.2151 17.1595 30.2151 16.5587C30.2151 15.9579 30.1012 15.3711 29.8749 14.8327C29.6487 14.2944 29.3365 13.8262 28.9402 13.4298C28.5438 13.0334 28.0756 12.7182 27.5372 12.4857C26.9989 12.2532 26.423 12.1377 25.8113 12.1377C25.1996 12.1377 24.6409 12.2547 24.1025 12.4857C23.5641 12.7182 23.0928 13.0319 22.6918 13.4298C22.2892 13.8262 21.9724 14.2944 21.7398 14.8327C21.5073 15.3711 21.3918 15.947 21.3918 16.5587H21.3903Z" fill="#D55FAD"/>
<path d="M40.0075 18.6528C40.2322 19.1366 40.5537 19.5688 40.9735 19.948C41.3933 20.3288 41.863 20.6269 42.3811 20.8422C42.8992 21.0576 43.4454 21.1762 44.0181 21.198C44.5908 21.2199 45.1463 21.1122 45.6863 20.875C46.2418 20.6175 46.7006 20.321 47.0627 19.9839C47.4247 19.6469 47.7384 19.199 48.0037 18.6387C48.1285 18.3688 48.2815 18.1004 48.4641 17.8351C48.6466 17.5698 48.887 17.3669 49.185 17.2296C49.3598 17.1484 49.5627 17.1016 49.7936 17.0876C50.0246 17.0735 50.2836 17.1063 50.5708 17.1859C50.8173 17.2592 51.0327 17.381 51.2184 17.551C51.4041 17.7211 51.5477 17.924 51.6491 18.1565C51.7505 18.3906 51.8067 18.6434 51.813 18.915C51.8208 19.1865 51.774 19.4705 51.6741 19.767C51.337 20.7111 50.808 21.5554 50.0855 22.3029C49.3629 23.0504 48.5187 23.6481 47.5527 24.0959C46.5243 24.5735 45.4709 24.8341 44.391 24.8778C43.3127 24.923 42.2812 24.7732 41.2965 24.4299C40.3118 24.0866 39.4192 23.5607 38.6155 22.8522C37.8118 22.1437 37.172 21.2761 36.6945 20.2477C36.6991 20.2336 36.7007 20.2196 36.6945 20.2102L36.6789 20.218C36.2013 19.1896 35.9501 18.1347 35.9236 17.0548C35.897 15.9733 36.0687 14.9434 36.4401 13.9665C36.8115 12.988 37.3608 12.1001 38.0896 11.2995C38.8184 10.499 39.6969 9.86071 40.7253 9.38319C41.6913 8.93531 42.6901 8.66846 43.72 8.58419C44.75 8.49992 45.7331 8.63413 46.671 8.98681C46.9566 9.09137 47.2047 9.2365 47.4154 9.41908C47.626 9.60322 47.7868 9.80922 47.8991 10.0386C48.0115 10.268 48.0708 10.5099 48.0755 10.7627C48.0802 11.0171 48.0287 11.2683 47.9194 11.5196C47.7946 11.7895 47.6573 12.0033 47.5059 12.1609C47.3545 12.3186 47.1907 12.4387 47.0159 12.5199C46.7178 12.6588 46.4073 12.7118 46.0873 12.679C45.7659 12.6478 45.4569 12.5932 45.1604 12.5183C44.5768 12.3903 44.0399 12.3513 43.5515 12.4028C43.063 12.4543 42.5871 12.587 42.1251 12.8023C41.6008 13.0458 41.1467 13.3875 40.7644 13.8276C40.3805 14.2677 40.0949 14.7561 39.9076 15.2929C39.7188 15.8298 39.6298 16.39 39.6376 16.9736C39.6454 17.5573 39.7719 18.1113 40.0153 18.6356L40.0075 18.6575V18.6528Z" fill="#FF6D91"/>
<path d="M68.8135 22.6621C68.8135 22.9118 68.7651 23.1475 68.6684 23.3675C68.5716 23.5875 68.439 23.781 68.2689 23.9449C68.0988 24.1103 67.9037 24.2367 67.6821 24.3272C67.4605 24.4177 67.2202 24.463 66.9596 24.463C66.699 24.463 66.4743 24.4177 66.2542 24.3272C66.0326 24.2367 65.8376 24.1087 65.6675 23.9449C65.4974 23.781 65.3647 23.5875 65.268 23.3675C65.1712 23.1475 65.1228 22.9118 65.1228 22.6621V16.2764C65.1228 16.2374 65.1291 16.1999 65.14 16.1656C65.1291 15.5991 65.0261 15.0717 64.8341 14.5848C64.6406 14.0979 64.3769 13.6719 64.0429 13.3098C63.709 12.9478 63.3095 12.6606 62.8444 12.4515C62.3794 12.2424 61.8629 12.1363 61.2964 12.1363C60.7299 12.1363 60.179 12.2362 59.6812 12.4344C59.1819 12.6325 58.7511 12.9103 58.3891 13.2677C58.0271 13.625 57.7399 14.0495 57.5308 14.5426C57.3217 15.0358 57.2156 15.5773 57.2156 16.1656V22.6278C57.2156 22.8775 57.1672 23.1147 57.0704 23.3425C56.9737 23.5704 56.8442 23.7654 56.6788 23.9293C56.5149 24.0947 56.3214 24.2242 56.1014 24.321C55.8813 24.4177 55.6394 24.4661 55.3788 24.4661C55.1182 24.4661 54.8748 24.4177 54.6485 24.321C54.4207 24.2242 54.2256 24.0947 54.0617 23.9293C53.8979 23.7654 53.7668 23.5704 53.67 23.3425C53.5733 23.1147 53.5249 22.8775 53.5249 22.6278V4.41787C53.5249 4.15726 53.5733 3.91381 53.67 3.68753C53.7668 3.46125 53.8994 3.26307 54.0695 3.09297C54.2396 2.92287 54.4378 2.79022 54.6641 2.69347C54.8904 2.59672 55.1291 2.54834 55.3788 2.54834C55.6285 2.54834 55.8813 2.59672 56.1014 2.69347C56.323 2.79022 56.5149 2.92287 56.6788 3.09297C56.8426 3.26307 56.9737 3.46125 57.0704 3.68753C57.1672 3.91381 57.2156 4.15882 57.2156 4.41787V9.9609C57.8055 9.48493 58.4422 9.11353 59.1288 8.84667C59.8139 8.57982 60.538 8.44718 61.2964 8.44718C62.3732 8.44718 63.3703 8.65473 64.2895 9.06827C65.2071 9.48181 66.0014 10.0436 66.6693 10.7521C67.3388 11.4606 67.8616 12.2908 68.2423 13.2427C68.6216 14.1946 68.8119 15.209 68.8119 16.2858V22.6621H68.8135Z" fill="#FC966C"/>
<path d="M71.075 16.5587C71.075 15.4367 71.2903 14.3849 71.721 13.4049C72.1517 12.4248 72.7354 11.5665 73.4719 10.8284C74.2085 10.0918 75.0668 9.51131 76.0484 9.08528C77.0284 8.66082 78.074 8.44702 79.1851 8.44702C80.2962 8.44702 81.362 8.65925 82.3483 9.08528C83.3345 9.50975 84.1928 10.0918 84.9247 10.8284C85.6566 11.565 86.2309 12.4248 86.6507 13.4049C87.0705 14.3849 87.2796 15.4367 87.2796 16.5587V22.5777C87.2796 22.8383 87.2312 23.0818 87.1345 23.3096C87.0377 23.5359 86.9051 23.7341 86.735 23.9042C86.5649 24.0743 86.3635 24.21 86.131 24.313C85.8985 24.4145 85.6519 24.466 85.3913 24.466C84.9497 24.466 84.5752 24.3364 84.2693 24.0743C83.9634 23.8136 83.759 23.4859 83.6576 23.088C83.0115 23.5749 82.3108 23.9603 81.5571 24.2444C80.8033 24.5268 80.0122 24.6688 79.1851 24.6688C78.074 24.6688 77.0284 24.4566 76.0484 24.0306C75.0684 23.6045 74.2085 23.024 73.4719 22.2874C72.7354 21.5509 72.1517 20.6894 71.721 19.7032C71.2903 18.7169 71.075 17.6682 71.075 16.5571V16.5587ZM74.7641 16.5587C74.7641 17.1595 74.8795 17.7291 75.1121 18.2675C75.3446 18.8059 75.6614 19.2772 76.064 19.6782C76.4666 20.0808 76.9332 20.3976 77.4669 20.6301C77.9991 20.8627 78.5718 20.9781 79.1835 20.9781C79.7952 20.9781 80.3711 20.8627 80.9095 20.6301C81.4478 20.3976 81.916 20.0808 82.3124 19.6782C82.7088 19.2756 83.0209 18.8059 83.2472 18.2675C83.4734 17.7291 83.5874 17.1595 83.5874 16.5587C83.5874 15.9579 83.4734 15.3711 83.2472 14.8327C83.0209 14.2944 82.7088 13.8262 82.3124 13.4298C81.916 13.0334 81.4478 12.7182 80.9095 12.4857C80.3711 12.2532 79.7952 12.1377 79.1835 12.1377C78.5718 12.1377 78.0131 12.2547 77.4747 12.4857C76.9363 12.7182 76.4651 13.0319 76.064 13.4298C75.6614 13.8262 75.3446 14.2944 75.1121 14.8327C74.8795 15.3711 74.7641 15.947 74.7641 16.5587Z" fill="#FFC55D"/>
<path d="M94.1319 16.8471C94.1319 17.4261 94.2396 17.9676 94.4549 18.4716C94.6703 18.9757 94.9652 19.4127 95.3397 19.7809C95.7143 20.1492 96.1559 20.4379 96.6662 20.6486C97.1765 20.8577 97.7211 20.9638 98.2985 20.9638C98.8759 20.9638 99.4174 20.853 99.923 20.633C100.429 20.413 100.864 20.1118 101.232 19.7326C101.601 19.3534 101.892 18.907 102.108 18.3983C102.323 17.888 102.431 17.3387 102.431 16.7488V10.4911C102.431 10.2414 102.482 10.0057 102.584 9.78569C102.685 9.56409 102.823 9.36902 102.993 9.19892C103.163 9.02883 103.364 8.89618 103.597 8.79943C103.829 8.70267 104.069 8.6543 104.319 8.6543C104.569 8.6543 104.817 8.70267 105.034 8.79943C105.249 8.89618 105.44 9.02883 105.603 9.19892C105.767 9.36902 105.895 9.56409 105.986 9.78569C106.076 10.0073 106.122 10.2414 106.122 10.4911V16.8159C106.122 17.746 105.969 18.6261 105.663 19.4595C105.357 20.2928 104.937 21.0434 104.405 21.7129C103.871 22.3824 103.238 22.9535 102.501 23.4295C101.764 23.9054 100.965 24.2456 100.104 24.4501V28.3608C100.104 28.6214 100.056 28.8648 99.9589 29.0927C99.8622 29.319 99.7295 29.514 99.5594 29.6794C99.3893 29.8433 99.1943 29.9744 98.9727 30.0711C98.7511 30.1679 98.517 30.2163 98.2673 30.2163C97.7336 30.2163 97.292 30.0399 96.9409 29.6888C96.5897 29.3377 96.4134 28.8945 96.4134 28.3623V24.4345C95.552 24.2191 94.7577 23.8727 94.0336 23.3967C93.3079 22.9207 92.679 22.348 92.1453 21.6801C91.6116 21.0106 91.195 20.2631 90.8953 19.4361C90.5941 18.609 90.4443 17.7351 90.4443 16.8175V10.4926C90.4443 10.2429 90.4927 10.0073 90.5895 9.78725C90.6862 9.56565 90.8157 9.37058 90.9812 9.20049C91.1466 9.03039 91.3401 8.89774 91.5679 8.80099C91.7942 8.70423 92.033 8.65586 92.2826 8.65586C92.5323 8.65586 92.7695 8.70423 92.9974 8.80099C93.2237 8.89774 93.4218 9.03039 93.5919 9.20049C93.762 9.37058 93.8947 9.56565 93.9914 9.78725C94.0882 10.0088 94.1366 10.2429 94.1366 10.4926V16.8518L94.1319 16.8471Z" fill="#F8931B"/>
<path d="M37.8993 8.18921C39.9057 8.18921 41.5322 6.56269 41.5322 4.55627C41.5322 2.54986 39.9057 0.92334 37.8993 0.92334C35.8929 0.92334 34.2664 2.54986 34.2664 4.55627C34.2664 6.56269 35.8929 8.18921 37.8993 8.18921Z" fill="#FFC65F"/>
<path d="M44.1023 18.9275C45.4106 18.9275 46.4712 17.8669 46.4712 16.5586C46.4712 15.2503 45.4106 14.1897 44.1023 14.1897C42.794 14.1897 41.7334 15.2503 41.7334 16.5586C41.7334 17.8669 42.794 18.9275 44.1023 18.9275Z" fill="#FFC65F"/>
<path d="M23.5967 35.4248C23.3974 35.4063 23.2306 35.3298 23.0962 35.1954C22.9665 35.0564 22.9016 34.8826 22.9016 34.6741V27.2853C22.9016 27.1787 22.9201 27.0791 22.9572 26.9864C22.9989 26.8937 23.0522 26.8149 23.1171 26.7501C23.1866 26.6806 23.2677 26.6273 23.3604 26.5902C23.453 26.5485 23.5527 26.5276 23.6593 26.5276H28.5249C28.6315 26.5276 28.7288 26.5485 28.8168 26.5902C28.9095 26.6273 28.9883 26.6806 29.0532 26.7501C29.118 26.8149 29.169 26.8937 29.2061 26.9864C29.2478 27.0791 29.2686 27.1787 29.2686 27.2853C29.2686 27.3872 29.2478 27.4846 29.2061 27.5772C29.169 27.6699 29.118 27.751 29.0532 27.8205C28.9883 27.8854 28.9095 27.9387 28.8168 27.9804C28.7288 28.0175 28.6315 28.036 28.5249 28.036H24.41V30.1074H27.6282C27.7348 30.1074 27.8321 30.1282 27.9202 30.1699C28.0128 30.207 28.0916 30.2603 28.1565 30.3298C28.226 30.3993 28.2793 30.4804 28.3164 30.5731C28.3581 30.6658 28.3789 30.7654 28.3789 30.872C28.3789 30.9739 28.3581 31.0712 28.3164 31.1639C28.2793 31.2519 28.226 31.3307 28.1565 31.4002C28.0916 31.4651 28.0128 31.5161 27.9202 31.5532C27.8321 31.5902 27.7348 31.6088 27.6282 31.6088H24.41V33.9165H28.5249C28.6315 33.9165 28.7288 33.9373 28.8168 33.979C28.9095 34.0161 28.9883 34.0694 29.0532 34.1389C29.118 34.2084 29.169 34.2895 29.2061 34.3822C29.2478 34.4748 29.2686 34.5745 29.2686 34.6811C29.2686 34.8989 29.1968 35.0773 29.0532 35.2163C28.9141 35.3553 28.7381 35.4248 28.5249 35.4248H23.5967ZM36.6203 32.2204C36.6157 32.6699 36.5253 33.0963 36.3492 33.4994C36.1731 33.8979 35.9345 34.2455 35.6333 34.542C35.3367 34.8386 34.9868 35.0749 34.5837 35.251C34.1852 35.4225 33.7588 35.5082 33.3047 35.5082C32.846 35.5082 32.415 35.4225 32.0119 35.251C31.6133 35.0749 31.2635 34.8363 30.9623 34.5351C30.6657 34.2339 30.4294 33.8817 30.2533 33.4786C30.0818 33.0754 29.9961 32.6468 29.9961 32.1926C29.9961 31.7339 30.0818 31.3029 30.2533 30.8998C30.4294 30.4966 30.6657 30.1468 30.9623 29.8502C31.2635 29.549 31.6133 29.3126 32.0119 29.1412C32.415 28.9651 32.846 28.8771 33.3047 28.8771C33.6384 28.8771 33.9558 28.9257 34.257 29.023C34.5628 29.1157 34.8478 29.2478 35.112 29.4192V27.2505C35.112 27.1393 35.1305 27.0374 35.1676 26.9447C35.2046 26.8474 35.2556 26.764 35.3205 26.6945C35.39 26.6203 35.4688 26.5647 35.5568 26.5276C35.6495 26.4859 35.7514 26.4651 35.8627 26.4651C35.9692 26.4651 36.0689 26.4859 36.1615 26.5276C36.2542 26.5647 36.333 26.6203 36.3979 26.6945C36.4674 26.764 36.5207 26.8474 36.5577 26.9447C36.5995 27.0374 36.6203 27.1393 36.6203 27.2505V32.2204ZM35.112 32.1926C35.112 31.9424 35.0633 31.7084 34.966 31.4906C34.8733 31.2682 34.7436 31.0759 34.5767 30.9137C34.4146 30.7515 34.2246 30.624 34.0068 30.5314C33.789 30.4341 33.555 30.3854 33.3047 30.3854C33.0545 30.3854 32.8205 30.4341 32.6027 30.5314C32.3849 30.624 32.1926 30.7515 32.0258 30.9137C31.8636 31.0759 31.7361 31.2682 31.6435 31.4906C31.5508 31.7084 31.5044 31.9424 31.5044 32.1926C31.5044 32.4382 31.5508 32.6722 31.6435 32.8947C31.7361 33.1125 31.8636 33.3048 32.0258 33.4716C32.1879 33.6338 32.3779 33.7635 32.5957 33.8609C32.8182 33.9535 33.0545 33.9999 33.3047 33.9999C33.555 33.9999 33.789 33.9535 34.0068 33.8609C34.2246 33.7635 34.4146 33.6338 34.5767 33.4716C34.7436 33.3048 34.8733 33.1125 34.966 32.8947C35.0633 32.6722 35.112 32.4382 35.112 32.1926ZM39.5012 32.3038C39.5012 32.5402 39.5429 32.7626 39.6264 32.9711C39.7144 33.175 39.8326 33.3534 39.9808 33.5064C40.1338 33.6593 40.3122 33.7798 40.5161 33.8678C40.7246 33.9558 40.947 33.9999 41.1834 33.9999C41.4243 33.9999 41.6398 33.9558 41.8298 33.8678C42.0198 33.7751 42.1797 33.6523 42.3094 33.4994C42.4438 33.3418 42.5457 33.1588 42.6152 32.9503C42.6894 32.7418 42.7265 32.5193 42.7265 32.283V29.7112C42.7265 29.6046 42.7473 29.5073 42.789 29.4192C42.8307 29.3265 42.8863 29.2478 42.9558 29.1829C43.03 29.1134 43.1134 29.0601 43.2061 29.023C43.2987 28.9813 43.3961 28.9605 43.498 28.9605C43.6046 28.9605 43.7019 28.9813 43.7899 29.023C43.878 29.0601 43.9545 29.1134 44.0193 29.1829C44.0888 29.2478 44.1421 29.3265 44.1792 29.4192C44.2163 29.5073 44.2348 29.6046 44.2348 29.7112V32.2621C44.2348 32.707 44.1583 33.1264 44.0054 33.5203C43.8571 33.9141 43.6486 34.2594 43.3798 34.5559C43.1111 34.8479 42.789 35.0796 42.4137 35.251C42.0383 35.4225 41.6282 35.5082 41.1834 35.5082C40.7385 35.5082 40.3214 35.4248 39.9322 35.258C39.5476 35.0865 39.2116 34.8548 38.9243 34.5629C38.637 34.271 38.4099 33.9304 38.2431 33.5411C38.0763 33.1519 37.9929 32.7371 37.9929 32.2969V29.7112C37.9929 29.6046 38.0114 29.5073 38.0485 29.4192C38.0902 29.3265 38.1435 29.2478 38.2084 29.1829C38.2779 29.1134 38.359 29.0601 38.4517 29.023C38.5443 28.9813 38.6416 28.9605 38.7436 28.9605C38.8455 28.9605 38.9428 28.9813 39.0355 29.023C39.1282 29.0601 39.2093 29.1134 39.2788 29.1829C39.3483 29.2478 39.4016 29.3265 39.4387 29.4192C39.4804 29.5073 39.5012 29.6046 39.5012 29.7112V32.3038ZM46.6619 32.1926C46.6619 32.4104 46.7059 32.6259 46.7939 32.8391C46.8866 33.0522 47.0094 33.2445 47.1623 33.416C47.3199 33.5828 47.5029 33.7195 47.7115 33.8261C47.92 33.9327 48.1447 33.9883 48.3857 33.9929C48.6359 33.9929 48.856 33.9628 49.046 33.9026C49.2407 33.8377 49.4353 33.7241 49.6299 33.562C49.7226 33.4832 49.8245 33.4114 49.9357 33.3465C50.0516 33.277 50.1767 33.2422 50.3111 33.2422C50.3899 33.2422 50.4733 33.2608 50.5613 33.2978C50.6494 33.3303 50.7397 33.3859 50.8324 33.4646C50.9112 33.5342 50.9691 33.6176 51.0062 33.7149C51.0479 33.8076 51.0664 33.9072 51.0618 34.0138C51.0618 34.1157 51.0386 34.2177 50.9923 34.3196C50.9506 34.4216 50.8857 34.5189 50.7977 34.6115C50.5103 34.9035 50.1674 35.1259 49.7689 35.2788C49.375 35.4318 48.9603 35.5082 48.5247 35.5082C48.0613 35.5082 47.6257 35.4248 47.2179 35.258C46.8102 35.0865 46.4533 34.8525 46.1475 34.5559C45.8417 34.2594 45.6007 33.9118 45.4246 33.5133C45.2485 33.1102 45.1605 32.6769 45.1605 32.2135C45.1651 32.2089 45.1674 32.2042 45.1674 32.1996H45.1605C45.1605 31.7362 45.2485 31.3029 45.4246 30.8998C45.6007 30.492 45.8417 30.1398 46.1475 29.8432C46.4533 29.542 46.8102 29.3057 47.2179 29.1342C47.6257 28.9628 48.0613 28.8771 48.5247 28.8771C48.9603 28.8771 49.375 28.9512 49.7689 29.0995C50.1674 29.2431 50.5103 29.4609 50.7977 29.7529C50.8857 29.8409 50.9529 29.9382 50.9992 30.0448C51.0456 30.1468 51.0687 30.251 51.0687 30.3576C51.0734 30.4595 51.0548 30.5592 51.0131 30.6565C50.9714 30.7492 50.9089 30.8326 50.8255 30.9067C50.7328 30.9855 50.6447 31.0411 50.5613 31.0735C50.4779 31.106 50.3968 31.1222 50.318 31.1222C50.1837 31.1222 50.0585 31.0898 49.9427 31.0249C49.8315 30.9554 49.7272 30.8812 49.6299 30.8025C49.4353 30.6542 49.243 30.5476 49.053 30.4827C48.863 30.4178 48.6637 30.3854 48.4552 30.3854C48.2189 30.3854 47.9918 30.4341 47.774 30.5314C47.5562 30.6287 47.3662 30.7607 47.204 30.9276C47.0418 31.0944 46.9121 31.2867 46.8148 31.5045C46.7175 31.7223 46.6688 31.9494 46.6688 32.1857L46.6619 32.1926ZM51.7448 32.1926C51.7448 31.7339 51.8329 31.3052 52.009 30.9067C52.185 30.5036 52.4237 30.1514 52.7249 29.8502C53.0261 29.549 53.376 29.3126 53.7745 29.1412C54.1776 28.9651 54.6063 28.8771 55.0604 28.8771C55.5192 28.8771 55.9501 28.9651 56.3533 29.1412C56.7564 29.3126 57.1063 29.549 57.4029 29.8502C57.7041 30.1514 57.9404 30.5036 58.1119 30.9067C58.2833 31.3052 58.369 31.7339 58.369 32.1926V34.6533C58.369 34.7598 58.3482 34.8595 58.3065 34.9521C58.2694 35.0448 58.2161 35.1259 58.1466 35.1954C58.0771 35.2649 57.9937 35.3205 57.8964 35.3622C57.8037 35.404 57.7041 35.4248 57.5975 35.4248C57.4168 35.4248 57.2638 35.3715 57.1387 35.2649C57.0136 35.1584 56.9302 35.024 56.8885 34.8618C56.6244 35.061 56.3371 35.2186 56.0266 35.3344C55.7207 35.4503 55.3987 35.5082 55.0604 35.5082C54.6063 35.5082 54.1776 35.4225 53.7745 35.251C53.376 35.0749 53.0261 34.8363 52.7249 34.5351C52.4237 34.2339 52.185 33.8817 52.009 33.4786C51.8329 33.0754 51.7448 32.6468 51.7448 32.1926ZM53.2532 32.1926C53.2532 32.4382 53.2995 32.6722 53.3922 32.8947C53.4895 33.1125 53.6192 33.3048 53.7814 33.4716C53.9483 33.6338 54.1406 33.7635 54.3584 33.8609C54.5762 33.9535 54.8102 33.9999 55.0604 33.9999C55.3106 33.9999 55.5447 33.9535 55.7624 33.8609C55.9849 33.7635 56.1772 33.6338 56.3394 33.4716C56.5016 33.3048 56.629 33.1125 56.7217 32.8947C56.8143 32.6722 56.8607 32.4382 56.8607 32.1926C56.8607 31.9424 56.8143 31.7084 56.7217 31.4906C56.629 31.2682 56.5016 31.0759 56.3394 30.9137C56.1772 30.7515 55.9849 30.624 55.7624 30.5314C55.5447 30.4341 55.3106 30.3854 55.0604 30.3854C54.8148 30.3854 54.5808 30.4341 54.3584 30.5314C54.1406 30.624 53.9483 30.7515 53.7814 30.9137C53.6192 31.0759 53.4895 31.2682 53.3922 31.4906C53.2995 31.7084 53.2532 31.9424 53.2532 32.1926ZM61.2172 28.9605H63.6361C63.7427 28.9605 63.8423 28.9813 63.935 29.023C64.0277 29.0601 64.1087 29.1134 64.1783 29.1829C64.2478 29.2524 64.3011 29.3335 64.3381 29.4262C64.3798 29.5189 64.4007 29.6185 64.4007 29.7251C64.4007 29.827 64.3798 29.9243 64.3381 30.017C64.3011 30.105 64.2478 30.1838 64.1783 30.2533C64.1087 30.3182 64.0277 30.3715 63.935 30.4132C63.8423 30.4503 63.7427 30.4688 63.6361 30.4688H61.2172V32.2274C61.2172 32.473 61.2635 32.7047 61.3562 32.9225C61.4535 33.1356 61.5832 33.3233 61.7454 33.4855C61.9076 33.6431 62.0976 33.7682 62.3154 33.8609C62.5378 33.9535 62.7742 33.9999 63.0244 33.9999C63.2468 33.9999 63.453 33.9697 63.643 33.9095C63.833 33.8446 64.0091 33.7404 64.1713 33.5967C64.2501 33.5226 64.3381 33.4623 64.4354 33.416C64.5327 33.365 64.6347 33.3395 64.7413 33.3395C64.9127 33.3395 65.068 33.4021 65.207 33.5272C65.2904 33.6014 65.3483 33.6894 65.3808 33.7913C65.4178 33.8933 65.4317 33.9999 65.4225 34.1111C65.4178 34.2177 65.3923 34.3219 65.346 34.4239C65.2997 34.5258 65.2348 34.6162 65.1514 34.695C64.8733 34.9637 64.5536 35.1676 64.1922 35.3066C63.8307 35.441 63.4415 35.5082 63.0244 35.5082C62.5656 35.5082 62.1347 35.4225 61.7315 35.251C61.333 35.0796 60.9832 34.8456 60.6819 34.549C60.3807 34.2524 60.1421 33.9049 59.966 33.5064C59.7945 33.1032 59.7088 32.6722 59.7088 32.2135V27.751C59.7088 27.6444 59.7297 27.5448 59.7714 27.4521C59.8131 27.3594 59.8687 27.2783 59.9382 27.2088C60.0077 27.1393 60.0888 27.086 60.1815 27.049C60.2742 27.0073 60.3715 26.9864 60.4734 26.9864C60.5754 26.9864 60.6704 27.0073 60.7584 27.049C60.8511 27.086 60.9299 27.1393 60.9947 27.2088C61.0642 27.2783 61.1175 27.3594 61.1546 27.4521C61.1963 27.5448 61.2172 27.6444 61.2172 27.751V28.9605ZM66.3355 27.4243C66.3355 27.3085 66.3564 27.1996 66.3981 27.0976C66.4444 26.9957 66.5047 26.9076 66.5788 26.8335C66.653 26.7593 66.741 26.7014 66.8429 26.6597C66.9449 26.6134 67.0515 26.5902 67.1627 26.5902C67.2739 26.5902 67.3805 26.6134 67.4824 26.6597C67.5844 26.7014 67.6724 26.7593 67.7466 26.8335C67.8253 26.9076 67.8856 26.9957 67.9273 27.0976C67.9736 27.1996 67.9968 27.3085 67.9968 27.4243C67.9968 27.5355 67.9736 27.6421 67.9273 27.7441C67.8856 27.8414 67.8253 27.9271 67.7466 28.0012C67.6724 28.0754 67.5844 28.1356 67.4824 28.182C67.3805 28.2237 67.2739 28.2445 67.1627 28.2445C67.0515 28.2445 66.9449 28.2237 66.8429 28.182C66.741 28.1356 66.653 28.0754 66.5788 28.0012C66.5047 27.9271 66.4444 27.8414 66.3981 27.7441C66.3564 27.6421 66.3355 27.5355 66.3355 27.4243ZM67.9203 34.6741C67.9203 34.7761 67.8995 34.8734 67.8578 34.966C67.8207 35.0587 67.7674 35.1398 67.6979 35.2093C67.633 35.2742 67.5543 35.3275 67.4616 35.3692C67.3735 35.4063 67.2762 35.4248 67.1696 35.4248C67.0677 35.4248 66.9704 35.4063 66.8777 35.3692C66.785 35.3275 66.7039 35.2742 66.6344 35.2093C66.5649 35.1398 66.5093 35.0587 66.4676 34.966C66.4305 34.8734 66.412 34.7761 66.412 34.6741V29.7112C66.412 29.6092 66.4328 29.5142 66.4745 29.4262C66.5163 29.3335 66.5719 29.2524 66.6414 29.1829C66.7109 29.1134 66.792 29.0601 66.8847 29.023C66.9773 28.9813 67.077 28.9605 67.1835 28.9605C67.2901 28.9605 67.3874 28.9813 67.4755 29.023C67.5635 29.0601 67.64 29.1134 67.7049 29.1829C67.7744 29.2524 67.8277 29.3335 67.8647 29.4262C67.9018 29.5142 67.9203 29.6092 67.9203 29.7112V34.6741ZM70.549 32.1926C70.549 32.4382 70.5953 32.6722 70.688 32.8947C70.7853 33.1125 70.9151 33.3048 71.0772 33.4716C71.2441 33.6338 71.4364 33.7635 71.6542 33.8609C71.872 33.9535 72.106 33.9999 72.3562 33.9999C72.6064 33.9999 72.8405 33.9535 73.0583 33.8609C73.2807 33.7635 73.473 33.6338 73.6352 33.4716C73.7974 33.3048 73.9248 33.1125 74.0175 32.8947C74.1102 32.6722 74.1565 32.4382 74.1565 32.1926C74.1565 31.9424 74.1102 31.7084 74.0175 31.4906C73.9248 31.2682 73.7974 31.0759 73.6352 30.9137C73.473 30.7515 73.2807 30.624 73.0583 30.5314C72.8405 30.4341 72.6064 30.3854 72.3562 30.3854C72.1106 30.3854 71.8766 30.4341 71.6542 30.5314C71.4364 30.624 71.2441 30.7515 71.0772 30.9137C70.9151 31.0759 70.7853 31.2682 70.688 31.4906C70.5953 31.7084 70.549 31.9424 70.549 32.1926ZM69.0406 32.1926C69.0406 31.7339 69.1287 31.3052 69.3048 30.9067C69.4809 30.5036 69.7195 30.1514 70.0207 29.8502C70.3219 29.549 70.6718 29.3126 71.0703 29.1412C71.4734 28.9651 71.9021 28.8771 72.3562 28.8771C72.815 28.8771 73.2459 28.9651 73.6491 29.1412C74.0522 29.3126 74.4021 29.549 74.6987 29.8502C74.9999 30.1514 75.2362 30.5036 75.4077 30.9067C75.5791 31.3052 75.6648 31.7339 75.6648 32.1926C75.6648 32.6468 75.5791 33.0754 75.4077 33.4786C75.2362 33.8817 74.9999 34.2339 74.6987 34.5351C74.4021 34.8363 74.0522 35.0749 73.6491 35.251C73.2459 35.4225 72.815 35.5082 72.3562 35.5082C71.9021 35.5082 71.4734 35.4225 71.0703 35.251C70.6718 35.0749 70.3219 34.8363 70.0207 34.5351C69.7195 34.2339 69.4809 33.8817 69.3048 33.4786C69.1287 33.0754 69.0406 32.6468 69.0406 32.1926ZM82.8105 34.695C82.8105 34.8015 82.7896 34.9012 82.7479 34.9938C82.7109 35.0819 82.6599 35.1607 82.595 35.2302C82.5301 35.2951 82.4514 35.346 82.3587 35.3831C82.2706 35.4202 82.1756 35.4387 82.0737 35.4387C81.9717 35.4387 81.8721 35.4202 81.7748 35.3831C81.6821 35.346 81.601 35.2951 81.5315 35.2302C81.462 35.1607 81.4064 35.0819 81.3647 34.9938C81.323 34.9012 81.3021 34.8015 81.3021 34.695V32.1092C81.3021 32.0722 81.3045 32.0443 81.3091 32.0258C81.2998 31.7987 81.2535 31.5856 81.1701 31.3863C81.0867 31.1871 80.9731 31.0133 80.8295 30.865C80.6858 30.7167 80.5167 30.6009 80.3221 30.5175C80.1321 30.4294 79.9212 30.3854 79.6895 30.3854C79.4532 30.3854 79.2354 30.4294 79.0361 30.5175C78.8369 30.6009 78.6654 30.719 78.5218 30.872C78.3828 31.0249 78.2715 31.2056 78.1881 31.4141C78.1094 31.618 78.07 31.8381 78.07 32.0745V34.695C78.07 34.8015 78.0514 34.9012 78.0144 34.9938C77.9773 35.0819 77.924 35.1607 77.8545 35.2302C77.7896 35.2951 77.7132 35.346 77.6251 35.3831C77.5371 35.4202 77.4397 35.4387 77.3332 35.4387C77.2312 35.4387 77.1339 35.4202 77.0412 35.3831C76.9486 35.346 76.8651 35.2951 76.791 35.2302C76.7215 35.1607 76.6659 35.0819 76.6242 34.9938C76.5825 34.9012 76.5616 34.8015 76.5616 34.695V32.0745C76.5616 31.6296 76.6404 31.2149 76.7979 30.8303C76.9601 30.441 77.1802 30.1027 77.4583 29.8154C77.741 29.5235 78.0723 29.2941 78.4523 29.1273C78.8369 28.9605 79.2493 28.8771 79.6895 28.8771C80.1344 28.8771 80.5468 28.9605 80.9268 29.1273C81.3068 29.2941 81.6358 29.5235 81.9138 29.8154C82.1919 30.1027 82.4096 30.441 82.5672 30.8303C82.7294 31.2149 82.8105 31.6296 82.8105 32.0745V34.695Z" fill="#DFAB4C"/>
</svg>
