<svg width="32" height="32" viewBox="0 0 32 32" fill="none" xmlns="http://www.w3.org/2000/svg">
<path d="M0.5 16C0.5 7.43959 7.43959 0.5 16 0.5C24.5604 0.5 31.5 7.43959 31.5 16C31.5 24.5604 24.5604 31.5 16 31.5C7.43959 31.5 0.5 24.5604 0.5 16Z" stroke="#E4E4E7"/>
<path fill-rule="evenodd" clip-rule="evenodd" d="M19.2217 13.6873C19.4169 13.492 19.4169 13.1754 19.2217 12.9802C19.0264 12.7849 18.7098 12.7849 18.5146 12.9802L16.0001 15.4947L13.4856 12.9802C13.2904 12.7849 12.9738 12.7849 12.7785 12.9802C12.5833 13.1754 12.5833 13.492 12.7785 13.6873L15.293 16.2018L12.7785 18.7162C12.5833 18.9115 12.5833 19.2281 12.7785 19.4233C12.9738 19.6186 13.2904 19.6186 13.4856 19.4233L16.0001 16.9089L18.5146 19.4233C18.7098 19.6186 19.0264 19.6186 19.2217 19.4233C19.4169 19.2281 19.4169 18.9115 19.2217 18.7162L16.7072 16.2018L19.2217 13.6873Z" fill="#0E0E0F"/>
</svg>
