<svg width="24" height="24" viewBox="0 0 24 24" fill="none" xmlns="http://www.w3.org/2000/svg">
<path d="M19.5385 22.2051C18.2893 22.2051 17.2334 21.7738 16.3708 20.9113C15.5083 20.0487 15.077 18.9928 15.077 17.7436C15.077 16.4944 15.5083 15.4385 16.3708 14.5759C17.2334 13.7134 18.2893 13.2821 19.5385 13.2821C20.7877 13.2821 21.8436 13.7134 22.7061 14.5759C23.5687 15.4385 24 16.4944 24 17.7436C24 18.9928 23.5687 20.0487 22.7061 20.9113C21.8436 21.7738 20.7877 22.2051 19.5385 22.2051ZM19.5372 20.2052C20.2167 20.2052 20.797 19.965 21.2782 19.4846C21.7594 19.0043 22 18.4244 22 17.7449C22 17.0654 21.7599 16.4851 21.2795 16.0039C20.7992 15.5227 20.2193 15.2821 19.5398 15.2821C18.8603 15.2821 18.2799 15.5222 17.7987 16.0026C17.3175 16.4829 17.0769 17.0628 17.0769 17.7423C17.0769 18.4218 17.3171 19.0022 17.7974 19.4834C18.2778 19.9646 18.8577 20.2052 19.5372 20.2052ZM11.1539 18.7436H3.00001C2.71667 18.7436 2.47917 18.6477 2.28751 18.456C2.09584 18.2642 2.00001 18.0266 2.00001 17.7432C2.00001 17.4597 2.09584 17.2222 2.28751 17.0308C2.47917 16.8394 2.71667 16.7436 3.00001 16.7436H11.1539C11.4372 16.7436 11.6747 16.8395 11.8664 17.0313C12.058 17.223 12.1539 17.4606 12.1539 17.7441C12.1539 18.0275 12.058 18.265 11.8664 18.4564C11.6747 18.6478 11.4372 18.7436 11.1539 18.7436ZM4.46151 10.7179C3.21231 10.7179 2.15642 10.2867 1.29384 9.42411C0.431279 8.56155 0 7.50566 0 6.25643C0 5.00721 0.431279 3.95132 1.29384 3.08876C2.15642 2.2262 3.21231 1.79492 4.46151 1.79492C5.71074 1.79492 6.76663 2.2262 7.62919 3.08876C8.49175 3.95132 8.92302 5.00721 8.92302 6.25643C8.92302 7.50566 8.49175 8.56155 7.62919 9.42411C6.76663 10.2867 5.71074 10.7179 4.46151 10.7179ZM4.46025 8.71797C5.13974 8.71797 5.72008 8.47781 6.20128 7.99747C6.68248 7.51714 6.92309 6.93722 6.92309 6.25773C6.92309 5.57822 6.68292 4.99786 6.20258 4.51666C5.72225 4.03546 5.14232 3.79486 4.46281 3.79486C3.78332 3.79486 3.20298 4.03504 2.72177 4.51539C2.24057 4.99573 1.99997 5.57564 1.99997 6.25513C1.99997 6.93462 2.24014 7.51497 2.72047 7.99617C3.20081 8.47737 3.78073 8.71797 4.46025 8.71797ZM21 7.2564H12.8461C12.5628 7.2564 12.3253 7.16052 12.1336 6.96877C11.942 6.77703 11.8461 6.53943 11.8461 6.25597C11.8461 5.97252 11.942 5.73508 12.1336 5.54363C12.3253 5.35219 12.5628 5.25646 12.8461 5.25646H21C21.2833 5.25646 21.5208 5.35233 21.7125 5.54407C21.9042 5.73582 22 5.97342 22 6.25687C22 6.54033 21.9042 6.77779 21.7125 6.96924C21.5208 7.16068 21.2833 7.2564 21 7.2564Z" fill="#3F3F46"/>
</svg>
