<svg width="92" height="33" viewBox="0 0 92 33" fill="none" xmlns="http://www.w3.org/2000/svg">
<path d="M0 3.90796C0 3.67256 0.0419393 3.45339 0.125818 3.25181C0.209697 3.05023 0.321986 2.87301 0.465391 2.72148C0.607444 2.56861 0.777907 2.45091 0.974075 2.36703C1.17024 2.28315 1.38129 2.24121 1.60858 2.24121C1.83586 2.24121 2.05773 2.28315 2.24984 2.36703C2.44195 2.45091 2.60836 2.56861 2.75041 2.72148C2.89246 2.87436 3.0034 3.05023 3.08186 3.25181C3.16033 3.45339 3.19956 3.67256 3.19956 3.90796V8.50776C3.75966 8.14383 4.36169 7.86108 5.00566 7.66085C5.64963 7.45927 6.32472 7.35916 7.03228 7.35916C8.005 7.35916 8.91684 7.54315 9.76645 7.91249C10.6161 8.28047 11.3588 8.78239 11.9919 9.41554C12.6251 10.0487 13.127 10.7941 13.495 11.6491C13.863 12.5042 14.0483 13.4187 14.0483 14.3914C14.0483 15.3642 13.8643 16.2638 13.495 17.1188C13.127 17.9739 12.6251 18.7207 11.9919 19.3592C11.3574 19.9978 10.6161 20.5011 9.76645 20.8704C8.91684 21.2384 8.005 21.4237 7.03228 21.4237C6.05956 21.4237 5.15989 21.2397 4.30487 20.8704C3.44985 20.5011 2.70306 19.9978 2.0645 19.3592C1.42594 18.7207 0.922665 17.9739 0.553329 17.1188C0.185345 16.2638 0 15.3547 0 14.3914L0 3.90796ZM3.19956 14.3887C3.19956 14.9096 3.29968 15.4034 3.50126 15.8701C3.70284 16.3369 3.97747 16.7455 4.32651 17.0931C4.67556 17.4422 5.08007 17.7168 5.54276 17.9184C6.00409 18.12 6.5006 18.2201 7.03092 18.2201C7.56125 18.2201 8.05776 18.12 8.51909 17.9184C8.98043 17.7168 9.38629 17.4422 9.73533 17.0931C10.0844 16.7441 10.3563 16.3369 10.5538 15.8701C10.75 15.4034 10.8488 14.9096 10.8488 14.3887C10.8488 13.8679 10.75 13.3592 10.5538 12.8924C10.3577 12.4257 10.0844 12.0198 9.73533 11.6762C9.38629 11.3326 8.98043 11.0593 8.51909 10.8577C8.05776 10.6561 7.56125 10.556 7.03092 10.556C6.5006 10.556 6.00409 10.6575 5.54276 10.8577C5.08007 11.0593 4.67556 11.3312 4.32651 11.6762C3.97747 12.0198 3.70284 12.4257 3.50126 12.8924C3.29968 13.3592 3.19956 13.8584 3.19956 14.3887Z" fill="#845DC2"/>
<path d="M15.3457 14.3897C15.3457 13.417 15.5324 12.5051 15.9058 11.6555C16.2792 10.8059 16.7852 10.0618 17.4237 9.42192C18.0623 8.78336 18.8064 8.28009 19.6573 7.91075C20.5069 7.54277 21.4134 7.35742 22.3766 7.35742C23.3399 7.35742 24.2639 7.54141 25.1189 7.91075C25.9739 8.27873 26.718 8.78336 27.3525 9.42192C27.9857 10.0605 28.4849 10.8059 28.8488 11.6555C29.2127 12.5051 29.394 13.417 29.394 14.3897V19.6078C29.394 19.8337 29.3521 20.0447 29.2682 20.2423C29.1843 20.4384 29.0693 20.6102 28.9219 20.7577C28.7744 20.9052 28.5999 21.0229 28.3983 21.1122C28.1967 21.2001 27.983 21.2447 27.757 21.2447C27.3742 21.2447 27.0495 21.1325 26.7843 20.9052C26.5191 20.6792 26.3419 20.3951 26.254 20.0502C25.6939 20.4723 25.0864 20.8064 24.433 21.0526C23.7796 21.2975 23.0937 21.4206 22.3766 21.4206C21.4134 21.4206 20.5069 21.2366 19.6573 20.8673C18.8077 20.498 18.0623 19.9947 17.4237 19.3561C16.7852 18.7176 16.2792 17.9708 15.9058 17.1158C15.5324 16.2607 15.3457 15.3516 15.3457 14.3883V14.3897ZM18.5439 14.3897C18.5439 14.9106 18.644 15.4044 18.8456 15.8711C19.0472 16.3378 19.3218 16.7464 19.6709 17.0941C20.0199 17.4432 20.4244 17.7178 20.8871 17.9194C21.3484 18.1209 21.8449 18.2211 22.3766 18.2211C22.9083 18.2211 23.4062 18.1209 23.8729 17.9194C24.3397 17.7178 24.7455 17.4432 25.0892 17.0941C25.4328 16.7451 25.7034 16.3378 25.8995 15.8711C26.0957 15.4044 26.1945 14.9106 26.1945 14.3897C26.1945 13.8688 26.0957 13.3602 25.8995 12.8934C25.7034 12.4267 25.4328 12.0208 25.0892 11.6772C24.7455 11.3335 24.3397 11.0603 23.8729 10.8587C23.4062 10.6571 22.907 10.557 22.3766 10.557C21.8463 10.557 21.362 10.6585 20.8952 10.8587C20.4285 11.0603 20.0199 11.3322 19.6722 11.6772C19.3232 12.0208 19.0485 12.4267 18.847 12.8934C18.6454 13.3602 18.5453 13.8594 18.5453 14.3897H18.5439Z" fill="#D55FAD"/>
<path d="M34.6837 16.205C34.8785 16.6244 35.1572 16.9991 35.5211 17.3279C35.885 17.658 36.2922 17.9164 36.7414 18.1031C37.1906 18.2898 37.6641 18.3926 38.1606 18.4116C38.6571 18.4305 39.1387 18.3371 39.6068 18.1315C40.0884 17.9083 40.4862 17.6512 40.8 17.359C41.1139 17.0668 41.3858 16.6785 41.6158 16.1928C41.7241 15.9588 41.8566 15.7261 42.0149 15.4961C42.1732 15.2661 42.3816 15.0902 42.64 14.9712C42.7915 14.9008 42.9674 14.8602 43.1676 14.8481C43.3678 14.8359 43.5924 14.8643 43.8413 14.9333C44.0551 14.9969 44.2418 15.1024 44.4028 15.2499C44.5638 15.3973 44.6882 15.5732 44.7762 15.7748C44.8641 15.9777 44.9128 16.1969 44.9182 16.4323C44.925 16.6677 44.8844 16.9139 44.7978 17.171C44.5056 17.9895 44.047 18.7214 43.4206 19.3694C42.7942 20.0174 42.0623 20.5356 41.2249 20.9239C40.3333 21.3378 39.4201 21.5638 38.4839 21.6016C37.5491 21.6409 36.6548 21.511 35.8011 21.2134C34.9475 20.9157 34.1736 20.4598 33.4769 19.8456C32.7802 19.2314 32.2255 18.4792 31.8115 17.5876C31.8156 17.5755 31.8169 17.5633 31.8115 17.5552L31.798 17.5619C31.384 16.6704 31.1662 15.7558 31.1432 14.8197C31.1202 13.8821 31.269 12.9892 31.591 12.1423C31.913 11.294 32.3892 10.5243 33.021 9.83023C33.6528 9.1362 34.4144 8.58287 35.306 8.16889C36.1434 7.78061 37.0093 7.54927 37.9022 7.47621C38.7951 7.40316 39.6474 7.5195 40.4605 7.82526C40.7081 7.9159 40.9232 8.04172 41.1058 8.2C41.2884 8.35964 41.4278 8.53822 41.5252 8.7371C41.6226 8.93597 41.674 9.14567 41.6781 9.36483C41.6821 9.58535 41.6375 9.80317 41.5428 10.021C41.4345 10.255 41.3155 10.4404 41.1843 10.577C41.053 10.7137 40.911 10.8178 40.7595 10.8882C40.5011 11.0086 40.2318 11.0546 39.9545 11.0262C39.6758 10.9991 39.4079 10.9518 39.1509 10.8868C38.6449 10.7759 38.1795 10.7421 37.7561 10.7867C37.3326 10.8314 36.92 10.9464 36.5195 11.1331C36.065 11.3441 35.6713 11.6404 35.3398 12.0219C35.007 12.4034 34.7594 12.8269 34.5971 13.2922C34.4334 13.7576 34.3563 14.2433 34.363 14.7493C34.3698 15.2553 34.4794 15.7356 34.6904 16.1901L34.6837 16.2091V16.205Z" fill="#FF6D91"/>
<path d="M59.6565 19.6805C59.6565 19.8969 59.6146 20.1012 59.5307 20.292C59.4468 20.4827 59.3318 20.6505 59.1844 20.7925C59.0369 20.9359 58.8678 21.0455 58.6757 21.124C58.4836 21.2024 58.2752 21.2417 58.0493 21.2417C57.8234 21.2417 57.6286 21.2024 57.4378 21.124C57.2457 21.0455 57.0766 20.9346 56.9291 20.7925C56.7816 20.6505 56.6667 20.4827 56.5828 20.292C56.4989 20.1012 56.457 19.8969 56.457 19.6805V14.1445C56.457 14.1106 56.4624 14.0782 56.4718 14.0484C56.4624 13.5573 56.3731 13.1 56.2067 12.6779C56.0389 12.2558 55.8103 11.8865 55.5208 11.5726C55.2313 11.2588 54.8849 11.0098 54.4818 10.8285C54.0786 10.6473 53.6308 10.5553 53.1397 10.5553C52.6486 10.5553 52.171 10.6419 51.7395 10.8137C51.3065 10.9855 50.9331 11.2263 50.6193 11.5361C50.3054 11.8459 50.0565 12.2139 49.8752 12.6414C49.6939 13.0689 49.6019 13.5384 49.6019 14.0484V19.6507C49.6019 19.8671 49.56 20.0728 49.4761 20.2703C49.3922 20.4678 49.2799 20.6369 49.1365 20.779C48.9945 20.9224 48.8267 21.0347 48.636 21.1186C48.4452 21.2024 48.2355 21.2444 48.0096 21.2444C47.7836 21.2444 47.5726 21.2024 47.3764 21.1186C47.1789 21.0347 47.0098 20.9224 46.8677 20.779C46.7257 20.6369 46.612 20.4678 46.5282 20.2703C46.4443 20.0728 46.4023 19.8671 46.4023 19.6507V3.86392C46.4023 3.63798 46.4443 3.42693 46.5282 3.23077C46.612 3.0346 46.727 2.86278 46.8745 2.71532C47.022 2.56786 47.1938 2.45286 47.3899 2.36898C47.5861 2.2851 47.7931 2.24316 48.0096 2.24316C48.226 2.24316 48.4452 2.2851 48.636 2.36898C48.8281 2.45286 48.9945 2.56786 49.1365 2.71532C49.2786 2.86278 49.3922 3.0346 49.4761 3.23077C49.56 3.42693 49.6019 3.63934 49.6019 3.86392V8.66935C50.1133 8.25672 50.6653 7.93474 51.2605 7.70339C51.8545 7.47205 52.4822 7.35705 53.1397 7.35705C54.0732 7.35705 54.9377 7.53699 55.7345 7.8955C56.53 8.25401 57.2186 8.74105 57.7977 9.35526C58.3781 9.96947 58.8313 10.6892 59.1614 11.5145C59.4901 12.3397 59.6552 13.2191 59.6552 14.1526V19.6805H59.6565Z" fill="#FC966C"/>
<path d="M61.6172 14.3897C61.6172 13.417 61.8039 12.5051 62.1773 11.6555C62.5507 10.8059 63.0567 10.0618 63.6952 9.42192C64.3338 8.78336 65.0779 8.28009 65.9288 7.91075C66.7784 7.54277 67.6849 7.35742 68.6481 7.35742C69.6114 7.35742 70.5354 7.54141 71.3904 7.91075C72.2454 8.27873 72.9895 8.78336 73.624 9.42192C74.2585 10.0605 74.7564 10.8059 75.1203 11.6555C75.4842 12.5051 75.6655 13.417 75.6655 14.3897V19.6078C75.6655 19.8337 75.6236 20.0447 75.5397 20.2423C75.4558 20.4384 75.3408 20.6102 75.1933 20.7577C75.0459 20.9052 74.8714 21.0229 74.6698 21.1122C74.4682 21.2001 74.2545 21.2447 74.0285 21.2447C73.6457 21.2447 73.321 21.1325 73.0558 20.9052C72.7906 20.6792 72.6134 20.3951 72.5255 20.0502C71.9654 20.4723 71.3579 20.8064 70.7045 21.0526C70.051 21.2975 69.3651 21.4206 68.6481 21.4206C67.6849 21.4206 66.7784 21.2366 65.9288 20.8673C65.0792 20.498 64.3338 19.9947 63.6952 19.3561C63.0567 18.7176 62.5507 17.9708 62.1773 17.1158C61.8039 16.2607 61.6172 15.3516 61.6172 14.3883V14.3897ZM64.8154 14.3897C64.8154 14.9106 64.9155 15.4044 65.1171 15.8711C65.3187 16.3378 65.5933 16.7464 65.9423 17.0941C66.2914 17.4432 66.6959 17.7178 67.1586 17.9194C67.6199 18.1209 68.1164 18.2211 68.6468 18.2211C69.1771 18.2211 69.6763 18.1209 70.143 17.9194C70.6098 17.7178 71.0157 17.4432 71.3593 17.0941C71.7029 16.7451 71.9735 16.3378 72.1697 15.8711C72.3658 15.4044 72.4646 14.9106 72.4646 14.3897C72.4646 13.8688 72.3658 13.3602 72.1697 12.8934C71.9735 12.4267 71.7029 12.0208 71.3593 11.6772C71.0157 11.3335 70.6098 11.0603 70.143 10.8587C69.6763 10.6571 69.1771 10.557 68.6468 10.557C68.1164 10.557 67.6321 10.6585 67.1654 10.8587C66.6986 11.0603 66.29 11.3322 65.9423 11.6772C65.5933 12.0208 65.3187 12.4267 65.1171 12.8934C64.9155 13.3602 64.8154 13.8594 64.8154 14.3897Z" fill="#FFC55D"/>
<path d="M81.6058 14.6397C81.6058 15.1417 81.6991 15.6111 81.8858 16.0481C82.0725 16.4851 82.3282 16.8639 82.6529 17.1832C82.9776 17.5024 83.3605 17.7527 83.8029 17.9354C84.2453 18.1166 84.7174 18.2086 85.218 18.2086C85.7186 18.2086 86.188 18.1126 86.6263 17.9218C87.0647 17.7311 87.4421 17.47 87.7614 17.1412C88.0807 16.8125 88.3337 16.4255 88.5204 15.9845C88.7071 15.5421 88.8004 15.0659 88.8004 14.5545V9.12945C88.8004 8.91299 88.8451 8.7087 88.933 8.51795C89.0209 8.32584 89.14 8.15673 89.2875 8.00926C89.4349 7.8618 89.6094 7.74681 89.811 7.66293C90.0126 7.57905 90.2209 7.53711 90.4374 7.53711C90.6539 7.53711 90.869 7.57905 91.057 7.66293C91.2437 7.74681 91.4088 7.8618 91.5508 8.00926C91.6929 8.15673 91.8038 8.32584 91.8823 8.51795C91.9607 8.71006 92 8.91299 92 9.12945V14.6127C92 15.419 91.8674 16.182 91.6022 16.9045C91.3371 17.6269 90.9731 18.2776 90.5118 18.858C90.0491 19.4384 89.4999 19.9336 88.8613 20.3462C88.2227 20.7588 87.5301 21.0537 86.7833 21.231V24.6213C86.7833 24.8472 86.7413 25.0583 86.6574 25.2558C86.5736 25.452 86.4586 25.6211 86.3111 25.7645C86.1636 25.9065 85.9945 26.0202 85.8024 26.1041C85.6103 26.1879 85.4074 26.2299 85.1909 26.2299C84.7282 26.2299 84.3454 26.077 84.041 25.7726C83.7366 25.4682 83.5837 25.084 83.5837 24.6226V21.2174C82.8369 21.0307 82.1483 20.7304 81.5206 20.3178C80.8915 19.9051 80.3463 19.4086 79.8836 18.8296C79.4209 18.2492 79.0597 17.6012 78.7999 16.8842C78.5388 16.1671 78.4089 15.4095 78.4089 14.614V9.1308C78.4089 8.91434 78.4509 8.71006 78.5348 8.5193C78.6186 8.32719 78.7309 8.15808 78.8743 8.01062C79.0177 7.86315 79.1855 7.74816 79.383 7.66428C79.5792 7.5804 79.7862 7.53846 80.0026 7.53846C80.2191 7.53846 80.4247 7.5804 80.6222 7.66428C80.8184 7.74816 80.9902 7.86315 81.1377 8.01062C81.2852 8.15808 81.4002 8.32719 81.484 8.5193C81.5679 8.71141 81.6098 8.91434 81.6098 9.1308V14.6438L81.6058 14.6397Z" fill="#F8931B"/>
<path d="M32.8561 7.13398C34.5955 7.13398 36.0056 5.72389 36.0056 3.98447C36.0056 2.24504 34.5955 0.834961 32.8561 0.834961C31.1166 0.834961 29.7065 2.24504 29.7065 3.98447C29.7065 5.72389 31.1166 7.13398 32.8561 7.13398Z" fill="#FFC65F"/>
<path d="M38.2338 16.4433C39.3681 16.4433 40.2875 15.5238 40.2875 14.3896C40.2875 13.2554 39.3681 12.3359 38.2338 12.3359C37.0996 12.3359 36.1802 13.2554 36.1802 14.3896C36.1802 15.5238 37.0996 16.4433 38.2338 16.4433Z" fill="#FFC65F"/>
<path d="M27.3317 30.9434C27.159 30.9273 27.0144 30.861 26.8979 30.7445C26.7854 30.624 26.7291 30.4733 26.7291 30.2926V23.887C26.7291 23.7946 26.7452 23.7082 26.7773 23.6278C26.8135 23.5475 26.8597 23.4792 26.9159 23.423C26.9762 23.3627 27.0465 23.3165 27.1269 23.2844C27.2072 23.2482 27.2936 23.2301 27.386 23.2301H31.6041C31.6965 23.2301 31.7809 23.2482 31.8572 23.2844C31.9376 23.3165 32.0059 23.3627 32.0621 23.423C32.1184 23.4792 32.1626 23.5475 32.1947 23.6278C32.2308 23.7082 32.2489 23.7946 32.2489 23.887C32.2489 23.9753 32.2308 24.0597 32.1947 24.14C32.1626 24.2204 32.1184 24.2907 32.0621 24.351C32.0059 24.4072 31.9376 24.4534 31.8572 24.4896C31.7809 24.5217 31.6965 24.5378 31.6041 24.5378H28.0368V26.3335H30.8268C30.9192 26.3335 31.0036 26.3516 31.0799 26.3877C31.1602 26.4199 31.2285 26.4661 31.2848 26.5263C31.345 26.5866 31.3912 26.6569 31.4234 26.7372C31.4595 26.8176 31.4776 26.904 31.4776 26.9964C31.4776 27.0847 31.4595 27.1691 31.4234 27.2494C31.3912 27.3258 31.345 27.3941 31.2848 27.4543C31.2285 27.5106 31.1602 27.5548 31.0799 27.5869C31.0036 27.619 30.9192 27.6351 30.8268 27.6351H28.0368V29.6357H31.6041C31.6965 29.6357 31.7809 29.6538 31.8572 29.69C31.9376 29.7221 32.0059 29.7683 32.0621 29.8286C32.1184 29.8888 32.1626 29.9591 32.1947 30.0395C32.2308 30.1198 32.2489 30.2062 32.2489 30.2986C32.2489 30.4874 32.1867 30.6421 32.0621 30.7626C31.9416 30.8831 31.7889 30.9434 31.6041 30.9434H27.3317ZM35.6696 27.2434L37.3991 25.5441C37.4673 25.4758 37.5417 25.4256 37.622 25.3934C37.7064 25.3613 37.7907 25.3452 37.8751 25.3452C37.9595 25.3452 38.0398 25.3613 38.1161 25.3934C38.1965 25.4216 38.2668 25.4658 38.327 25.526C38.3913 25.5903 38.4375 25.6626 38.4656 25.743C38.4938 25.8233 38.5058 25.9057 38.5018 25.99C38.4978 26.0704 38.4777 26.1507 38.4415 26.2311C38.4094 26.3114 38.3632 26.3837 38.3029 26.448L36.5855 28.1473L38.2909 29.8225C38.3512 29.8868 38.3974 29.9591 38.4295 30.0395C38.4616 30.1198 38.4777 30.2022 38.4777 30.2865C38.4817 30.3709 38.4677 30.4553 38.4355 30.5396C38.4034 30.62 38.3552 30.6903 38.2909 30.7505C38.1543 30.8791 37.9996 30.9434 37.8269 30.9434C37.6501 30.9434 37.4975 30.8791 37.3689 30.7505L35.6575 29.0633L33.9401 30.7566C33.8799 30.8208 33.8096 30.869 33.7292 30.9012C33.6529 30.9333 33.5746 30.9494 33.4942 30.9494C33.3255 30.9494 33.1728 30.8851 33.0363 30.7566C32.972 30.6963 32.9238 30.628 32.8916 30.5517C32.8595 30.4713 32.8434 30.391 32.8434 30.3106C32.8474 30.2263 32.8655 30.1439 32.8977 30.0636C32.9298 29.9832 32.976 29.9109 33.0363 29.8466L34.7416 28.1594L33.0001 26.442C32.9398 26.3817 32.8936 26.3114 32.8615 26.2311C32.8294 26.1507 32.8133 26.0704 32.8133 25.99C32.8173 25.9057 32.8354 25.8233 32.8675 25.743C32.8997 25.6626 32.9479 25.5903 33.0121 25.526C33.1487 25.3975 33.3034 25.3332 33.4761 25.3332C33.5565 25.3332 33.6368 25.3493 33.7172 25.3814C33.7975 25.4135 33.8698 25.4617 33.9341 25.526L35.6696 27.2434ZM39.2468 28.1413C39.2468 27.7436 39.3231 27.372 39.4757 27.0265C39.6284 26.677 39.8353 26.3717 40.0964 26.1105C40.3575 25.8494 40.6609 25.6445 41.0063 25.4959C41.3558 25.3432 41.7275 25.2669 42.1211 25.2669C42.5189 25.2669 42.8925 25.3432 43.242 25.4959C43.5915 25.6445 43.8948 25.8494 44.1519 26.1105C44.413 26.3717 44.6179 26.677 44.7665 27.0265C44.9152 27.372 44.9895 27.7436 44.9895 28.1413C44.9895 28.535 44.9152 28.9066 44.7665 29.2561C44.6179 29.6056 44.413 29.9109 44.1519 30.172C43.8948 30.4332 43.5915 30.6401 43.242 30.7927C42.8925 30.9414 42.5189 31.0157 42.1211 31.0157C41.8319 31.0157 41.5547 30.9755 41.2896 30.8952C41.0284 30.8108 40.7834 30.6943 40.5544 30.5456V32.2992C40.5544 32.3956 40.5383 32.484 40.5062 32.5643C40.4781 32.6487 40.4359 32.721 40.3796 32.7813C40.3234 32.8415 40.2551 32.8897 40.1748 32.9259C40.0984 32.9621 40.0121 32.9801 39.9156 32.9801C39.8232 32.9801 39.7369 32.9621 39.6565 32.9259C39.5762 32.8897 39.5059 32.8415 39.4456 32.7813C39.3854 32.721 39.3372 32.6487 39.301 32.5643C39.2648 32.484 39.2468 32.3956 39.2468 32.2992V28.1413ZM40.5544 28.1413C40.5544 28.3542 40.5946 28.5571 40.6749 28.7499C40.7593 28.9387 40.8718 29.1054 41.0124 29.2501C41.157 29.3907 41.3237 29.5032 41.5125 29.5875C41.7013 29.6679 41.9042 29.708 42.1211 29.708C42.3381 29.708 42.541 29.6679 42.7298 29.5875C42.9226 29.5032 43.0893 29.3907 43.2299 29.2501C43.3705 29.1054 43.481 28.9387 43.5614 28.7499C43.6417 28.5571 43.6819 28.3542 43.6819 28.1413C43.6819 27.9244 43.6417 27.7215 43.5614 27.5327C43.481 27.3398 43.3705 27.1731 43.2299 27.0325C43.0893 26.8919 42.9226 26.7814 42.7298 26.7011C42.541 26.6167 42.3381 26.5745 42.1211 26.5745C41.9082 26.5745 41.7054 26.6167 41.5125 26.7011C41.3237 26.7814 41.157 26.8919 41.0124 27.0325C40.8718 27.1731 40.7593 27.3398 40.6749 27.5327C40.5946 27.7215 40.5544 27.9244 40.5544 28.1413ZM47.8701 29.6357C47.9625 29.6357 48.0489 29.6538 48.1292 29.69C48.2096 29.7261 48.2779 29.7763 48.3341 29.8406C48.3903 29.9009 48.4345 29.9712 48.4667 30.0515C48.4988 30.1319 48.5149 30.2162 48.5149 30.3046C48.5149 30.4894 48.4546 30.6421 48.3341 30.7626C48.2136 30.8831 48.0589 30.9434 47.8701 30.9434C47.5969 30.9434 47.3398 30.8972 47.0988 30.8048C46.8618 30.7124 46.6529 30.5838 46.4721 30.4191C46.2913 30.2544 46.1487 30.0555 46.0442 29.8225C45.9398 29.5895 45.8835 29.3324 45.8755 29.0512V23.8327C45.8755 23.7403 45.8916 23.654 45.9237 23.5736C45.9599 23.4933 46.0061 23.425 46.0623 23.3687C46.1186 23.3085 46.1848 23.2623 46.2612 23.2301C46.3375 23.194 46.4199 23.1759 46.5082 23.1759C46.6006 23.1759 46.687 23.194 46.7674 23.2301C46.8477 23.2623 46.918 23.3085 46.9783 23.3687C47.0425 23.425 47.0928 23.4933 47.1289 23.5736C47.1651 23.654 47.1831 23.7403 47.1831 23.8327V29.009C47.1831 29.2179 47.2474 29.3746 47.376 29.4791C47.5045 29.5835 47.6692 29.6357 47.8701 29.6357ZM50.2996 28.1413C50.2996 28.3542 50.3398 28.5571 50.4201 28.7499C50.5045 28.9387 50.617 29.1054 50.7576 29.2501C50.9022 29.3907 51.0689 29.5032 51.2577 29.5875C51.4465 29.6679 51.6494 29.708 51.8664 29.708C52.0833 29.708 52.2862 29.6679 52.475 29.5875C52.6678 29.5032 52.8345 29.3907 52.9751 29.2501C53.1157 29.1054 53.2262 28.9387 53.3066 28.7499C53.3869 28.5571 53.4271 28.3542 53.4271 28.1413C53.4271 27.9244 53.3869 27.7215 53.3066 27.5327C53.2262 27.3398 53.1157 27.1731 52.9751 27.0325C52.8345 26.8919 52.6678 26.7814 52.475 26.7011C52.2862 26.6167 52.0833 26.5745 51.8664 26.5745C51.6534 26.5745 51.4506 26.6167 51.2577 26.7011C51.0689 26.7814 50.9022 26.8919 50.7576 27.0325C50.617 27.1731 50.5045 27.3398 50.4201 27.5327C50.3398 27.7215 50.2996 27.9244 50.2996 28.1413ZM48.992 28.1413C48.992 27.7436 49.0683 27.372 49.221 27.0265C49.3736 26.677 49.5805 26.3717 49.8416 26.1105C50.1028 25.8494 50.4061 25.6445 50.7515 25.4959C51.1011 25.3432 51.4727 25.2669 51.8664 25.2669C52.2641 25.2669 52.6377 25.3432 52.9872 25.4959C53.3367 25.6445 53.64 25.8494 53.8971 26.1105C54.1582 26.3717 54.3631 26.677 54.5118 27.0265C54.6604 27.372 54.7347 27.7436 54.7347 28.1413C54.7347 28.535 54.6604 28.9066 54.5118 29.2561C54.3631 29.6056 54.1582 29.9109 53.8971 30.172C53.64 30.4332 53.3367 30.6401 52.9872 30.7927C52.6377 30.9414 52.2641 31.0157 51.8664 31.0157C51.4727 31.0157 51.1011 30.9414 50.7515 30.7927C50.4061 30.6401 50.1028 30.4332 49.8416 30.172C49.5805 29.9109 49.3736 29.6056 49.221 29.2561C49.0683 28.9066 48.992 28.535 48.992 28.1413ZM56.8318 30.2986C56.8318 30.387 56.8158 30.4713 56.7836 30.5517C56.7515 30.632 56.7053 30.7003 56.645 30.7566C56.5888 30.8128 56.5225 30.859 56.4462 30.8952C56.3699 30.9273 56.2875 30.9434 56.1991 30.9434C56.1067 30.9434 56.0183 30.9273 55.934 30.8952C55.8536 30.859 55.7833 30.8128 55.7231 30.7566C55.6628 30.7003 55.6146 30.632 55.5784 30.5517C55.5423 30.4713 55.5242 30.387 55.5242 30.2986V28.3522C55.5242 27.9384 55.6025 27.5487 55.7592 27.1832C55.9199 26.8176 56.1368 26.4982 56.41 26.225C56.6832 25.9519 57.0026 25.7369 57.3682 25.5803C57.7337 25.4196 58.1214 25.3392 58.5312 25.3392H58.5432C58.7601 25.3392 58.9269 25.4015 59.0434 25.526C59.1639 25.6465 59.2241 25.8012 59.2241 25.99C59.2241 26.0824 59.2061 26.1688 59.1699 26.2491C59.1338 26.3295 59.0835 26.3998 59.0193 26.46C58.959 26.5163 58.8867 26.5625 58.8023 26.5986C58.722 26.6308 58.6356 26.6468 58.5432 26.6468H58.5312C58.3022 26.6468 58.0832 26.691 57.8743 26.7794C57.6695 26.8678 57.4907 26.9883 57.338 27.141C57.1854 27.2936 57.0628 27.4724 56.9704 27.6773C56.878 27.8822 56.8318 28.1011 56.8318 28.3341V30.2986ZM60.8898 28.7258C60.942 28.8744 61.0143 29.011 61.1067 29.1356C61.2031 29.2561 61.3136 29.3605 61.4381 29.4489C61.5627 29.5333 61.6992 29.5996 61.8479 29.6478C61.9965 29.692 62.1532 29.7141 62.3179 29.7141C62.7317 29.7141 63.0571 29.6056 63.2941 29.3887C63.3745 29.3324 63.4528 29.2922 63.5291 29.2681C63.6055 29.24 63.6778 29.226 63.7461 29.226C63.8586 29.226 63.959 29.2561 64.0474 29.3163C64.1357 29.3726 64.2081 29.4469 64.2643 29.5393C64.3045 29.6036 64.3326 29.6739 64.3487 29.7502C64.3688 29.8225 64.3728 29.8969 64.3607 29.9732C64.3527 30.0495 64.3286 30.1258 64.2884 30.2022C64.2522 30.2745 64.196 30.3408 64.1197 30.401C64.0313 30.4814 63.9309 30.5597 63.8184 30.636C63.7059 30.7083 63.5753 30.7726 63.4267 30.8289C63.2821 30.8851 63.1174 30.9293 62.9326 30.9614C62.7518 30.9976 62.5469 31.0157 62.3179 31.0157C61.9202 31.0157 61.5466 30.9414 61.1971 30.7927C60.8476 30.6401 60.5423 30.4332 60.2811 30.172C60.02 29.9109 59.8131 29.6076 59.6605 29.2621C59.5078 28.9126 59.4315 28.539 59.4315 28.1413C59.4315 27.7436 59.5078 27.37 59.6605 27.0205C59.8131 26.671 60.02 26.3676 60.2811 26.1105C60.5423 25.8494 60.8476 25.6445 61.1971 25.4959C61.5466 25.3432 61.9202 25.2669 62.3179 25.2669C62.7116 25.2669 63.0812 25.3412 63.4267 25.4899C63.7762 25.6385 64.0815 25.8414 64.3426 26.0985C64.6078 26.3516 64.8167 26.6509 64.9693 26.9964C65.126 27.3418 65.2064 27.7114 65.2104 28.1051C65.2104 28.2899 65.1501 28.4406 65.0296 28.5571C64.9131 28.6696 64.7584 28.7258 64.5656 28.7258H60.8898ZM63.8666 27.6411C63.8224 27.4764 63.7521 27.3278 63.6557 27.1952C63.5633 27.0626 63.4508 26.9502 63.3182 26.8578C63.1857 26.7654 63.037 26.6951 62.8723 26.6468C62.7076 26.5986 62.5328 26.5745 62.348 26.5745C62.1632 26.5745 61.9885 26.6006 61.8238 26.6529C61.6631 26.7011 61.5165 26.7734 61.3839 26.8698C61.2553 26.9622 61.1449 27.0747 61.0525 27.2073C60.9601 27.3358 60.8918 27.4804 60.8476 27.6411H63.8666Z" fill="#F5A50B"/>
</svg>
