<svg width="195" height="63" viewBox="0 0 195 63" fill="none" xmlns="http://www.w3.org/2000/svg">
<path d="M125.272 55.3361C125.272 55.8183 125.372 56.2976 125.575 56.7713C125.774 57.2449 126.048 57.6672 126.391 58.0438C126.736 58.4204 127.138 58.7257 127.601 58.9626C128.063 59.1994 128.562 59.3221 129.096 59.3335C129.652 59.3335 130.143 59.265 130.568 59.1252C130.993 58.9854 131.424 58.7372 131.855 58.3776C132.06 58.2036 132.288 58.041 132.542 57.8926C132.793 57.7442 133.07 57.67 133.367 57.67C133.541 57.67 133.726 57.71 133.923 57.787C134.117 57.8641 134.32 57.9896 134.525 58.1637C134.699 58.3177 134.831 58.5003 134.919 58.7115C135.008 58.9226 135.048 59.1423 135.042 59.3763C135.036 59.6074 134.985 59.8357 134.888 60.0639C134.791 60.2922 134.642 60.5062 134.448 60.7116C133.809 61.3593 133.053 61.8529 132.174 62.1925C131.295 62.532 130.371 62.7003 129.407 62.7003C128.379 62.7003 127.412 62.512 126.508 62.1382C125.603 61.7616 124.81 61.2452 124.131 60.5889C123.452 59.9327 122.918 59.1566 122.527 58.2664C122.137 57.3762 121.943 56.4175 121.943 55.3903C121.954 55.3789 121.957 55.3703 121.957 55.3589H121.943C121.943 54.3317 122.137 53.3673 122.527 52.4686C122.918 51.5698 123.452 50.788 124.131 50.1232C124.81 49.4584 125.6 48.9391 126.508 48.5567C127.412 48.1773 128.379 47.9861 129.407 47.9861C130.374 47.9861 131.295 48.1487 132.174 48.4711C133.053 48.7964 133.812 49.2815 134.448 49.9292C134.642 50.1232 134.794 50.3372 134.896 50.5683C134.999 50.7994 135.053 51.0305 135.059 51.2616C135.065 51.4927 135.022 51.7153 134.928 51.9264C134.836 52.1376 134.697 52.3259 134.511 52.4885C134.306 52.6626 134.112 52.7881 133.926 52.8594C133.741 52.9308 133.561 52.9679 133.387 52.9679C133.087 52.9679 132.813 52.8937 132.562 52.7453C132.311 52.5969 132.077 52.4343 131.86 52.2603C131.43 51.9321 131.002 51.6953 130.579 51.5498C130.157 51.4043 129.715 51.333 129.253 51.333C128.728 51.333 128.225 51.4414 127.74 51.6582C127.258 51.8751 126.836 52.1661 126.476 52.537C126.117 52.908 125.829 53.3331 125.612 53.8181C125.395 54.3003 125.287 54.8054 125.287 55.3304L125.272 55.3446V55.3361Z" fill="#845DC2"/>
<path d="M136.563 55.3361C136.563 54.3174 136.757 53.3645 137.147 52.4742C137.538 51.584 138.066 50.8051 138.737 50.1374C139.407 49.4698 140.183 48.9419 141.074 48.5567C141.964 48.1715 142.911 47.9775 143.918 47.9775C144.925 47.9775 145.893 48.1715 146.786 48.5567C147.682 48.9419 148.461 49.4698 149.123 50.1374C149.785 50.8051 150.307 51.584 150.689 52.4742C151.069 53.3645 151.26 54.3174 151.26 55.3361C151.26 56.3547 151.069 57.2962 150.689 58.1893C150.31 59.0824 149.787 59.867 149.123 60.5347C148.458 61.2024 147.682 61.7302 146.786 62.1154C145.89 62.5006 144.934 62.6946 143.918 62.6946C142.902 62.6946 141.961 62.5006 141.074 62.1154C140.183 61.7302 139.404 61.2024 138.737 60.5347C138.069 59.867 137.538 59.0852 137.147 58.1893C136.757 57.2934 136.563 56.3433 136.563 55.3361ZM139.909 55.3361C139.909 55.881 140.015 56.3975 140.226 56.8854C140.437 57.3733 140.725 57.8013 141.091 58.1665C141.456 58.5317 141.878 58.8199 142.363 59.031C142.845 59.2422 143.365 59.3477 143.921 59.3477C144.477 59.3477 144.997 59.2422 145.488 59.031C145.978 58.8199 146.401 58.5317 146.76 58.1665C147.12 57.8013 147.402 57.3733 147.608 56.8854C147.813 56.3975 147.916 55.881 147.916 55.3361C147.916 54.7911 147.813 54.2604 147.608 53.7696C147.402 53.2817 147.12 52.8566 146.76 52.4971C146.401 52.1376 145.975 51.8522 145.488 51.6411C145 51.43 144.477 51.3244 143.921 51.3244C143.365 51.3244 142.86 51.43 142.372 51.6411C141.884 51.8522 141.456 52.1376 141.091 52.4971C140.725 52.8566 140.437 53.2817 140.226 53.7696C140.015 54.2575 139.909 54.7797 139.909 55.3361Z" fill="#845DC2"/>
<path d="M156.598 60.8742C156.598 61.3365 156.441 61.7245 156.127 62.0384C155.814 62.3522 155.425 62.5092 154.963 62.5092C154.738 62.5092 154.521 62.4664 154.316 62.3779C154.11 62.2923 153.928 62.1753 153.768 62.0298C153.608 61.8871 153.482 61.7131 153.391 61.5134C153.297 61.3136 153.251 61.0997 153.251 60.8742V53.6099C153.251 52.8395 153.403 52.1119 153.705 51.4271C154.007 50.7423 154.421 50.146 154.946 49.6381C155.471 49.1302 156.079 48.7251 156.772 48.4283C157.466 48.1316 158.199 47.9804 158.969 47.9804C159.74 47.9804 160.524 48.1345 161.229 48.4426C161.934 48.7508 162.553 49.173 163.089 49.7066C163.623 49.173 164.248 48.7508 164.964 48.4426C165.68 48.1345 166.436 47.9804 167.238 47.9804C168.04 47.9804 168.75 48.1259 169.429 48.4112C170.108 48.6994 170.705 49.096 171.218 49.5982C171.732 50.1032 172.143 50.6881 172.451 51.3558C172.759 52.0234 172.93 52.7396 172.959 53.4986C172.959 53.5185 172.959 53.5442 172.967 53.5671C172.973 53.5927 172.976 53.6156 172.976 53.6355V60.8714C172.976 61.0968 172.933 61.3108 172.845 61.5105C172.756 61.7102 172.639 61.8843 172.491 62.027C172.342 62.1725 172.168 62.2866 171.974 62.3751C171.78 62.4635 171.569 62.5063 171.341 62.5063C171.113 62.5063 170.896 62.4635 170.685 62.3751C170.474 62.2895 170.291 62.1725 170.137 62.027C169.983 61.8843 169.86 61.7102 169.766 61.5105C169.672 61.3108 169.626 61.0968 169.626 60.8714V53.5899C169.615 53.2618 169.543 52.9565 169.409 52.6797C169.275 52.4029 169.098 52.1632 168.879 51.9635C168.656 51.7638 168.405 51.6069 168.122 51.4927C167.84 51.3815 167.532 51.3244 167.204 51.3244C166.876 51.3244 166.562 51.3872 166.262 51.5099C165.963 51.6325 165.706 51.8009 165.483 52.012C165.261 52.2232 165.087 52.4685 164.958 52.7539C164.83 53.0392 164.764 53.3416 164.764 53.6726V60.8771C164.764 61.3393 164.607 61.7274 164.293 62.0412C163.98 62.3551 163.591 62.512 163.129 62.512C162.904 62.512 162.687 62.4692 162.482 62.3808C162.276 62.2952 162.094 62.1782 161.934 62.0327C161.774 61.89 161.648 61.716 161.557 61.5162C161.463 61.3165 161.417 61.1025 161.417 60.8771V53.6127C161.406 53.2846 161.337 52.9764 161.209 52.694C161.081 52.4115 160.909 52.169 160.693 51.9692C160.476 51.7695 160.225 51.6126 159.936 51.4984C159.648 51.3872 159.34 51.3301 159.012 51.3301C158.684 51.3301 158.373 51.39 158.079 51.507C157.785 51.624 157.528 51.7895 157.309 52.0006C157.086 52.2118 156.912 52.4543 156.784 52.7339C156.655 53.0107 156.59 53.3103 156.59 53.6298V60.8799L156.598 60.8742Z" fill="#845DC2"/>
<path d="M115.263 62.6946C117.124 62.6946 118.633 61.1859 118.633 59.3249C118.633 57.4639 117.124 55.9552 115.263 55.9552C113.402 55.9552 111.893 57.4639 111.893 59.3249C111.893 61.1859 113.402 62.6946 115.263 62.6946Z" fill="#845DC2"/>
<path d="M0 6.47975C0 5.98328 0.088451 5.52106 0.265353 5.09592C0.442255 4.67079 0.679075 4.29701 0.98152 3.97744C1.28111 3.65503 1.64062 3.40679 2.05434 3.22989C2.46807 3.05299 2.91318 2.96454 3.39252 2.96454C3.87187 2.96454 4.3398 3.05299 4.74497 3.22989C5.15013 3.40679 5.50108 3.65503 5.80067 3.97744C6.10026 4.29986 6.33423 4.67079 6.49972 5.09592C6.66521 5.52106 6.74795 5.98328 6.74795 6.47975V16.1808C7.9292 15.4133 9.1989 14.817 10.557 14.3947C11.9152 13.9696 13.339 13.7584 14.8312 13.7584C16.8827 13.7584 18.8058 14.1465 20.5977 14.9254C22.3895 15.7015 23.9559 16.76 25.2913 18.0954C26.6266 19.4307 27.6852 21.0028 28.4612 22.8061C29.2373 24.6093 29.6282 26.5381 29.6282 28.5896C29.6282 30.6411 29.2402 32.5385 28.4612 34.3418C27.6852 36.1451 26.6266 37.7201 25.2913 39.0668C23.9531 40.4135 22.3895 41.4749 20.5977 42.2539C18.8058 43.03 16.8827 43.4209 14.8312 43.4209C12.7797 43.4209 10.8823 43.0328 9.07906 42.2539C7.2758 41.4749 5.70081 40.4135 4.35407 39.0668C3.00733 37.7201 1.94592 36.1451 1.16698 34.3418C0.390896 32.5385 0 30.6212 0 28.5896L0 6.47975ZM6.74795 28.5839C6.74795 29.6824 6.95909 30.7239 7.38423 31.7082C7.80936 32.6926 8.38857 33.5543 9.12471 34.2876C9.86086 35.0237 10.714 35.6029 11.6898 36.0281C12.6628 36.4532 13.7099 36.6644 14.8284 36.6644C15.9469 36.6644 16.994 36.4532 17.967 36.0281C18.9399 35.6029 19.7959 35.0237 20.532 34.2876C21.2682 33.5515 21.8417 32.6926 22.2583 31.7082C22.672 30.7239 22.8803 29.6824 22.8803 28.5839C22.8803 27.4854 22.672 26.4126 22.2583 25.4282C21.8445 24.4439 21.2682 23.5879 20.532 22.8632C19.7959 22.1384 18.9399 21.5621 17.967 21.1369C16.994 20.7118 15.9469 20.5007 14.8284 20.5007C13.7099 20.5007 12.6628 20.7146 11.6898 21.1369C10.714 21.5621 9.86086 22.1356 9.12471 22.8632C8.38857 23.5879 7.80936 24.4439 7.38423 25.4282C6.95909 26.4126 6.74795 27.4655 6.74795 28.5839Z" fill="#845DC2"/>
<path d="M32.3645 28.5868C32.3645 26.5353 32.7583 24.6122 33.5458 22.8204C34.3332 21.0285 35.4004 19.4592 36.7471 18.1096C38.0938 16.7629 39.6631 15.7015 41.4578 14.9225C43.2497 14.1465 45.1614 13.7556 47.1929 13.7556C49.2244 13.7556 51.1732 14.1436 52.9764 14.9225C54.7797 15.6986 56.349 16.7629 57.6872 18.1096C59.0225 19.4564 60.0753 21.0285 60.8429 22.8204C61.6104 24.6122 61.9927 26.5353 61.9927 28.5868V39.5918C61.9927 40.0683 61.9043 40.5134 61.7274 40.93C61.5505 41.3437 61.3079 41.7061 60.9969 42.0171C60.6859 42.3281 60.3179 42.5763 59.8927 42.7646C59.4676 42.9501 59.0168 43.0442 58.5403 43.0442C57.7328 43.0442 57.048 42.8074 56.4888 42.3281C55.9295 41.8516 55.5558 41.2524 55.3703 40.5248C54.1891 41.415 52.908 42.1198 51.5298 42.6391C50.1517 43.1555 48.7051 43.4152 47.1929 43.4152C45.1614 43.4152 43.2497 43.0271 41.4578 42.2482C39.666 41.4692 38.0938 40.4078 36.7471 39.0611C35.4004 37.7143 34.3332 36.1394 33.5458 34.3361C32.7583 32.5328 32.3645 30.6154 32.3645 28.5839V28.5868ZM39.1096 28.5868C39.1096 29.6853 39.3207 30.7267 39.7459 31.7111C40.171 32.6955 40.7502 33.5572 41.4864 34.2904C42.2225 35.0266 43.0756 35.6058 44.0514 36.0309C45.0244 36.4561 46.0715 36.6672 47.1929 36.6672C48.3142 36.6672 49.3642 36.4561 50.3486 36.0309C51.333 35.6058 52.1889 35.0266 52.9137 34.2904C53.6384 33.5543 54.209 32.6955 54.6228 31.7111C55.0365 30.7267 55.2448 29.6853 55.2448 28.5868C55.2448 27.4883 55.0365 26.4155 54.6228 25.4311C54.209 24.4467 53.6384 23.5907 52.9137 22.866C52.1889 22.1413 51.333 21.5649 50.3486 21.1398C49.3642 20.7146 48.3114 20.5035 47.1929 20.5035C46.0744 20.5035 45.0529 20.7175 44.0686 21.1398C43.0842 21.5649 42.2225 22.1384 41.4892 22.866C40.7531 23.5907 40.1739 24.4467 39.7487 25.4311C39.3236 26.4155 39.1125 27.4683 39.1125 28.5868H39.1096Z" fill="#D55FAD"/>
<path d="M73.149 32.4159C73.5598 33.3004 74.1476 34.0907 74.9151 34.7841C75.6827 35.4803 76.5415 36.0252 77.4888 36.419C78.436 36.8127 79.4347 37.0296 80.4818 37.0695C81.529 37.1095 82.5447 36.9126 83.532 36.4789C84.5477 36.0081 85.3866 35.466 86.0485 34.8497C86.7105 34.2334 87.284 33.4145 87.7691 32.3902C87.9973 31.8966 88.2769 31.4058 88.6108 30.9207C88.9446 30.4357 89.384 30.0648 89.929 29.8137C90.2485 29.6653 90.6195 29.5797 91.0417 29.554C91.464 29.5284 91.9377 29.5883 92.4627 29.7338C92.9135 29.8679 93.3072 30.0905 93.6468 30.4015C93.9863 30.7125 94.2488 31.0834 94.4343 31.5085C94.6197 31.9365 94.7224 32.3987 94.7339 32.8952C94.7481 33.3917 94.6625 33.911 94.4799 34.4531C93.8636 36.1793 92.8964 37.7229 91.5753 39.0896C90.2542 40.4563 88.7106 41.5491 86.9445 42.368C85.0642 43.2411 83.1382 43.7176 81.1638 43.7975C79.1922 43.8802 77.3062 43.6063 75.5058 42.9786C73.7054 42.3509 72.0733 41.3893 70.6039 40.094C69.1344 38.7986 67.9646 37.2122 67.0915 35.3319C67.1001 35.3062 67.1029 35.2805 67.0915 35.2634L67.063 35.2777C66.1899 33.3974 65.7305 31.4686 65.682 29.4941C65.6335 27.5168 65.9473 25.6337 66.6264 23.8475C67.3055 22.0585 68.3098 20.435 69.6423 18.9713C70.9748 17.5076 72.5812 16.3406 74.4615 15.4675C76.2276 14.6486 78.0537 14.1607 79.9369 14.0066C81.82 13.8526 83.6176 14.0979 85.3324 14.7428C85.8545 14.9339 86.3082 15.1993 86.6934 15.5331C87.0786 15.8698 87.3725 16.2464 87.5779 16.6659C87.7833 17.0853 87.8917 17.5276 87.9003 17.9898C87.9089 18.4549 87.8147 18.9142 87.615 19.3736C87.3867 19.8672 87.1356 20.2581 86.8589 20.5463C86.5821 20.8345 86.2825 21.0542 85.9629 21.2026C85.418 21.4565 84.8502 21.5535 84.2653 21.4936C83.6775 21.4365 83.1125 21.3367 82.5704 21.1997C81.5033 20.9657 80.5218 20.8944 79.6287 20.9886C78.7356 21.0827 77.8654 21.3252 77.0208 21.719C76.0621 22.1641 75.2318 22.789 74.5328 23.5936C73.8309 24.3982 73.3087 25.2913 72.9664 26.2728C72.6211 27.2543 72.4585 28.2786 72.4727 29.3457C72.487 30.4129 72.7181 31.4258 73.1632 32.3845L73.149 32.4244V32.4159Z" fill="#FF6D91"/>
<path d="M125.817 39.7459C125.817 40.2024 125.729 40.6332 125.552 41.0355C125.375 41.4379 125.132 41.7917 124.821 42.0912C124.51 42.3937 124.154 42.6248 123.749 42.7903C123.343 42.9558 122.904 43.0385 122.428 43.0385C121.951 43.0385 121.54 42.9558 121.138 42.7903C120.733 42.6248 120.376 42.3908 120.065 42.0912C119.754 41.7917 119.511 41.4379 119.335 41.0355C119.158 40.6332 119.069 40.2024 119.069 39.7459V28.0703C119.069 27.999 119.081 27.9305 119.101 27.8678C119.081 26.832 118.892 25.8676 118.541 24.9774C118.188 24.0872 117.705 23.3083 117.095 22.6463C116.484 21.9844 115.754 21.4594 114.903 21.077C114.053 20.6947 113.109 20.5007 112.073 20.5007C111.037 20.5007 110.03 20.6833 109.12 21.0456C108.207 21.408 107.419 21.9159 106.757 22.5693C106.095 23.2227 105.57 23.9987 105.188 24.9004C104.806 25.802 104.612 26.7921 104.612 27.8678V39.6831C104.612 40.1396 104.523 40.5733 104.346 40.9899C104.17 41.4065 103.933 41.7631 103.63 42.0627C103.331 42.3652 102.977 42.602 102.575 42.7789C102.172 42.9558 101.73 43.0442 101.254 43.0442C100.777 43.0442 100.332 42.9558 99.9182 42.7789C99.5016 42.602 99.1449 42.3652 98.8454 42.0627C98.5458 41.7631 98.3061 41.4065 98.1292 40.9899C97.9523 40.5733 97.8638 40.1396 97.8638 39.6831V6.38845C97.8638 5.91195 97.9523 5.46684 98.1292 5.05312C98.3061 4.6394 98.5486 4.27704 98.8596 3.96603C99.1706 3.65503 99.533 3.4125 99.9467 3.2356C100.36 3.0587 100.797 2.97025 101.254 2.97025C101.71 2.97025 102.172 3.0587 102.575 3.2356C102.98 3.4125 103.331 3.65503 103.63 3.96603C103.93 4.27704 104.17 4.6394 104.346 5.05312C104.523 5.46684 104.612 5.91481 104.612 6.38845V16.5232C105.69 15.653 106.854 14.9739 108.11 14.486C109.362 13.9981 110.686 13.7556 112.073 13.7556C114.042 13.7556 115.865 14.135 117.546 14.8912C119.223 15.6473 120.676 16.6744 121.897 17.9698C123.121 19.2652 124.077 20.7831 124.773 22.5236C125.466 24.2641 125.814 26.1187 125.814 28.0875V39.7459H125.817Z" fill="#FC966C"/>
<path d="M129.952 28.5868C129.952 26.5353 130.345 24.6122 131.133 22.8204C131.92 21.0285 132.987 19.4592 134.334 18.1096C135.681 16.7629 137.25 15.7015 139.045 14.9225C140.837 14.1465 142.748 13.7556 144.78 13.7556C146.811 13.7556 148.76 14.1436 150.564 14.9225C152.367 15.6986 153.936 16.7629 155.274 18.1096C156.612 19.4564 157.662 21.0285 158.43 22.8204C159.197 24.6122 159.58 26.5353 159.58 28.5868V39.5918C159.58 40.0683 159.491 40.5134 159.314 40.93C159.138 41.3437 158.895 41.7061 158.584 42.0171C158.273 42.3281 157.905 42.5763 157.48 42.7646C157.055 42.9501 156.604 43.0442 156.127 43.0442C155.32 43.0442 154.635 42.8074 154.076 42.3281C153.517 41.8516 153.143 41.2524 152.957 40.5248C151.776 41.415 150.495 42.1198 149.117 42.6391C147.739 43.1555 146.292 43.4152 144.78 43.4152C142.748 43.4152 140.837 43.0271 139.045 42.2482C137.253 41.4692 135.681 40.4078 134.334 39.0611C132.987 37.7143 131.92 36.1394 131.133 34.3361C130.345 32.5328 129.952 30.6154 129.952 28.5839V28.5868ZM136.697 28.5868C136.697 29.6853 136.908 30.7267 137.333 31.7111C137.758 32.6955 138.337 33.5572 139.073 34.2904C139.81 35.0266 140.663 35.6058 141.639 36.0309C142.611 36.4561 143.659 36.6672 144.777 36.6672C145.896 36.6672 146.948 36.4561 147.933 36.0309C148.917 35.6058 149.773 35.0266 150.498 34.2904C151.223 33.5543 151.793 32.6955 152.207 31.7111C152.621 30.7267 152.829 29.6853 152.829 28.5868C152.829 27.4883 152.621 26.4155 152.207 25.4311C151.793 24.4467 151.223 23.5907 150.498 22.866C149.773 22.1413 148.917 21.5649 147.933 21.1398C146.948 20.7146 145.896 20.5035 144.777 20.5035C143.659 20.5035 142.637 20.7175 141.653 21.1398C140.668 21.5649 139.807 22.1384 139.073 22.866C138.337 23.5907 137.758 24.4467 137.333 25.4311C136.908 26.4155 136.697 27.4683 136.697 28.5868Z" fill="#FFC55D"/>
<path d="M172.108 29.1146C172.108 30.1732 172.305 31.1633 172.699 32.0849C173.093 33.0065 173.632 33.8054 174.317 34.4788C175.002 35.1521 175.809 35.68 176.742 36.0652C177.675 36.4475 178.671 36.6415 179.727 36.6415C180.782 36.6415 181.772 36.4389 182.697 36.0366C183.621 35.6343 184.417 35.0837 185.091 34.3903C185.764 33.697 186.298 32.8809 186.691 31.9508C187.085 31.0178 187.282 30.0134 187.282 28.9349V17.4933C187.282 17.0368 187.376 16.606 187.562 16.2037C187.747 15.7985 187.998 15.4418 188.309 15.1308C188.62 14.8198 188.988 14.5773 189.413 14.4004C189.839 14.2235 190.278 14.135 190.735 14.135C191.191 14.135 191.645 14.2235 192.041 14.4004C192.435 14.5773 192.783 14.8198 193.083 15.1308C193.382 15.4418 193.616 15.7985 193.782 16.2037C193.947 16.6088 194.03 17.0368 194.03 17.4933V29.0576C194.03 30.7581 193.75 32.3673 193.191 33.891C192.632 35.4146 191.864 36.787 190.891 38.0111C189.916 39.2351 188.757 40.2794 187.41 41.1497C186.064 42.0199 184.603 42.6419 183.028 43.0157V50.166C183.028 50.6425 182.939 51.0876 182.763 51.5041C182.586 51.9179 182.343 52.2745 182.032 52.577C181.721 52.8766 181.364 53.1162 180.959 53.2931C180.554 53.47 180.126 53.5585 179.67 53.5585C178.694 53.5585 177.886 53.2361 177.244 52.5941C176.602 51.9521 176.28 51.1418 176.28 50.1688V42.9872C174.705 42.5934 173.253 41.96 171.929 41.0898C170.602 40.2195 169.452 39.1724 168.476 37.9512C167.5 36.7271 166.739 35.3604 166.191 33.8482C165.64 32.336 165.366 30.7381 165.366 29.0604V17.4962C165.366 17.0397 165.455 16.6088 165.632 16.2065C165.808 15.8013 166.045 15.4447 166.348 15.1337C166.65 14.8227 167.004 14.5801 167.421 14.4032C167.834 14.2263 168.271 14.1379 168.727 14.1379C169.184 14.1379 169.618 14.2263 170.034 14.4032C170.448 14.5801 170.81 14.8227 171.121 15.1337C171.432 15.4447 171.675 15.8013 171.852 16.2065C172.029 16.6117 172.117 17.0397 172.117 17.4962V29.1232L172.108 29.1146Z" fill="#F8931B"/>
<path d="M69.2942 13.2848C72.9627 13.2848 75.9366 10.3109 75.9366 6.64238C75.9366 2.9739 72.9627 0 69.2942 0C65.6258 0 62.6519 2.9739 62.6519 6.64238C62.6519 10.3109 65.6258 13.2848 69.2942 13.2848Z" fill="#FFC65F"/>
<path d="M80.6359 32.918C83.0279 32.918 84.9671 30.9788 84.9671 28.5868C84.9671 26.1947 83.0279 24.2555 80.6359 24.2555C78.2438 24.2555 76.3046 26.1947 76.3046 28.5868C76.3046 30.9788 78.2438 32.918 80.6359 32.918Z" fill="#FFC65F"/>
</svg>
