<svg width="393" height="835" viewBox="0 0 393 835" fill="none" xmlns="http://www.w3.org/2000/svg">
<path d="M127 846C115.501 825.041 108.142 798.513 92.367 784.408C66.2062 761.017 26.4323 780.498 4.72366 749.254C-18.09 716.418 -0.529335 658.895 -12.8851 616.25C-19.3312 594.007 -33.4246 578.049 -48.1667 566.172C-51.3377 563.615 -54.6288 561.216 -58 559L-58 845.989H127V846Z" fill="#DD973D"/>
<path d="M12.536 138.837C13.6606 153.429 -7.08278 154.555 -7.63942 138.837C-8.1279 125.189 11.4227 124.245 12.536 138.837Z" fill="#DD973D"/>
<path d="M327.068 841C322.399 805.435 274.641 807.653 273.767 841H327.068Z" fill="#DD973D"/>
<path d="M23.2374 655.005C23.7372 661.544 14.4447 662.045 14.1948 655.005C13.9789 648.886 22.7375 648.465 23.2374 655.005Z" fill="#DD973D"/>
<path d="M397.345 584.229C397.345 584.229 371.478 590.37 369.899 593.134C368.32 595.898 366.866 629.949 378.998 650.467C391.131 670.984 397.367 676.762 401.832 676C406.296 675.238 432.867 661.442 432.867 661.442L397.333 584.229H397.345Z" fill="#343743"/>
<path d="M392.585 636.932C396.413 642.426 450.657 685.553 453.622 681.004C456.587 676.455 454.031 614.061 451.066 608.328C448.101 602.596 404.763 553.225 400.73 553.85C396.697 554.487 388.745 631.439 392.585 636.932Z" fill="#4A4E5B"/>
<path d="M400.73 553.85C400.73 553.85 385.78 618.553 392.687 635.545C397.992 648.59 452.089 681.755 452.089 681.755" stroke="#343743" stroke-miterlimit="10"/>
<path d="M430.152 625.024C430.152 625.024 446.806 673.1 442.546 678.013C438.286 682.915 417.997 686.929 417.997 686.929C417.997 686.929 409.511 703.694 403.831 708.516L400.594 705.195L412.669 687.873L398.219 701.635C398.219 701.635 385.303 690.216 389.052 686.85C392.801 683.483 417.497 684.484 417.497 684.484L440.774 675.92L427.176 625.15L430.152 625.024Z" fill="#EEC141"/>
<path d="M369.899 593.134C369.899 593.134 359.823 647.18 400.775 676.625L418.463 669.119" stroke="#343743" stroke-miterlimit="10"/>
<path d="M415.055 685.872C415.055 685.872 395.845 686.031 389.336 689.784" stroke="#343743" stroke-miterlimit="10"/>
<path d="M-46.8086 156.591C-46.8086 156.591 30.5417 35.249 29.5874 34.7259C28.6446 34.2027 8.0375 20.5092 7.49222 21.51C6.17446 23.9212 -68.7561 143.227 -67.6655 144.24C-66.575 145.252 -46.8086 156.591 -46.8086 156.591Z" fill="#DE5831"/>
<path d="M-46.8086 156.591C-46.8086 156.591 30.5417 35.2491 29.5874 34.7259C29.2126 34.5212 25.8386 32.3034 21.8399 29.7444L-52.9998 153.02C-49.5236 155.033 -46.8086 156.591 -46.8086 156.591Z" fill="#952315"/>
<path d="M4.56152 47.3389L-5.02632 40.458" stroke="#343743" stroke-miterlimit="10"/>
<path d="M15.4102 30.6769L5.82231 23.7847" stroke="#343743" stroke-miterlimit="10"/>
<path d="M10.1733 31.7915L3.74358 27.4014" stroke="#343743" stroke-miterlimit="10"/>
<path d="M8.13965 35.1922L1.70988 30.8135" stroke="#343743" stroke-miterlimit="10"/>
<path d="M6.09473 38.5928L-0.335003 34.2141" stroke="#343743" stroke-miterlimit="10"/>
<path d="M4.06152 42.0049L-2.37961 37.6147" stroke="#343743" stroke-miterlimit="10"/>
<g style="mix-blend-mode:multiply">
<path d="M379.358 52.4213L396.67 40.5246C396.67 40.5246 452.752 74.7025 438.604 111.723C424.456 148.744 370.639 135.47 342.953 93.0316L346.576 81.9444L359.422 70.1373C359.422 70.1373 406.265 121.714 412.352 108.484C418.439 95.2534 375.864 65.2805 376.171 62.0281C376.468 58.781 379.373 52.4259 379.373 52.4259L379.358 52.4213Z" fill="#599DD3"/>
<path d="M379.358 52.4213L396.67 40.5246C396.67 40.5246 452.752 74.7025 438.604 111.723C424.456 148.744 370.639 135.47 342.953 93.0316L346.576 81.9444L359.422 70.1373C359.422 70.1373 406.265 121.714 412.352 108.484C418.439 95.2534 375.864 65.2805 376.171 62.0281C376.468 58.781 379.373 52.4259 379.373 52.4259L379.358 52.4213Z" fill="#599DD3"/>
<path d="M428.102 126.471L412.508 108.002C412.451 108.161 412.42 108.319 412.347 108.474C406.27 121.699 359.417 70.1272 359.417 70.1272L346.57 81.9343L342.947 93.0214C365.86 128.156 406.685 143.286 428.091 126.477L428.102 126.471Z" fill="#DE5831"/>
<path d="M416.966 96.5495C414.128 83.3403 391.757 61.4489 380.282 51.7892L379.358 52.4213C379.358 52.4213 376.457 58.761 376.156 62.0235C375.858 65.2451 417.467 94.5845 412.489 108.038C415.976 106.395 418.372 103.129 416.956 96.5548L416.966 96.5495Z" fill="#4070B2"/>
<path d="M386.055 71.9387L392.078 61.6905L409.792 50.0184C402.438 44.0312 396.68 40.5192 396.68 40.5192L379.368 52.4159C379.368 52.4159 376.467 58.7555 376.166 62.018C376.074 63.0578 380.37 66.8431 386.055 71.9387Z" fill="#C6F2E1"/>
<path d="M376.278 62.4477C376.347 62.5783 376.427 62.7291 376.558 62.904C376.574 62.9342 376.6 62.959 376.611 62.9791C376.732 63.1339 376.863 63.3089 377.025 63.4933C377.067 63.5482 377.125 63.6079 377.167 63.6629C377.349 63.8621 377.548 64.0914 377.772 64.3201C377.835 64.3899 377.908 64.4543 377.976 64.5341C378.163 64.7179 378.356 64.9117 378.56 65.1257C378.658 65.2149 378.752 65.3195 378.856 65.4188C379.117 65.667 379.382 65.9253 379.668 66.1983C379.824 66.3472 380.001 66.511 380.173 66.6646C380.318 66.7935 380.469 66.9323 380.62 67.0712C382.159 68.4949 384.009 70.1403 386.035 71.9493L391.853 62.0417C387.437 57.9336 383.319 54.3628 380.273 51.7944L379.528 52.3053L379.348 52.4265C379.348 52.4265 376.8 58.0001 376.227 61.3808C376.191 61.6054 376.161 61.8146 376.14 62.0186C376.138 62.1102 376.171 62.2214 376.225 62.3473C376.241 62.3774 376.257 62.4075 376.273 62.4377L376.278 62.4477Z" fill="#A2E0B9"/>
<path d="M421.438 130.443C385.844 130.123 346.576 81.9444 346.576 81.9444L342.952 93.0315C363.668 124.799 399.026 140.216 421.438 130.443Z" fill="#952315"/>
<path d="M356.578 93.1442L369.72 81.3607L369.741 80.9634C363.658 74.8039 359.412 70.1426 359.412 70.1426L346.566 81.9497L342.943 93.0369C345.71 97.2853 348.754 101.232 351.974 104.88L356.558 93.1549L356.578 93.1442Z" fill="#C6F2E1"/>
<path d="M345.508 96.7357C346.066 97.5212 346.634 98.3014 347.222 99.0709C347.38 99.2707 347.537 99.4704 347.694 99.6702C348.298 100.444 348.896 101.209 349.509 101.952C349.655 102.132 349.812 102.306 349.959 102.486C350.587 103.234 351.215 103.982 351.858 104.71C351.9 104.765 351.952 104.814 352.004 104.864L356.578 93.1443L356.692 93.045C350.385 86.6059 346.576 81.9445 346.576 81.9445L342.952 93.0317C343.628 94.0636 344.324 95.0849 345.025 96.0909C345.183 96.3161 345.345 96.5259 345.498 96.741L345.508 96.7357Z" fill="#A2E0B9"/>
<path d="M380.283 51.789C380.283 51.789 418.312 84.1982 416.946 99.0574C416.321 105.929 412.814 110.955 408.257 110.436C399.546 109.43 388.178 98.71 388.178 98.71" stroke="#343743" stroke-miterlimit="10"/>
<path d="M359.417 70.1273L346.57 81.9344L342.947 93.0215C342.947 93.0215 373.221 139.417 413.326 132.775" stroke="#343743" stroke-miterlimit="10"/>
<path d="M384.142 51.4289L396.526 42.5574" stroke="#FBF8E4" stroke-miterlimit="10"/>
<path d="M365.479 101.516C376.689 111.574 396.092 127.263 409.254 128.587" stroke="#FBF8E4" stroke-miterlimit="10"/>
<path d="M356.578 93.1443C356.578 93.1443 358.079 94.6655 360.638 97.0673" stroke="#FBF8E4" stroke-miterlimit="10"/>
</g>
<g style="mix-blend-mode:multiply">
<path d="M-12.5468 660.467C-10.159 660.891 34.0917 536.695 31.5973 535.525C29.1024 534.343 -49.6684 508.45 -51.7014 511.39C-53.7457 514.33 -14.9346 660.043 -12.5468 660.467ZM-25.6361 540.503C-21.3621 540.887 8.334 547.675 9.17028 551.334C10.0066 554.992 -6.04472 608.339 -8.69544 606.118C-11.3461 603.897 -29.8981 540.13 -25.6355 540.515L-25.6361 540.503Z" fill="#5596B1"/>
<path d="M-7.53833 625.772L0.259161 628.981" stroke="#343743" stroke-miterlimit="10"/>
<path d="M-6.13156 621.714L1.66532 624.912" stroke="#343743" stroke-miterlimit="10"/>
<path d="M-8.48268 615.799L3.20234 620.95" stroke="#343743" stroke-miterlimit="10"/>
<path d="M-3.1886 613.454L4.59696 616.653" stroke="#343743" stroke-miterlimit="10"/>
<path d="M-1.79367 609.385L6.00379 612.595" stroke="#343743" stroke-miterlimit="10"/>
<path d="M-0.386929 605.327L7.40995 608.525" stroke="#343743" stroke-miterlimit="10"/>
<path d="M1.00809 601.258L8.80555 604.468" stroke="#343743" stroke-miterlimit="10"/>
<path d="M-1.34369 595.343L10.3533 600.505" stroke="#343743" stroke-miterlimit="10"/>
<path d="M3.95047 592.998L11.7479 596.208" stroke="#343743" stroke-miterlimit="10"/>
<path d="M5.3573 588.94L13.1429 592.139" stroke="#343743" stroke-miterlimit="10"/>
<path d="M6.7522 584.871L14.5497 588.081" stroke="#343743" stroke-miterlimit="10"/>
<path d="M8.15909 580.813L15.9446 584.012" stroke="#343743" stroke-miterlimit="10"/>
<path d="M5.79649 574.899L17.4929 580.049" stroke="#343743" stroke-miterlimit="10"/>
<path d="M11.1019 572.554L18.8875 575.752" stroke="#343743" stroke-miterlimit="10"/>
<path d="M12.4969 568.484L20.2943 571.694" stroke="#343743" stroke-miterlimit="10"/>
<path d="M13.9037 564.426L21.6892 567.625" stroke="#343743" stroke-miterlimit="10"/>
<path d="M15.2986 560.357L23.0961 563.567" stroke="#343743" stroke-miterlimit="10"/>
<path d="M12.9479 554.454L24.6442 559.604" stroke="#343743" stroke-miterlimit="10"/>
<path d="M18.242 552.109L26.0389 555.308" stroke="#343743" stroke-miterlimit="10"/>
<path d="M19.6478 548.039L27.434 551.25" stroke="#343743" stroke-miterlimit="10"/>
<path d="M21.0432 543.982L28.8401 547.18" stroke="#343743" stroke-miterlimit="10"/>
<path d="M22.4496 539.912L30.2357 543.123" stroke="#343743" stroke-miterlimit="10"/>
<path d="M-10.9861 658.303C-10.9861 658.303 33.3142 539.058 31.5971 535.525C30.2493 532.759 -18.473 518.964 -40.2719 513.342C-46.3351 511.786 -51.713 511.39 -51.713 511.39" stroke="#343743" stroke-miterlimit="10"/>
<path d="M9.16992 551.322C9.16992 551.322 -5.56431 607.722 -8.69579 606.107C-11.8273 604.491 -21.7974 562.969 -21.7974 562.969" stroke="#343743" stroke-miterlimit="10"/>
</g>
<path d="M26.3724 701.51C26.3724 701.51 24.7025 697.234 28.4854 695.63C32.2682 694.038 41.7538 714.351 37.9937 716.751C34.2335 719.15 30.4393 714.192 30.4393 714.192L6.90135 726.816C6.90135 726.816 10.3321 755.534 -17.7044 766.441C-39.8905 775.073 -57.6689 758.206 -61.9743 729.022C-66.2911 699.838 -26.0994 675.647 -1.26649 711.849L26.3497 701.51H26.3724Z" fill="#C6F2E1"/>
<path d="M29.2462 698.622C29.2462 698.622 32.5179 711.291 36.6416 714.078" stroke="#343743" stroke-miterlimit="10"/>
<path d="M-23.5434 701.181C-17.6362 706.822 -23.4639 718.616 -14.7848 730.49C-10.4226 736.449 2.11885 744.718 -1.76627 748.846C-5.66275 752.975 -26.1448 743.296 -31.734 723.131C-38.5727 698.474 -28.5872 696.37 -23.5434 701.181Z" fill="#F3D43F"/>
<path d="M-1.05035 717.569L0.540039 721.937" stroke="#FCFFFD" stroke-width="0.75" stroke-miterlimit="10"/>
<path d="M1.11908 716.637L2.70947 720.993" stroke="#FCFFFD" stroke-width="0.75" stroke-miterlimit="10"/>
<path d="M3.28897 715.704L4.87939 720.06" stroke="#FCFFFD" stroke-width="0.75" stroke-miterlimit="10"/>
<path d="M4.82214 712.554L7.06006 719.218" stroke="#FCFFFD" stroke-width="0.75" stroke-miterlimit="10"/>
<path d="M7.73037 713.839L9.3208 718.206" stroke="#FCFFFD" stroke-width="0.75" stroke-miterlimit="10"/>
<path d="M9.90033 712.906L11.4907 717.262" stroke="#FCFFFD" stroke-width="0.75" stroke-miterlimit="10"/>
<path d="M12.0698 711.974L13.6602 716.33" stroke="#FCFFFD" stroke-width="0.75" stroke-miterlimit="10"/>
<path d="M14.2397 711.041L15.8301 715.397" stroke="#FCFFFD" stroke-width="0.75" stroke-miterlimit="10"/>
<path d="M15.7733 707.891L18.0112 714.555" stroke="#FCFFFD" stroke-width="0.75" stroke-miterlimit="10"/>
<path d="M18.6816 709.176L20.272 713.532" stroke="#FCFFFD" stroke-width="0.75" stroke-miterlimit="10"/>
<path d="M20.8515 708.243L22.4419 712.599" stroke="#FCFFFD" stroke-width="0.75" stroke-miterlimit="10"/>
<path d="M23.0209 707.311L24.6113 711.667" stroke="#FCFFFD" stroke-width="0.75" stroke-miterlimit="10"/>
<path d="M25.1909 706.378L26.7812 710.734" stroke="#FCFFFD" stroke-width="0.75" stroke-miterlimit="10"/>
<path d="M26.2474 702.898C26.2474 702.898 24.0776 696.245 28.4853 695.631C32.893 695.016 37.5278 708.607 37.5278 708.607" stroke="#343743" stroke-miterlimit="10"/>
<path d="M28.0765 708.084C28.0765 708.084 28.9172 716.58 35.8809 717.001" stroke="#343743" stroke-miterlimit="10"/>
<path d="M30.4507 714.191L6.91276 726.816C6.91276 726.816 6.31071 739.315 4.87935 743.307" stroke="#343743" stroke-miterlimit="10"/>
<g style="mix-blend-mode:multiply">
<path d="M411.318 771.293C411.318 771.293 409.989 765.367 414.204 766.015C418.418 766.664 425.643 788.58 422.292 790.354C418.941 792.117 417.941 787.67 417.941 787.67C417.941 787.67 341.159 812.043 335.649 811.179C330.151 810.315 324.494 800.226 330.333 794.278C335.047 789.49 411.318 771.293 411.318 771.293Z" fill="#C6F2E1"/>
<path d="M389.36 794.608C389.36 794.608 338.978 809.337 335.956 807.619C332.934 805.902 329.765 800.636 333.139 797.178C335.218 795.052 384.725 781.301 384.725 781.301L389.36 794.608Z" fill="#952315"/>
<path d="M386.86 780.641C389.632 781.199 388.905 784.759 389.394 787.886C389.962 791.503 391.359 794.71 388.644 794.585C383.589 794.346 380.874 779.436 386.849 780.63L386.86 780.641Z" fill="#DE5831"/>
<path d="M355.53 791.389L356.938 797.712" stroke="#FCFFFD" stroke-width="0.75" stroke-miterlimit="10"/>
<path d="M358.074 792.845L359.108 796.996" stroke="#FCFFFD" stroke-width="0.75" stroke-miterlimit="10"/>
<path d="M360.153 792.208L361.176 796.347" stroke="#FCFFFD" stroke-width="0.75" stroke-miterlimit="10"/>
<path d="M362.232 791.56L363.254 795.699" stroke="#FCFFFD" stroke-width="0.75" stroke-miterlimit="10"/>
<path d="M364.299 790.911L365.333 795.062" stroke="#FCFFFD" stroke-width="0.75" stroke-miterlimit="10"/>
<path d="M345.612 794.255L347.01 800.578" stroke="#FCFFFD" stroke-width="0.75" stroke-miterlimit="10"/>
<path d="M348.157 795.722L349.179 799.862" stroke="#FCFFFD" stroke-width="0.75" stroke-miterlimit="10"/>
<path d="M350.224 795.074L351.258 799.225" stroke="#FCFFFD" stroke-width="0.75" stroke-miterlimit="10"/>
<path d="M352.303 794.425L353.337 798.577" stroke="#FCFFFD" stroke-width="0.75" stroke-miterlimit="10"/>
<path d="M354.382 793.789L355.405 797.928" stroke="#FCFFFD" stroke-width="0.75" stroke-miterlimit="10"/>
<path d="M335.093 797.098L336.49 803.41" stroke="#FCFFFD" stroke-width="0.75" stroke-miterlimit="10"/>
<path d="M337.638 798.554L338.66 802.705" stroke="#FCFFFD" stroke-width="0.75" stroke-miterlimit="10"/>
<path d="M339.716 797.917L340.739 802.057" stroke="#FCFFFD" stroke-width="0.75" stroke-miterlimit="10"/>
<path d="M341.795 797.269L342.818 801.409" stroke="#FCFFFD" stroke-width="0.75" stroke-miterlimit="10"/>
<path d="M343.863 796.621L344.896 800.772" stroke="#FCFFFD" stroke-width="0.75" stroke-miterlimit="10"/>
<path d="M366.015 788.182L367.412 794.505" stroke="#FCFFFD" stroke-width="0.75" stroke-miterlimit="10"/>
<path d="M368.548 789.649L369.582 793.789" stroke="#FCFFFD" stroke-width="0.75" stroke-miterlimit="10"/>
<path d="M370.627 789L371.661 793.14" stroke="#FCFFFD" stroke-width="0.75" stroke-miterlimit="10"/>
<path d="M372.706 788.352L373.728 792.503" stroke="#FCFFFD" stroke-width="0.75" stroke-miterlimit="10"/>
<path d="M374.785 787.715L375.807 791.855" stroke="#FCFFFD" stroke-width="0.75" stroke-miterlimit="10"/>
<path d="M376.489 784.975L377.886 791.298" stroke="#FCFFFD" stroke-width="0.75" stroke-miterlimit="10"/>
<path d="M379.034 786.442L380.056 790.582" stroke="#FCFFFD" stroke-width="0.75" stroke-miterlimit="10"/>
<path d="M381.112 785.793L382.135 789.945" stroke="#FCFFFD" stroke-width="0.75" stroke-miterlimit="10"/>
<path d="M383.18 785.157L384.214 789.297" stroke="#FCFFFD" stroke-width="0.75" stroke-miterlimit="10"/>
<path d="M385.259 784.508L386.292 788.648" stroke="#FCFFFD" stroke-width="0.75" stroke-miterlimit="10"/>
<path d="M386.963 781.778L388.371 788.091" stroke="#FCFFFD" stroke-width="0.75" stroke-miterlimit="10"/>
<path d="M389.507 783.234L390.53 787.386" stroke="#FCFFFD" stroke-width="0.75" stroke-miterlimit="10"/>
<path d="M391.586 782.597L392.609 786.737" stroke="#FCFFFD" stroke-width="0.75" stroke-miterlimit="10"/>
<path d="M376.114 779.731C376.114 779.731 333.071 791.241 330.333 794.278C327.595 797.315 327.039 803.24 329.458 806.8C333.037 812.066 339.739 811.668 345.226 809.552" stroke="#343743" stroke-miterlimit="10"/>
</g>
<g style="mix-blend-mode:multiply">
<path d="M-11.5014 210.307C-9.82011 211.013 59.6009 256.802 58.8965 261.305C58.1922 265.809 -0.800289 348.55 -3.52669 348.96C-6.25309 349.369 -77.5939 299.11 -78.071 297.052C-78.5368 294.993 -13.194 209.614 -11.5128 210.307H-11.5014Z" fill="#EEC141"/>
<path d="M-75.3788 292.934C-75.3788 292.934 -78.2869 295.732 -78.0597 297.04C-77.8325 298.348 -6.7189 349.551 -3.51538 348.948C-0.311858 348.345 59.0782 262.363 58.9078 261.294C58.7374 260.225 56.3518 257.495 56.3518 257.495" stroke="#343743" stroke-miterlimit="10"/>
<path d="M-13.4667 203.722C-12.3647 204.769 59.635 253.23 58.8625 255.585C58.1014 257.927 -0.641181 340.839 -5.19654 340.794C-9.76326 340.748 -77.6734 295.914 -77.6734 295.914L-13.4667 203.722Z" fill="#FCFFFD"/>
<path d="M-14.8188 199.685C-13.1375 200.39 56.2835 246.179 55.5791 250.683C54.8748 255.187 -4.11766 337.928 -6.84406 338.337C-9.57046 338.746 -78.7529 295.937 -79.23 293.867C-79.6957 291.809 -16.5114 198.98 -14.8301 199.685H-14.8188Z" fill="#F3D43F"/>
<path d="M-18.0221 240.458C-18.0221 240.458 -6.86664 221.112 -5.04904 221.453C-3.23144 221.794 38.3916 250.091 37.0739 252.355C35.7561 254.618 25.8729 270.063 23.669 269.904C21.4652 269.744 -18.5333 241.402 -18.0221 240.458Z" fill="#FCFFFD"/>
<path d="M-16.2272 201.254C-15.0458 201.118 -81.2746 290.376 -79.2184 293.878C-77.1622 297.381 -10.0701 340.316 -6.83248 338.348C-3.59488 336.369 43.6514 269.028 43.6514 269.028" stroke="#343743" stroke-miterlimit="10"/>
</g>
<g style="mix-blend-mode:multiply">
<path d="M345.236 229.051C345.236 229.051 344.623 195.795 342.499 186.253C340.374 176.711 330.378 159.184 333.729 156.955C337.08 154.726 408.296 145.184 410.409 148.129C412.522 151.075 431.118 200.583 417.827 216.483C417.827 216.483 448.215 241.266 448.431 269.79C448.431 269.79 381.793 315.92 379.351 311.735C376.908 307.561 363.549 257.95 351.007 247.271L345.225 229.039L345.236 229.051Z" fill="#5596B1"/>
<path d="M341.874 184.229L345.237 229.051L351.019 247.282C351.019 247.282 360.027 261.886 364.151 269.312C368.275 276.751 377.51 310.666 379.351 311.746C381.202 312.815 395.879 304.649 395.879 304.649" stroke="#343743" stroke-miterlimit="10"/>
<path d="M351.269 201.413C350.292 192.986 335.762 160.538 337.773 159.662C339.784 158.786 415.282 152.588 415.282 152.588C415.282 152.588 426.892 177.78 427.21 187.356C427.54 196.921 417.827 216.506 417.827 216.506L346.85 236.409C346.85 236.409 352.234 209.852 351.257 201.425L351.269 201.413Z" fill="#C6F2E1"/>
<path d="M417.327 216.312C417.952 216.858 446.636 252.161 446.42 273.418C446.42 273.418 400.321 307.481 397.504 308.482C397.504 308.482 388.768 286.884 382.384 279.082C375.999 271.28 346.872 236.409 346.872 236.409L417.338 216.312H417.327Z" fill="#C6F2E1"/>
<path d="M417.838 216.495C417.838 216.495 433.879 225.65 438.661 234.601C443.444 243.552 450.248 252.901 450.078 264.615L399.299 305.696C399.299 305.696 395.664 286.907 386.496 275.818C377.328 264.718 346.111 236.25 346.861 236.398C347.622 236.546 417.838 216.495 417.838 216.495Z" fill="#FCFFFD"/>
<path d="M347.122 235.704C347.122 235.704 355.79 202.687 356.494 193.85C357.199 185.013 347.315 164.166 347.315 164.166L418.622 157.808C418.622 157.808 427.687 177.666 427.222 187.356C426.745 197.035 417.838 216.506 417.838 216.506L347.122 235.715V235.704Z" stroke="#343743" stroke-miterlimit="10"/>
<path d="M347.122 235.704C347.122 235.704 387.428 275.306 391.233 281.493C392.903 284.2 394.652 289.17 396.095 293.913" stroke="#343743" stroke-miterlimit="10"/>
<path d="M396.288 153.884L412.919 152.758C412.919 152.758 413.271 149.733 410.42 148.141C407.569 146.548 334.865 154.396 333.74 156.966C332.615 159.537 338.818 176.176 338.818 176.176" stroke="#343743" stroke-miterlimit="10"/>
<path d="M387.496 235.442C387.496 235.442 398.458 249.341 400.651 259.224" stroke="#343743" stroke-miterlimit="10"/>
</g>
<g style="mix-blend-mode:multiply">
<path d="M336.202 487.791C338.724 488.236 428.14 505.012 430.495 502.268C432.851 499.523 472.363 395.652 469.866 394.573C467.38 393.492 382.945 381.366 382.945 381.366C382.945 381.366 333.681 487.346 336.202 487.791Z" fill="#5596B1"/>
<path d="M378.754 375.892C378.754 375.892 330.807 477.635 332.224 479.201C333.641 480.766 419.277 499.48 423.967 495.704C428.659 491.939 466.646 392.048 466.264 389.52C465.883 387.004 378.753 375.881 378.753 375.881L378.754 375.892Z" fill="#FCFFFD"/>
<path d="M335.805 470.613C335.805 470.613 329.95 477.344 332.224 479.2C334.498 481.057 405.28 496.937 423.968 495.703C423.968 495.703 439.078 469.069 466.264 389.52L452.732 386.051" stroke="#343743" stroke-miterlimit="10"/>
<path d="M327.525 472.973C327.525 472.973 372.453 374.229 377.45 374.471C382.435 374.715 461.605 382.609 461.88 387.126C462.154 391.642 426.215 490.829 421.197 491.083C416.178 491.338 327.799 477.489 327.526 472.984L327.525 472.973Z" fill="#72C6D1"/>
<path d="M377.995 392.041C377.995 392.041 338.529 467.713 342.129 468.555C345.73 469.397 414.661 486 417.084 483.808C419.506 481.616 448.053 406.062 445.513 403.956C442.974 401.85 377.996 392.052 377.996 392.052L377.995 392.041Z" stroke="#343743" stroke-linecap="round" stroke-linejoin="round"/>
<path d="M390.413 386.948C390.413 386.948 380.326 377.734 388.811 369.62C395.425 363.298 407.716 368.952 404.643 376.583" stroke="#343743" stroke-width="2" stroke-linecap="round" stroke-linejoin="round"/>
<path d="M394.777 376.115C394.777 376.115 460.421 382.766 461.88 387.126C463.338 391.485 425.526 491.558 421.197 491.083C365.352 484.921 327.495 473.332 327.495 473.332" stroke="#343743" stroke-miterlimit="10"/>
</g>
<path d="M5.78124 181.558C5.78124 181.558 -6.85108 181.717 -7.97572 182.377C-9.10036 183.036 -9.29348 185.55 -7.50996 186.118C-5.72644 186.687 16.9708 186.846 17.9137 186.005C18.8566 185.163 20.0948 180.739 17.3798 179.704C14.6534 178.669 -13.2354 178.76 -14.928 180.079C-16.6207 181.398 -16.1436 187.324 -14.644 188.075C-13.1445 188.825 4.14541 189.394 4.14541 189.394" stroke="#EEC141" stroke-width="1.5" stroke-linecap="round" stroke-linejoin="round"/>
<path d="M383.963 746.003C383.963 746.003 371.33 746.162 370.206 746.821C369.081 747.481 368.888 749.995 370.671 750.563C372.455 751.132 395.152 751.291 396.095 750.45C397.038 749.608 398.276 745.184 395.561 744.149C392.835 743.114 364.946 743.205 363.253 744.524C361.561 745.843 362.038 751.769 363.537 752.519C365.037 753.27 382.327 753.839 382.327 753.839" stroke="#DE5831" stroke-width="1.5" stroke-linecap="round" stroke-linejoin="round"/>
<path d="M82.9909 683.836C82.9909 683.836 75.3911 673.725 74.1983 673.202C73.0055 672.679 70.8585 674.01 71.4606 675.784C72.0626 677.558 85.3425 695.983 86.5807 696.245C87.819 696.506 92.113 694.891 91.3406 692.082C90.5681 689.273 73.9938 666.799 71.9377 666.208C69.8815 665.616 65.3829 669.506 65.6669 671.155C65.9509 672.804 75.7092 687.1 75.7092 687.1" stroke="#72C6D1" stroke-width="1.5" stroke-linecap="round" stroke-linejoin="round"/>
<path d="M85.2855 806.725C85.2855 806.725 64.9738 802.585 65.7122 803.245C66.4506 803.904 84.229 810.364 84.229 810.364L85.2969 806.725H85.2855Z" fill="#C6F2E1"/>
<path d="M83.7749 806.281C83.7749 806.281 65.3263 802.71 65.7125 803.244C66.0987 803.779 75.5276 807.327 75.5276 807.327" stroke="#343743" stroke-width="0.75" stroke-miterlimit="10"/>
<path d="M89.182 802.119L92.9422 806.998C92.9422 806.998 104.052 805.042 103.848 807.396C103.643 809.75 100.747 821.089 98.838 820.669C96.9296 820.236 92.022 815.391 90.159 815.312C88.7731 815.255 84.5244 816.608 84.5244 816.608L81.0028 815.494L85.4787 800.606L89.1707 802.107L89.182 802.119Z" fill="#4F8A49"/>
<path d="M85.3877 800.64L81.0027 815.494" stroke="#343743" stroke-width="0.75" stroke-miterlimit="10"/>
<path d="M103.848 807.385C103.916 806.577 102.666 806.281 100.985 806.236L96.8161 819.565C97.6226 820.123 98.327 820.543 98.8382 820.657C100.747 821.089 103.643 809.739 103.848 807.385Z" fill="#64AF5D"/>
<path d="M92.9421 806.986L90.3521 815.676" stroke="#343743" stroke-miterlimit="10"/>
<path d="M101.042 806.918L96.8729 819.451" stroke="#343743" stroke-miterlimit="10"/>
<path d="M92.8967 806.929C92.8967 806.929 103.155 805.951 103.848 807.384C104.529 808.817 100.178 820.213 99.4968 820.623" stroke="#343743" stroke-width="0.75" stroke-miterlimit="10"/>
</svg>
