<svg width="92" height="34" viewBox="0 0 92 34" fill="none" xmlns="http://www.w3.org/2000/svg">
<path d="M0 3.90735C0 3.67195 0.0419393 3.45278 0.125818 3.2512C0.209697 3.04962 0.321986 2.8724 0.465391 2.72087C0.607444 2.568 0.777907 2.4503 0.974075 2.36642C1.17024 2.28254 1.38129 2.2406 1.60858 2.2406C1.83586 2.2406 2.05773 2.28254 2.24984 2.36642C2.44195 2.4503 2.60836 2.568 2.75041 2.72087C2.89246 2.87375 3.0034 3.04962 3.08186 3.2512C3.16033 3.45278 3.19956 3.67195 3.19956 3.90735V8.50715C3.75966 8.14322 4.36169 7.86047 5.00566 7.66024C5.64963 7.45866 6.32472 7.35855 7.03228 7.35855C8.005 7.35855 8.91684 7.54254 9.76645 7.91188C10.6161 8.27986 11.3588 8.78178 11.9919 9.41493C12.6251 10.0481 13.127 10.7935 13.495 11.6485C13.863 12.5036 14.0483 13.4181 14.0483 14.3908C14.0483 15.3635 13.8643 16.2632 13.495 17.1182C13.127 17.9733 12.6251 18.72 11.9919 19.3586C11.3574 19.9972 10.6161 20.5004 9.76645 20.8698C8.91684 21.2378 8.005 21.4231 7.03228 21.4231C6.05956 21.4231 5.15989 21.2391 4.30487 20.8698C3.44985 20.5004 2.70306 19.9972 2.0645 19.3586C1.42594 18.72 0.922665 17.9733 0.553329 17.1182C0.185345 16.2632 0 15.3541 0 14.3908L0 3.90735ZM3.19956 14.3881C3.19956 14.909 3.29968 15.4028 3.50126 15.8695C3.70284 16.3363 3.97747 16.7448 4.32651 17.0925C4.67556 17.4416 5.08007 17.7162 5.54276 17.9178C6.00409 18.1194 6.5006 18.2195 7.03092 18.2195C7.56125 18.2195 8.05776 18.1194 8.51909 17.9178C8.98043 17.7162 9.38629 17.4416 9.73533 17.0925C10.0844 16.7435 10.3563 16.3363 10.5538 15.8695C10.75 15.4028 10.8488 14.909 10.8488 14.3881C10.8488 13.8673 10.75 13.3586 10.5538 12.8918C10.3577 12.4251 10.0844 12.0192 9.73533 11.6756C9.38629 11.332 8.98043 11.0587 8.51909 10.8571C8.05776 10.6555 7.56125 10.5554 7.03092 10.5554C6.5006 10.5554 6.00409 10.6569 5.54276 10.8571C5.08007 11.0587 4.67556 11.3306 4.32651 11.6756C3.97747 12.0192 3.70284 12.4251 3.50126 12.8918C3.29968 13.3586 3.19956 13.8578 3.19956 14.3881Z" fill="#845DC2"/>
<path d="M15.3457 14.3894C15.3457 13.4167 15.5324 12.5048 15.9058 11.6552C16.2792 10.8056 16.7852 10.0615 17.4237 9.42161C18.0623 8.78305 18.8064 8.27978 19.6573 7.91045C20.5069 7.54246 21.4134 7.35712 22.3766 7.35712C23.3399 7.35712 24.2639 7.54111 25.1189 7.91045C25.9739 8.27843 26.718 8.78305 27.3525 9.42161C27.9857 10.0602 28.4849 10.8056 28.8488 11.6552C29.2127 12.5048 29.394 13.4167 29.394 14.3894V19.6075C29.394 19.8334 29.3521 20.0444 29.2682 20.242C29.1843 20.4381 29.0693 20.6099 28.9219 20.7574C28.7744 20.9049 28.5999 21.0226 28.3983 21.1119C28.1967 21.1998 27.983 21.2444 27.757 21.2444C27.3742 21.2444 27.0495 21.1322 26.7843 20.9049C26.5191 20.6789 26.3419 20.3948 26.254 20.0498C25.6939 20.4719 25.0864 20.8061 24.433 21.0523C23.7796 21.2972 23.0937 21.4203 22.3766 21.4203C21.4134 21.4203 20.5069 21.2363 19.6573 20.867C18.8077 20.4977 18.0623 19.9944 17.4237 19.3558C16.7852 18.7173 16.2792 17.9705 15.9058 17.1154C15.5324 16.2604 15.3457 15.3513 15.3457 14.388V14.3894ZM18.5439 14.3894C18.5439 14.9103 18.644 15.4041 18.8456 15.8708C19.0472 16.3375 19.3218 16.7461 19.6709 17.0938C20.0199 17.4428 20.4244 17.7175 20.8871 17.9191C21.3484 18.1206 21.8449 18.2208 22.3766 18.2208C22.9083 18.2208 23.4062 18.1206 23.8729 17.9191C24.3397 17.7175 24.7455 17.4428 25.0892 17.0938C25.4328 16.7448 25.7034 16.3375 25.8995 15.8708C26.0957 15.4041 26.1945 14.9103 26.1945 14.3894C26.1945 13.8685 26.0957 13.3599 25.8995 12.8931C25.7034 12.4264 25.4328 12.0205 25.0892 11.6769C24.7455 11.3332 24.3397 11.06 23.8729 10.8584C23.4062 10.6568 22.907 10.5567 22.3766 10.5567C21.8463 10.5567 21.362 10.6581 20.8952 10.8584C20.4285 11.06 20.0199 11.3319 19.6722 11.6769C19.3232 12.0205 19.0485 12.4264 18.847 12.8931C18.6454 13.3599 18.5453 13.8591 18.5453 14.3894H18.5439Z" fill="#D55FAD"/>
<path d="M34.6834 16.2049C34.8782 16.6243 35.1569 16.9991 35.5209 17.3278C35.8848 17.6579 36.292 17.9163 36.7412 18.103C37.1903 18.2897 37.6638 18.3926 38.1603 18.4115C38.6568 18.4304 39.1385 18.3371 39.6066 18.1314C40.0882 17.9082 40.4859 17.6512 40.7998 17.3589C41.1137 17.0667 41.3856 16.6784 41.6156 16.1928C41.7238 15.9587 41.8564 15.726 42.0147 15.496C42.173 15.266 42.3813 15.0902 42.6397 14.9711C42.7912 14.9008 42.9671 14.8602 43.1673 14.848C43.3676 14.8358 43.5921 14.8642 43.8411 14.9332C44.0548 14.9968 44.2415 15.1023 44.4025 15.2498C44.5635 15.3973 44.688 15.5731 44.7759 15.7747C44.8639 15.9777 44.9126 16.1968 44.918 16.4322C44.9247 16.6676 44.8842 16.9139 44.7976 17.1709C44.5053 17.9894 44.0467 18.7213 43.4203 19.3693C42.794 20.0174 42.062 20.5355 41.2246 20.9238C40.3331 21.3378 39.4199 21.5637 38.4837 21.6016C37.5488 21.6408 36.6546 21.5109 35.8009 21.2133C34.9472 20.9157 34.1734 20.4598 33.4767 19.8455C32.7799 19.2313 32.2252 18.4791 31.8113 17.5876C31.8153 17.5754 31.8167 17.5632 31.8113 17.5551L31.7977 17.5619C31.3837 16.6703 31.1659 15.7558 31.1429 14.8196C31.1199 13.882 31.2688 12.9891 31.5907 12.1422C31.9127 11.294 32.3889 10.5242 33.0207 9.83016C33.6525 9.13614 34.4142 8.58281 35.3057 8.16883C36.1432 7.78055 37.009 7.54921 37.9019 7.47615C38.7948 7.4031 39.6471 7.51944 40.4602 7.82519C40.7078 7.91584 40.9229 8.04166 41.1056 8.19994C41.2882 8.35958 41.4275 8.53816 41.5249 8.73704C41.6224 8.93591 41.6738 9.14561 41.6778 9.36477C41.6819 9.58529 41.6372 9.80311 41.5425 10.0209C41.4343 10.255 41.3153 10.4403 41.184 10.577C41.0528 10.7136 40.9107 10.8178 40.7592 10.8881C40.5008 11.0085 40.2316 11.0545 39.9542 11.0261C39.6756 10.9991 39.4077 10.9517 39.1506 10.8868C38.6447 10.7758 38.1793 10.742 37.7558 10.7867C37.3324 10.8313 36.9197 10.9463 36.5193 11.133C36.0647 11.344 35.671 11.6403 35.3396 12.0218C35.0068 12.4033 34.7592 12.8268 34.5968 13.2922C34.4331 13.7576 34.356 14.2433 34.3628 14.7492C34.3696 15.2552 34.4791 15.7355 34.6902 16.1901L34.6834 16.209V16.2049Z" fill="#FF6D91"/>
<path d="M59.6565 19.6806C59.6565 19.897 59.6146 20.1013 59.5307 20.2921C59.4468 20.4828 59.3318 20.6506 59.1844 20.7926C59.0369 20.936 58.8678 21.0456 58.6757 21.1241C58.4836 21.2026 58.2752 21.2418 58.0493 21.2418C57.8234 21.2418 57.6286 21.2026 57.4378 21.1241C57.2457 21.0456 57.0766 20.9347 56.9291 20.7926C56.7816 20.6506 56.6667 20.4828 56.5828 20.2921C56.4989 20.1013 56.457 19.897 56.457 19.6806V14.1446C56.457 14.1108 56.4624 14.0783 56.4718 14.0485C56.4624 13.5574 56.3731 13.1002 56.2067 12.6781C56.0389 12.256 55.8103 11.8866 55.5208 11.5728C55.2313 11.2589 54.8849 11.01 54.4818 10.8287C54.0786 10.6474 53.6308 10.5554 53.1397 10.5554C52.6486 10.5554 52.171 10.642 51.7395 10.8138C51.3065 10.9856 50.9331 11.2264 50.6193 11.5362C50.3054 11.846 50.0565 12.214 49.8752 12.6415C49.6939 13.069 49.6019 13.5385 49.6019 14.0485V19.6508C49.6019 19.8673 49.56 20.0729 49.4761 20.2704C49.3922 20.4679 49.2799 20.6371 49.1365 20.7791C48.9945 20.9225 48.8267 21.0348 48.636 21.1187C48.4452 21.2026 48.2355 21.2445 48.0096 21.2445C47.7836 21.2445 47.5726 21.2026 47.3764 21.1187C47.1789 21.0348 47.0098 20.9225 46.8677 20.7791C46.7257 20.6371 46.612 20.4679 46.5282 20.2704C46.4443 20.0729 46.4023 19.8673 46.4023 19.6508V3.86404C46.4023 3.63811 46.4443 3.42706 46.5282 3.23089C46.612 3.03472 46.727 2.86291 46.8745 2.71544C47.022 2.56798 47.1938 2.45298 47.3899 2.3691C47.5861 2.28523 47.7931 2.24329 48.0096 2.24329C48.226 2.24329 48.4452 2.28523 48.636 2.3691C48.8281 2.45298 48.9945 2.56798 49.1365 2.71544C49.2786 2.86291 49.3922 3.03472 49.4761 3.23089C49.56 3.42706 49.6019 3.63946 49.6019 3.86404V8.66947C50.1133 8.25684 50.6653 7.93486 51.2605 7.70351C51.8545 7.47217 52.4822 7.35718 53.1397 7.35718C54.0732 7.35718 54.9377 7.53711 55.7345 7.89562C56.53 8.25414 57.2186 8.74117 57.7977 9.35538C58.3781 9.96959 58.8313 10.6893 59.1614 11.5146C59.4901 12.3398 59.6552 13.2192 59.6552 14.1527V19.6806H59.6565Z" fill="#FC966C"/>
<path d="M61.6172 14.3894C61.6172 13.4167 61.8039 12.5048 62.1773 11.6552C62.5507 10.8056 63.0567 10.0615 63.6952 9.42161C64.3338 8.78305 65.0779 8.27978 65.9288 7.91045C66.7784 7.54246 67.6849 7.35712 68.6481 7.35712C69.6114 7.35712 70.5354 7.54111 71.3904 7.91045C72.2454 8.27843 72.9895 8.78305 73.624 9.42161C74.2585 10.0602 74.7564 10.8056 75.1203 11.6552C75.4842 12.5048 75.6655 13.4167 75.6655 14.3894V19.6075C75.6655 19.8334 75.6236 20.0444 75.5397 20.242C75.4558 20.4381 75.3408 20.6099 75.1933 20.7574C75.0459 20.9049 74.8714 21.0226 74.6698 21.1119C74.4682 21.1998 74.2545 21.2444 74.0285 21.2444C73.6457 21.2444 73.321 21.1322 73.0558 20.9049C72.7906 20.6789 72.6134 20.3948 72.5255 20.0498C71.9654 20.4719 71.3579 20.8061 70.7045 21.0523C70.051 21.2972 69.3651 21.4203 68.6481 21.4203C67.6849 21.4203 66.7784 21.2363 65.9288 20.867C65.0792 20.4977 64.3338 19.9944 63.6952 19.3558C63.0567 18.7173 62.5507 17.9705 62.1773 17.1154C61.8039 16.2604 61.6172 15.3513 61.6172 14.388V14.3894ZM64.8154 14.3894C64.8154 14.9103 64.9155 15.4041 65.1171 15.8708C65.3187 16.3375 65.5933 16.7461 65.9423 17.0938C66.2914 17.4428 66.6959 17.7175 67.1586 17.9191C67.6199 18.1206 68.1164 18.2208 68.6468 18.2208C69.1771 18.2208 69.6763 18.1206 70.143 17.9191C70.6098 17.7175 71.0157 17.4428 71.3593 17.0938C71.7029 16.7448 71.9735 16.3375 72.1697 15.8708C72.3658 15.4041 72.4646 14.9103 72.4646 14.3894C72.4646 13.8685 72.3658 13.3599 72.1697 12.8931C71.9735 12.4264 71.7029 12.0205 71.3593 11.6769C71.0157 11.3332 70.6098 11.06 70.143 10.8584C69.6763 10.6568 69.1771 10.5567 68.6468 10.5567C68.1164 10.5567 67.6321 10.6581 67.1654 10.8584C66.6986 11.06 66.29 11.3319 65.9423 11.6769C65.5933 12.0205 65.3187 12.4264 65.1171 12.8931C64.9155 13.3599 64.8154 13.8591 64.8154 14.3894Z" fill="#FFC55D"/>
<path d="M81.606 14.6395C81.606 15.1414 81.6994 15.6109 81.8861 16.0478C82.0728 16.4848 82.3285 16.8636 82.6532 17.1829C82.9779 17.5022 83.3607 17.7525 83.8031 17.9351C84.2455 18.1164 84.7177 18.2084 85.2182 18.2084C85.7188 18.2084 86.1882 18.1123 86.6266 17.9216C87.0649 17.7308 87.4424 17.4697 87.7616 17.141C88.0809 16.8122 88.3339 16.4253 88.5206 15.9843C88.7073 15.5419 88.8007 15.0657 88.8007 14.5543V9.12921C88.8007 8.91275 88.8453 8.70846 88.9332 8.5177C89.0212 8.3256 89.1402 8.15648 89.2877 8.00902C89.4352 7.86156 89.6097 7.74656 89.8113 7.66268C90.0128 7.5788 90.2212 7.53687 90.4376 7.53687C90.6541 7.53687 90.8692 7.5788 91.0573 7.66268C91.244 7.74656 91.409 7.86156 91.5511 8.00902C91.6931 8.15648 91.8041 8.3256 91.8825 8.5177C91.961 8.70981 92.0002 8.91275 92.0002 9.12921V14.6124C92.0002 15.4188 91.8676 16.1818 91.6025 16.9042C91.3373 17.6267 90.9734 18.2774 90.5121 18.8578C90.0494 19.4382 89.5001 19.9333 88.8615 20.3459C88.223 20.7586 87.5303 21.0535 86.7835 21.2307V24.6211C86.7835 24.847 86.7416 25.058 86.6577 25.2556C86.5738 25.4517 86.4588 25.6208 86.3114 25.7642C86.1639 25.9063 85.9948 26.0199 85.8027 26.1038C85.6106 26.1877 85.4076 26.2296 85.1912 26.2296C84.7285 26.2296 84.3456 26.0768 84.0412 25.7724C83.7368 25.468 83.584 25.0837 83.584 24.6224V21.2172C82.8372 21.0305 82.1485 20.7302 81.5208 20.3175C80.8917 19.9049 80.3465 19.4084 79.8838 18.8294C79.4211 18.249 79.0599 17.6009 78.8002 16.8839C78.5391 16.1669 78.4092 15.4093 78.4092 14.6138V9.13056C78.4092 8.9141 78.4511 8.70981 78.535 8.51906C78.6189 8.32695 78.7312 8.15784 78.8746 8.01037C79.018 7.86291 79.1857 7.74791 79.3833 7.66404C79.5794 7.58016 79.7864 7.53822 80.0029 7.53822C80.2193 7.53822 80.425 7.58016 80.6225 7.66404C80.8187 7.74791 80.9905 7.86291 81.1379 8.01037C81.2854 8.15784 81.4004 8.32695 81.4843 8.51906C81.5682 8.71117 81.6101 8.9141 81.6101 9.13056V14.6436L81.606 14.6395Z" fill="#F8931B"/>
<path d="M32.8565 7.13373C34.596 7.13373 36.006 5.72365 36.006 3.98422C36.006 2.2448 34.596 0.834717 32.8565 0.834717C31.1171 0.834717 29.707 2.2448 29.707 3.98422C29.707 5.72365 31.1171 7.13373 32.8565 7.13373Z" fill="#FFC65F"/>
<path d="M38.2334 16.443C39.3676 16.443 40.287 15.5235 40.287 14.3893C40.287 13.2551 39.3676 12.3356 38.2334 12.3356C37.0991 12.3356 36.1797 13.2551 36.1797 14.3893C36.1797 15.5235 37.0991 16.443 38.2334 16.443Z" fill="#FFC65F"/>
<path d="M23.5915 23.2295C23.9932 23.2295 24.3688 23.3058 24.7183 23.4584C25.0678 23.6071 25.3732 23.812 25.6343 24.0731C25.8954 24.3302 26.1003 24.6355 26.2489 24.989C26.4016 25.3385 26.4779 25.7122 26.4779 26.1099C26.4779 26.5076 26.4016 26.8792 26.2489 27.2247C26.1003 27.5702 25.8954 27.8735 25.6343 28.1346C25.3732 28.3917 25.0658 28.5946 24.7123 28.7432C24.3628 28.8919 23.9872 28.9662 23.5854 28.9662H22.0368V30.2979C22.0368 30.3863 22.0187 30.4707 21.9825 30.551C21.9504 30.6313 21.9042 30.6996 21.8439 30.7559C21.7837 30.8121 21.7134 30.8583 21.633 30.8945C21.5567 30.9266 21.4723 30.9427 21.3799 30.9427C21.2916 30.9427 21.2072 30.9266 21.1269 30.8945C21.0465 30.8583 20.9762 30.8121 20.9159 30.7559C20.8597 30.6996 20.8135 30.6313 20.7773 30.551C20.7452 30.4707 20.7291 30.3863 20.7291 30.2979V23.8863C20.7291 23.7939 20.7452 23.7075 20.7773 23.6272C20.8135 23.5468 20.8597 23.4785 20.9159 23.4223C20.9762 23.362 21.0465 23.3158 21.1269 23.2837C21.2072 23.2475 21.2916 23.2295 21.3799 23.2295H23.5915ZM22.0368 24.5371V27.6585H23.6096C23.8265 27.6585 24.0294 27.6164 24.2182 27.532C24.411 27.4476 24.5777 27.3351 24.7183 27.1945C24.8589 27.0499 24.9694 26.8852 25.0498 26.7004C25.1301 26.5116 25.1703 26.3147 25.1703 26.1099C25.1703 25.905 25.1281 25.7081 25.0437 25.5193C24.9634 25.3305 24.8529 25.1638 24.7123 25.0192C24.5717 24.8705 24.407 24.754 24.2182 24.6697C24.0294 24.5813 23.8265 24.5371 23.6096 24.5371H22.0368ZM26.9149 28.1406C26.9149 27.7429 26.9912 27.3713 27.1439 27.0258C27.2965 26.6763 27.5034 26.371 27.7645 26.1099C28.0257 25.8487 28.329 25.6439 28.6745 25.4952C29.024 25.3426 29.3956 25.2662 29.7893 25.2662C30.187 25.2662 30.5606 25.3426 30.9101 25.4952C31.2596 25.6439 31.5629 25.8487 31.82 26.1099C32.0811 26.371 32.286 26.6763 32.4347 27.0258C32.5833 27.3713 32.6576 27.7429 32.6576 28.1406V30.2738C32.6576 30.3662 32.6396 30.4526 32.6034 30.5329C32.5713 30.6133 32.5251 30.6836 32.4648 30.7438C32.4045 30.8041 32.3322 30.8523 32.2479 30.8885C32.1675 30.9246 32.0811 30.9427 31.9887 30.9427C31.8321 30.9427 31.6995 30.8965 31.591 30.8041C31.4826 30.7117 31.4103 30.5952 31.3741 30.4546C31.1451 30.6273 30.896 30.7639 30.6269 30.8644C30.3617 30.9648 30.0825 31.015 29.7893 31.015C29.3956 31.015 29.024 30.9407 28.6745 30.792C28.329 30.6394 28.0257 30.4325 27.7645 30.1714C27.5034 29.9102 27.2965 29.6049 27.1439 29.2554C26.9912 28.9059 26.9149 28.5343 26.9149 28.1406ZM28.2225 28.1406C28.2225 28.3535 28.2627 28.5564 28.343 28.7492C28.4274 28.9381 28.5399 29.1048 28.6805 29.2494C28.8251 29.39 28.9918 29.5025 29.1806 29.5868C29.3695 29.6672 29.5723 29.7074 29.7893 29.7074C30.0062 29.7074 30.2091 29.6672 30.3979 29.5868C30.5907 29.5025 30.7574 29.39 30.898 29.2494C31.0387 29.1048 31.1491 28.9381 31.2295 28.7492C31.3098 28.5564 31.35 28.3535 31.35 28.1406C31.35 27.9237 31.3098 27.7208 31.2295 27.532C31.1491 27.3392 31.0387 27.1724 30.898 27.0318C30.7574 26.8912 30.5907 26.7808 30.3979 26.7004C30.2091 26.616 30.0062 26.5739 29.7893 26.5739C29.5764 26.5739 29.3735 26.616 29.1806 26.7004C28.9918 26.7808 28.8251 26.8912 28.6805 27.0318C28.5399 27.1724 28.4274 27.3392 28.343 27.532C28.2627 27.7208 28.2225 27.9237 28.2225 28.1406ZM35.0725 30.2979C35.0725 30.3863 35.0565 30.4707 35.0243 30.551C34.9922 30.6313 34.946 30.6996 34.8857 30.7559C34.8295 30.8121 34.7632 30.8583 34.6869 30.8945C34.6105 30.9266 34.5282 30.9427 34.4398 30.9427C34.3474 30.9427 34.259 30.9266 34.1747 30.8945C34.0943 30.8583 34.024 30.8121 33.9638 30.7559C33.9035 30.6996 33.8553 30.6313 33.8191 30.551C33.783 30.4707 33.7649 30.3863 33.7649 30.2979V28.3515C33.7649 27.9377 33.8432 27.5481 33.9999 27.1825C34.1606 26.8169 34.3775 26.4975 34.6507 26.2244C34.9239 25.9512 35.2433 25.7363 35.6088 25.5796C35.9744 25.4189 36.3621 25.3385 36.7719 25.3385H36.7839C37.0008 25.3385 37.1676 25.4008 37.2841 25.5253C37.4046 25.6459 37.4648 25.8005 37.4648 25.9893C37.4648 26.0817 37.4468 26.1681 37.4106 26.2485C37.3745 26.3288 37.3242 26.3991 37.26 26.4594C37.1997 26.5156 37.1274 26.5618 37.043 26.598C36.9627 26.6301 36.8763 26.6462 36.7839 26.6462H36.7719C36.5429 26.6462 36.3239 26.6904 36.115 26.7787C35.9101 26.8671 35.7314 26.9876 35.5787 27.1403C35.4261 27.293 35.3035 27.4717 35.2111 27.6766C35.1187 27.8815 35.0725 28.1004 35.0725 28.3334V30.2979ZM39.1305 28.7251C39.1827 28.8738 39.255 29.0104 39.3474 29.1349C39.4438 29.2554 39.5543 29.3599 39.6788 29.4482C39.8034 29.5326 39.9399 29.5989 40.0886 29.6471C40.2372 29.6913 40.3939 29.7134 40.5586 29.7134C40.9724 29.7134 41.2978 29.6049 41.5348 29.388C41.6152 29.3317 41.6935 29.2916 41.7698 29.2675C41.8462 29.2393 41.9185 29.2253 41.9868 29.2253C42.0992 29.2253 42.1997 29.2554 42.2881 29.3157C42.3764 29.3719 42.4488 29.4462 42.505 29.5386C42.5452 29.6029 42.5733 29.6732 42.5894 29.7495C42.6094 29.8219 42.6135 29.8962 42.6014 29.9725C42.5934 30.0488 42.5693 30.1252 42.5291 30.2015C42.4929 30.2738 42.4367 30.3401 42.3604 30.4004C42.272 30.4807 42.1716 30.559 42.0591 30.6354C41.9466 30.7077 41.816 30.772 41.6674 30.8282C41.5228 30.8844 41.3581 30.9286 41.1733 30.9608C40.9925 30.9969 40.7876 31.015 40.5586 31.015C40.1609 31.015 39.7873 30.9407 39.4378 30.792C39.0883 30.6394 38.783 30.4325 38.5218 30.1714C38.2607 29.9102 38.0538 29.6069 37.9012 29.2614C37.7485 28.9119 37.6722 28.5383 37.6722 28.1406C37.6722 27.7429 37.7485 27.3693 37.9012 27.0198C38.0538 26.6703 38.2607 26.367 38.5218 26.1099C38.783 25.8487 39.0883 25.6439 39.4378 25.4952C39.7873 25.3426 40.1609 25.2662 40.5586 25.2662C40.9523 25.2662 41.3219 25.3406 41.6674 25.4892C42.0169 25.6378 42.3222 25.8407 42.5833 26.0978C42.8485 26.3509 43.0574 26.6502 43.21 26.9957C43.3667 27.3412 43.4471 27.7108 43.4511 28.1045C43.4511 28.2893 43.3908 28.4399 43.2703 28.5564C43.1538 28.6689 42.9991 28.7251 42.8063 28.7251H39.1305ZM42.1073 27.6405C42.0631 27.4758 41.9928 27.3271 41.8964 27.1945C41.804 27.062 41.6915 26.9495 41.5589 26.8571C41.4263 26.7647 41.2777 26.6944 41.113 26.6462C40.9483 26.598 40.7735 26.5739 40.5887 26.5739C40.4039 26.5739 40.2292 26.6 40.0645 26.6522C39.9038 26.7004 39.7572 26.7727 39.6246 26.8691C39.496 26.9615 39.3856 27.074 39.2932 27.2066C39.2008 27.3351 39.1325 27.4798 39.0883 27.6405H42.1073ZM49.6215 30.31C49.6215 30.4024 49.6034 30.4887 49.5672 30.5691C49.5351 30.6454 49.4909 30.7137 49.4347 30.774C49.3784 30.8302 49.3101 30.8744 49.2298 30.9065C49.1535 30.9387 49.0711 30.9547 48.9827 30.9547C48.8943 30.9547 48.808 30.9387 48.7236 30.9065C48.6433 30.8744 48.573 30.8302 48.5127 30.774C48.4524 30.7137 48.4042 30.6454 48.3681 30.5691C48.3319 30.4887 48.3138 30.4024 48.3138 30.31V28.0683C48.3138 28.0362 48.3158 28.0121 48.3199 27.996C48.3118 27.7991 48.2717 27.6143 48.1993 27.4416C48.127 27.2689 48.0286 27.1182 47.9041 26.9897C47.7795 26.8611 47.6329 26.7607 47.4642 26.6884C47.2995 26.612 47.1167 26.5739 46.9158 26.5739C46.7109 26.5739 46.5221 26.612 46.3494 26.6884C46.1766 26.7607 46.028 26.8631 45.9034 26.9957C45.7829 27.1283 45.6865 27.2849 45.6142 27.4657C45.5459 27.6425 45.5118 27.8333 45.5118 28.0382V30.31C45.5118 30.4024 45.4957 30.4887 45.4636 30.5691C45.4314 30.6454 45.3852 30.7137 45.325 30.774C45.2687 30.8302 45.2024 30.8744 45.1261 30.9065C45.0498 30.9387 44.9654 30.9547 44.873 30.9547C44.7846 30.9547 44.7003 30.9387 44.6199 30.9065C44.5396 30.8744 44.4673 30.8302 44.403 30.774C44.3427 30.7137 44.2945 30.6454 44.2584 30.5691C44.2222 30.4887 44.2041 30.4024 44.2041 30.31V28.0382C44.2041 27.6525 44.2724 27.293 44.409 26.9595C44.5496 26.6221 44.7404 26.3288 44.9815 26.0797C45.2265 25.8266 45.5138 25.6278 45.8432 25.4832C46.1766 25.3385 46.5342 25.2662 46.9158 25.2662C47.3015 25.2662 47.659 25.3385 47.9884 25.4832C48.3179 25.6278 48.6031 25.8266 48.8441 26.0797C49.0852 26.3288 49.274 26.6221 49.4106 26.9595C49.5512 27.293 49.6215 27.6525 49.6215 28.0382V30.31ZM52.0159 25.3385H54.113C54.2054 25.3385 54.2917 25.3566 54.3721 25.3928C54.4524 25.4249 54.5227 25.4711 54.583 25.5314C54.6433 25.5916 54.6895 25.6619 54.7216 25.7423C54.7578 25.8226 54.7758 25.909 54.7758 26.0014C54.7758 26.0898 54.7578 26.1741 54.7216 26.2545C54.6895 26.3308 54.6433 26.3991 54.583 26.4594C54.5227 26.5156 54.4524 26.5618 54.3721 26.598C54.2917 26.6301 54.2054 26.6462 54.113 26.6462H52.0159V28.1707C52.0159 28.3837 52.0561 28.5845 52.1365 28.7733C52.2208 28.9581 52.3333 29.1208 52.4739 29.2614C52.6145 29.398 52.7792 29.5065 52.968 29.5868C53.1609 29.6672 53.3658 29.7074 53.5827 29.7074C53.7755 29.7074 53.9543 29.6813 54.119 29.629C54.2837 29.5728 54.4364 29.4824 54.577 29.3579C54.6453 29.2936 54.7216 29.2414 54.806 29.2012C54.8903 29.157 54.9787 29.1349 55.0711 29.1349C55.2197 29.1349 55.3543 29.1891 55.4748 29.2976C55.5472 29.3619 55.5974 29.4382 55.6255 29.5266C55.6576 29.615 55.6697 29.7074 55.6617 29.8038C55.6576 29.8962 55.6355 29.9866 55.5954 30.0749C55.5552 30.1633 55.4989 30.2417 55.4266 30.31C55.1856 30.543 54.9084 30.7197 54.5951 30.8402C54.2817 30.9567 53.9443 31.015 53.5827 31.015C53.185 31.015 52.8114 30.9407 52.4619 30.792C52.1164 30.6434 51.8131 30.4405 51.5519 30.1834C51.2908 29.9263 51.0839 29.625 50.9313 29.2795C50.7826 28.93 50.7083 28.5564 50.7083 28.1587V24.29C50.7083 24.1976 50.7264 24.1113 50.7625 24.0309C50.7987 23.9506 50.8469 23.8803 50.9072 23.82C50.9674 23.7597 51.0377 23.7135 51.1181 23.6814C51.1984 23.6452 51.2828 23.6272 51.3712 23.6272C51.4595 23.6272 51.5419 23.6452 51.6182 23.6814C51.6986 23.7135 51.7669 23.7597 51.8231 23.82C51.8834 23.8803 51.9296 23.9506 51.9617 24.0309C51.9979 24.1113 52.0159 24.1976 52.0159 24.29V25.3385ZM56.4532 24.0068C56.4532 23.9064 56.4713 23.812 56.5075 23.7236C56.5476 23.6352 56.5998 23.5589 56.6641 23.4946C56.7284 23.4303 56.8047 23.3801 56.8931 23.3439C56.9815 23.3038 57.0739 23.2837 57.1703 23.2837C57.2667 23.2837 57.3591 23.3038 57.4475 23.3439C57.5359 23.3801 57.6122 23.4303 57.6765 23.4946C57.7448 23.5589 57.797 23.6352 57.8332 23.7236C57.8733 23.812 57.8934 23.9064 57.8934 24.0068C57.8934 24.1032 57.8733 24.1956 57.8332 24.284C57.797 24.3684 57.7448 24.4427 57.6765 24.507C57.6122 24.5712 57.5359 24.6235 57.4475 24.6636C57.3591 24.6998 57.2667 24.7179 57.1703 24.7179C57.0739 24.7179 56.9815 24.6998 56.8931 24.6636C56.8047 24.6235 56.7284 24.5712 56.6641 24.507C56.5998 24.4427 56.5476 24.3684 56.5075 24.284C56.4713 24.1956 56.4532 24.1032 56.4532 24.0068ZM57.8271 30.2919C57.8271 30.3803 57.8091 30.4646 57.7729 30.545C57.7408 30.6253 57.6946 30.6956 57.6343 30.7559C57.5781 30.8121 57.5098 30.8583 57.4294 30.8945C57.3531 30.9266 57.2687 30.9427 57.1763 30.9427C57.088 30.9427 57.0036 30.9266 56.9232 30.8945C56.8429 30.8583 56.7726 30.8121 56.7123 30.7559C56.6521 30.6956 56.6039 30.6253 56.5677 30.545C56.5356 30.4646 56.5195 30.3803 56.5195 30.2919V25.9893C56.5195 25.901 56.5376 25.8186 56.5737 25.7423C56.6099 25.6619 56.6581 25.5916 56.7184 25.5314C56.7786 25.4711 56.8489 25.4249 56.9293 25.3928C57.0096 25.3566 57.096 25.3385 57.1884 25.3385C57.2808 25.3385 57.3651 25.3566 57.4415 25.3928C57.5178 25.4249 57.5841 25.4711 57.6403 25.5314C57.7006 25.5916 57.7468 25.6619 57.7789 25.7423C57.8111 25.8186 57.8271 25.901 57.8271 25.9893V30.2919ZM64.4628 30.31C64.4628 30.4024 64.4447 30.4887 64.4085 30.5691C64.3764 30.6454 64.3322 30.7137 64.276 30.774C64.2197 30.8302 64.1514 30.8744 64.0711 30.9065C63.9947 30.9387 63.9124 30.9547 63.824 30.9547C63.7356 30.9547 63.6493 30.9387 63.5649 30.9065C63.4845 30.8744 63.4142 30.8302 63.354 30.774C63.2937 30.7137 63.2455 30.6454 63.2094 30.5691C63.1732 30.4887 63.1551 30.4024 63.1551 30.31V28.0683C63.1551 28.0362 63.1571 28.0121 63.1612 27.996C63.1531 27.7991 63.1129 27.6143 63.0406 27.4416C62.9683 27.2689 62.8699 27.1182 62.7454 26.9897C62.6208 26.8611 62.4742 26.7607 62.3055 26.6884C62.1408 26.612 61.958 26.5739 61.7571 26.5739C61.5522 26.5739 61.3634 26.612 61.1907 26.6884C61.0179 26.7607 60.8693 26.8631 60.7447 26.9957C60.6242 27.1283 60.5278 27.2849 60.4555 27.4657C60.3872 27.6425 60.3531 27.8333 60.3531 28.0382V30.31C60.3531 30.4024 60.337 30.4887 60.3048 30.5691C60.2727 30.6454 60.2265 30.7137 60.1662 30.774C60.11 30.8302 60.0437 30.8744 59.9674 30.9065C59.8911 30.9387 59.8067 30.9547 59.7143 30.9547C59.6259 30.9547 59.5416 30.9387 59.4612 30.9065C59.3809 30.8744 59.3086 30.8302 59.2443 30.774C59.184 30.7137 59.1358 30.6454 59.0997 30.5691C59.0635 30.4887 59.0454 30.4024 59.0454 30.31V28.0382C59.0454 27.6525 59.1137 27.293 59.2503 26.9595C59.3909 26.6221 59.5817 26.3288 59.8228 26.0797C60.0678 25.8266 60.3551 25.6278 60.6845 25.4832C61.0179 25.3385 61.3755 25.2662 61.7571 25.2662C62.1428 25.2662 62.5003 25.3385 62.8297 25.4832C63.1591 25.6278 63.4444 25.8266 63.6854 26.0797C63.9264 26.3288 64.1153 26.6221 64.2519 26.9595C64.3925 27.293 64.4628 27.6525 64.4628 28.0382V30.31ZM65.2362 28.1406C65.2362 27.7429 65.3126 27.3713 65.4652 27.0258C65.6179 26.6763 65.8248 26.371 66.0859 26.1099C66.347 25.8487 66.6503 25.6439 66.9958 25.4952C67.3453 25.3426 67.7169 25.2662 68.1106 25.2662C68.5083 25.2662 68.882 25.3426 69.2315 25.4952C69.581 25.6439 69.8843 25.8487 70.1414 26.1099C70.4025 26.371 70.6074 26.6763 70.756 27.0258C70.9047 27.3713 70.979 27.7429 70.979 28.1406C70.979 28.4339 70.9368 28.7131 70.8524 28.9782C70.7721 29.2393 70.6576 29.4844 70.509 29.7134C70.6456 29.862 70.758 30.0488 70.8464 30.2738C70.9348 30.4988 70.979 30.776 70.979 31.1054C70.979 31.4669 70.9187 31.7803 70.7982 32.0454C70.6817 32.3106 70.525 32.5295 70.3282 32.7023C70.1354 32.879 69.9104 33.0096 69.6533 33.094C69.4002 33.1783 69.1371 33.2205 68.8639 33.2205C68.7434 33.2205 68.6208 33.2145 68.4963 33.2024C68.3758 33.1904 68.2573 33.1843 68.1408 33.1843C67.9841 33.1843 67.8435 33.2044 67.7189 33.2446C67.5984 33.2848 67.4759 33.3551 67.3514 33.4555C67.2389 33.5519 67.1083 33.6001 66.9597 33.6001C66.8351 33.6001 66.7146 33.564 66.5981 33.4917C66.4816 33.4234 66.3932 33.335 66.333 33.2265C66.2727 33.1181 66.2486 32.9955 66.2607 32.8589C66.2767 32.7264 66.351 32.5938 66.4836 32.4612C66.6082 32.3407 66.7468 32.2443 66.8994 32.172C67.0561 32.0997 67.2188 32.0434 67.3875 32.0033C67.5562 31.9671 67.727 31.943 67.8997 31.9309C68.0725 31.9189 68.2412 31.9129 68.4059 31.9129C68.6389 31.9129 68.8358 31.8968 68.9964 31.8647C69.1571 31.8365 69.2877 31.7903 69.3881 31.7261C69.4886 31.6618 69.5609 31.5794 69.6051 31.479C69.6493 31.3786 69.6714 31.258 69.6714 31.1174C69.6714 30.9849 69.6553 30.8824 69.6231 30.8101C69.595 30.7378 69.5649 30.6796 69.5328 30.6354C69.3239 30.7559 69.0989 30.8483 68.8579 30.9126C68.6208 30.9768 68.3718 31.009 68.1106 31.009C67.7169 31.009 67.3453 30.9347 66.9958 30.786C66.6503 30.6334 66.347 30.4285 66.0859 30.1714C65.8248 29.9102 65.6179 29.6049 65.4652 29.2554C65.3126 28.9059 65.2362 28.5343 65.2362 28.1406ZM66.5439 28.1406C66.5439 28.3535 66.5841 28.5544 66.6644 28.7432C66.7488 28.932 66.8612 29.0967 67.0019 29.2373C67.1465 29.3779 67.3132 29.4904 67.502 29.5748C67.6908 29.6551 67.8937 29.6953 68.1106 29.6953C68.3276 29.6953 68.5304 29.6551 68.7193 29.5748C68.9121 29.4904 69.0788 29.3779 69.2194 29.2373C69.36 29.0967 69.4705 28.932 69.5508 28.7432C69.6312 28.5544 69.6714 28.3535 69.6714 28.1406C69.6714 27.9237 69.6312 27.7208 69.5508 27.532C69.4705 27.3392 69.36 27.1724 69.2194 27.0318C69.0788 26.8912 68.9121 26.7808 68.7193 26.7004C68.5304 26.616 68.3276 26.5739 68.1106 26.5739C67.8977 26.5739 67.6948 26.616 67.502 26.7004C67.3132 26.7808 67.1465 26.8912 67.0019 27.0318C66.8612 27.1724 66.7488 27.3392 66.6644 27.532C66.5841 27.7208 66.5439 27.9237 66.5439 28.1406Z" fill="#D55FAD"/>
</svg>
