<svg width="195" height="63" viewBox="0 0 195 63" fill="none" xmlns="http://www.w3.org/2000/svg">
<path d="M125.272 55.3363C125.272 55.8185 125.372 56.2979 125.575 56.7715C125.774 57.2451 126.048 57.6674 126.391 58.0441C126.736 58.4207 127.138 58.726 127.6 58.9628C128.063 59.1996 128.562 59.3223 129.096 59.3337C129.652 59.3337 130.143 59.2653 130.568 59.1254C130.993 58.9856 131.424 58.7374 131.855 58.3779C132.06 58.2038 132.288 58.0412 132.542 57.8928C132.793 57.7445 133.07 57.6703 133.367 57.6703C133.541 57.6703 133.726 57.7102 133.923 57.7873C134.117 57.8643 134.32 57.9899 134.525 58.1639C134.699 58.318 134.831 58.5006 134.919 58.7117C135.007 58.9229 135.047 59.1426 135.042 59.3765C135.036 59.6076 134.985 59.8359 134.888 60.0642C134.791 60.2924 134.642 60.5064 134.448 60.7119C133.809 61.3595 133.053 61.8532 132.174 62.1927C131.295 62.5322 130.371 62.7006 129.407 62.7006C128.379 62.7006 127.412 62.5123 126.508 62.1385C125.603 61.7619 124.81 61.2454 124.131 60.5892C123.452 59.9329 122.918 59.1568 122.527 58.2666C122.136 57.3764 121.942 56.4177 121.942 55.3905C121.954 55.3791 121.957 55.3706 121.957 55.3591H121.942C121.942 54.332 122.136 53.3676 122.527 52.4688C122.918 51.57 123.452 50.7882 124.131 50.1234C124.81 49.4586 125.6 48.9393 126.508 48.557C127.412 48.1775 128.379 47.9863 129.407 47.9863C130.374 47.9863 131.295 48.149 132.174 48.4714C133.053 48.7967 133.812 49.2817 134.448 49.9294C134.642 50.1234 134.793 50.3374 134.896 50.5685C134.999 50.7996 135.053 51.0308 135.059 51.2619C135.065 51.493 135.022 51.7155 134.928 51.9267C134.836 52.1378 134.696 52.3261 134.511 52.4888C134.306 52.6628 134.112 52.7884 133.926 52.8597C133.741 52.931 133.561 52.9681 133.387 52.9681C133.087 52.9681 132.813 52.8939 132.562 52.7456C132.311 52.5972 132.077 52.4346 131.86 52.2605C131.429 51.9324 131.001 51.6956 130.579 51.55C130.157 51.4045 129.715 51.3332 129.252 51.3332C128.727 51.3332 128.225 51.4416 127.74 51.6585C127.258 51.8753 126.836 52.1664 126.476 52.5373C126.117 52.9082 125.829 53.3333 125.612 53.8184C125.395 54.3006 125.286 54.8056 125.286 55.3306L125.272 55.3449V55.3363Z" fill="#845DC2"/>
<path d="M136.562 55.3361C136.562 54.3175 136.757 53.3645 137.147 52.4743C137.538 51.5841 138.066 50.8051 138.737 50.1375C139.407 49.4698 140.183 48.9419 141.073 48.5567C141.964 48.1716 142.911 47.9775 143.918 47.9775C144.925 47.9775 145.893 48.1716 146.786 48.5567C147.682 48.9419 148.461 49.4698 149.123 50.1375C149.784 50.8051 150.307 51.5841 150.689 52.4743C151.068 53.3645 151.26 54.3175 151.26 55.3361C151.26 56.3547 151.068 57.2963 150.689 58.1893C150.309 59.0824 149.787 59.8671 149.123 60.5347C148.458 61.2024 147.682 61.7302 146.786 62.1154C145.89 62.5006 144.934 62.6946 143.918 62.6946C142.902 62.6946 141.961 62.5006 141.073 62.1154C140.183 61.7302 139.404 61.2024 138.737 60.5347C138.069 59.8671 137.538 59.0853 137.147 58.1893C136.757 57.2934 136.562 56.3433 136.562 55.3361ZM139.909 55.3361C139.909 55.8811 140.015 56.3975 140.226 56.8854C140.437 57.3733 140.725 57.8013 141.091 58.1665C141.456 58.5317 141.878 58.8199 142.363 59.0311C142.845 59.2422 143.365 59.3478 143.921 59.3478C144.477 59.3478 144.997 59.2422 145.487 59.0311C145.978 58.8199 146.401 58.5317 146.76 58.1665C147.12 57.8013 147.402 57.3733 147.607 56.8854C147.813 56.3975 147.916 55.8811 147.916 55.3361C147.916 54.7911 147.813 54.2604 147.607 53.7697C147.402 53.2817 147.12 52.8566 146.76 52.4971C146.401 52.1376 145.975 51.8523 145.487 51.6411C145 51.43 144.477 51.3244 143.921 51.3244C143.365 51.3244 142.86 51.43 142.372 51.6411C141.884 51.8523 141.456 52.1376 141.091 52.4971C140.725 52.8566 140.437 53.2817 140.226 53.7697C140.015 54.2576 139.909 54.7797 139.909 55.3361Z" fill="#845DC2"/>
<path d="M156.598 60.8743C156.598 61.3366 156.441 61.7246 156.127 62.0385C155.813 62.3523 155.425 62.5093 154.963 62.5093C154.738 62.5093 154.521 62.4665 154.315 62.378C154.11 62.2924 153.927 62.1754 153.768 62.0299C153.608 61.8872 153.482 61.7132 153.391 61.5135C153.297 61.3137 153.251 61.0997 153.251 60.8743V53.6099C153.251 52.8396 153.402 52.112 153.705 51.4272C154.007 50.7424 154.421 50.1461 154.946 49.6382C155.471 49.1303 156.079 48.7252 156.772 48.4284C157.465 48.1317 158.199 47.9805 158.969 47.9805C159.74 47.9805 160.524 48.1345 161.229 48.4427C161.934 48.7508 162.553 49.1731 163.089 49.7067C163.623 49.1731 164.248 48.7508 164.964 48.4427C165.68 48.1345 166.436 47.9805 167.238 47.9805C168.04 47.9805 168.75 48.126 169.429 48.4113C170.108 48.6995 170.705 49.0961 171.218 49.5983C171.732 50.1033 172.143 50.6882 172.451 51.3559C172.759 52.0235 172.93 52.7397 172.959 53.4987C172.959 53.5186 172.959 53.5443 172.967 53.5671C172.973 53.5928 172.976 53.6156 172.976 53.6356V60.8715C172.976 61.0969 172.933 61.3109 172.845 61.5106C172.756 61.7103 172.639 61.8844 172.491 62.0271C172.342 62.1726 172.168 62.2867 171.974 62.3751C171.78 62.4636 171.569 62.5064 171.341 62.5064C171.113 62.5064 170.896 62.4636 170.685 62.3751C170.473 62.2896 170.291 62.1726 170.137 62.0271C169.983 61.8844 169.86 61.7103 169.766 61.5106C169.672 61.3109 169.626 61.0969 169.626 60.8715V53.59C169.615 53.2618 169.543 52.9565 169.409 52.6798C169.275 52.403 169.098 52.1633 168.879 51.9636C168.656 51.7639 168.405 51.607 168.122 51.4928C167.84 51.3816 167.532 51.3245 167.204 51.3245C166.876 51.3245 166.562 51.3873 166.262 51.5099C165.962 51.6326 165.706 51.801 165.483 52.0121C165.261 52.2233 165.087 52.4686 164.958 52.754C164.83 53.0393 164.764 53.3417 164.764 53.6727V60.8772C164.764 61.3394 164.607 61.7275 164.293 62.0413C163.979 62.3552 163.591 62.5121 163.129 62.5121C162.904 62.5121 162.687 62.4693 162.482 62.3809C162.276 62.2953 162.093 62.1783 161.934 62.0328C161.774 61.8901 161.648 61.716 161.557 61.5163C161.463 61.3166 161.417 61.1026 161.417 60.8772V53.6128C161.406 53.2847 161.337 52.9765 161.209 52.694C161.081 52.4116 160.909 52.169 160.693 51.9693C160.476 51.7696 160.225 51.6127 159.936 51.4985C159.648 51.3873 159.34 51.3302 159.012 51.3302C158.684 51.3302 158.373 51.3901 158.079 51.5071C157.785 51.6241 157.528 51.7896 157.309 52.0007C157.086 52.2118 156.912 52.4544 156.784 52.734C156.655 53.0108 156.59 53.3104 156.59 53.6299V60.88L156.598 60.8743Z" fill="#845DC2"/>
<path d="M115.263 62.6945C117.124 62.6945 118.633 61.1858 118.633 59.3248C118.633 57.4637 117.124 55.9551 115.263 55.9551C113.402 55.9551 111.893 57.4637 111.893 59.3248C111.893 61.1858 113.402 62.6945 115.263 62.6945Z" fill="#845DC2"/>
<path d="M0 6.47957C0 5.9831 0.088451 5.52087 0.265353 5.09574C0.442255 4.6706 0.679075 4.29683 0.98152 3.97726C1.28111 3.65484 1.64062 3.40661 2.05434 3.22971C2.46807 3.05281 2.91318 2.96436 3.39252 2.96436C3.87187 2.96436 4.3398 3.05281 4.74497 3.22971C5.15013 3.40661 5.50108 3.65484 5.80067 3.97726C6.10026 4.29968 6.33423 4.6706 6.49972 5.09574C6.66521 5.52087 6.74795 5.9831 6.74795 6.47957V16.1806C7.9292 15.4131 9.1989 14.8168 10.557 14.3945C11.9152 13.9694 13.339 13.7582 14.8312 13.7582C16.8827 13.7582 18.8058 14.1463 20.5977 14.9252C22.3895 15.7013 23.9559 16.7599 25.2913 18.0952C26.6266 19.4305 27.6852 21.0026 28.4612 22.8059C29.2373 24.6092 29.6282 26.538 29.6282 28.5895C29.6282 30.6409 29.2402 32.5384 28.4612 34.3416C27.6852 36.1449 26.6266 37.7199 25.2913 39.0666C23.9531 40.4133 22.3895 41.4748 20.5977 42.2537C18.8058 43.0298 16.8827 43.4207 14.8312 43.4207C12.7797 43.4207 10.8823 43.0326 9.07906 42.2537C7.2758 41.4748 5.70081 40.4133 4.35407 39.0666C3.00733 37.7199 1.94592 36.1449 1.16698 34.3416C0.390896 32.5384 0 30.621 0 28.5895L0 6.47957ZM6.74795 28.5837C6.74795 29.6823 6.95909 30.7237 7.38423 31.7081C7.80936 32.6924 8.38857 33.5541 9.12471 34.2874C9.86086 35.0235 10.714 35.6028 11.6898 36.0279C12.6628 36.453 13.7099 36.6642 14.8284 36.6642C15.9469 36.6642 16.994 36.453 17.967 36.0279C18.9399 35.6028 19.7959 35.0235 20.532 34.2874C21.2682 33.5513 21.8417 32.6924 22.2583 31.7081C22.672 30.7237 22.8803 29.6823 22.8803 28.5837C22.8803 27.4852 22.672 26.4124 22.2583 25.428C21.8445 24.4437 21.2682 23.5877 20.532 22.863C19.7959 22.1382 18.9399 21.5619 17.967 21.1367C16.994 20.7116 15.9469 20.5005 14.8284 20.5005C13.7099 20.5005 12.6628 20.7145 11.6898 21.1367C10.714 21.5619 9.86086 22.1354 9.12471 22.863C8.38857 23.5877 7.80936 24.4437 7.38423 25.428C6.95909 26.4124 6.74795 27.4653 6.74795 28.5837Z" fill="#845DC2"/>
<path d="M32.3645 28.5866C32.3645 26.5351 32.7583 24.612 33.5458 22.8202C34.3332 21.0283 35.4004 19.459 36.7471 18.1094C38.0938 16.7627 39.6631 15.7013 41.4578 14.9224C43.2497 14.1463 45.1614 13.7554 47.1929 13.7554C49.2244 13.7554 51.1732 14.1434 52.9764 14.9224C54.7797 15.6984 56.349 16.7627 57.6872 18.1094C59.0225 19.4562 60.0753 21.0283 60.8429 22.8202C61.6104 24.612 61.9927 26.5351 61.9927 28.5866V39.5916C61.9927 40.0681 61.9043 40.5132 61.7274 40.9298C61.5505 41.3435 61.3079 41.7059 60.9969 42.0169C60.6859 42.3279 60.3179 42.5761 59.8927 42.7644C59.4676 42.9499 59.0168 43.0441 58.5403 43.0441C57.7328 43.0441 57.048 42.8072 56.4888 42.3279C55.9295 41.8514 55.5558 41.2522 55.3703 40.5246C54.1891 41.4148 52.908 42.1196 51.5298 42.6389C50.1517 43.1553 48.7051 43.415 47.1929 43.415C45.1614 43.415 43.2497 43.0269 41.4578 42.248C39.666 41.4691 38.0938 40.4076 36.7471 39.0609C35.4004 37.7142 34.3332 36.1392 33.5458 34.3359C32.7583 32.5327 32.3645 30.6153 32.3645 28.5837V28.5866ZM39.1096 28.5866C39.1096 29.6851 39.3207 30.7265 39.7459 31.7109C40.171 32.6953 40.7502 33.557 41.4864 34.2903C42.2225 35.0264 43.0756 35.6056 44.0514 36.0307C45.0244 36.4559 46.0715 36.667 47.1929 36.667C48.3142 36.667 49.3642 36.4559 50.3486 36.0307C51.333 35.6056 52.1889 35.0264 52.9137 34.2903C53.6384 33.5541 54.209 32.6953 54.6228 31.7109C55.0365 30.7265 55.2448 29.6851 55.2448 28.5866C55.2448 27.4881 55.0365 26.4153 54.6228 25.4309C54.209 24.4465 53.6384 23.5905 52.9137 22.8658C52.1889 22.1411 51.333 21.5647 50.3486 21.1396C49.3642 20.7145 48.3114 20.5033 47.1929 20.5033C46.0744 20.5033 45.0529 20.7173 44.0686 21.1396C43.0842 21.5647 42.2225 22.1382 41.4892 22.8658C40.7531 23.5905 40.1739 24.4465 39.7487 25.4309C39.3236 26.4153 39.1125 27.4681 39.1125 28.5866H39.1096Z" fill="#D55FAD"/>
<path d="M73.1491 32.4157C73.56 33.3002 74.1477 34.0906 74.9153 34.7839C75.6828 35.4801 76.5416 36.0251 77.4889 36.4188C78.4362 36.8126 79.4348 37.0294 80.482 37.0694C81.5291 37.1093 82.5449 36.9124 83.5321 36.4787C84.5479 36.008 85.3867 35.4658 86.0487 34.8495C86.7106 34.2332 87.2841 33.4143 87.7692 32.39C87.9974 31.8964 88.2771 31.4056 88.6109 30.9206C88.9447 30.4355 89.3841 30.0646 89.9291 29.8135C90.2487 29.6652 90.6196 29.5796 91.0419 29.5539C91.4641 29.5282 91.9378 29.5881 92.4628 29.7336C92.9136 29.8677 93.3073 30.0903 93.6469 30.4013C93.9864 30.7123 94.2489 31.0832 94.4344 31.5084C94.6198 31.9364 94.7226 32.3986 94.734 32.895C94.7482 33.3915 94.6626 33.9108 94.48 34.4529C93.8637 36.1791 92.8965 37.7228 91.5754 39.0895C90.2544 40.4562 88.7108 41.549 86.9446 42.3679C85.0643 43.241 83.1383 43.7175 81.1639 43.7973C79.1923 43.8801 77.3063 43.6062 75.5059 42.9785C73.7055 42.3507 72.0734 41.3892 70.604 40.0938C69.1346 38.7984 67.9647 37.212 67.0916 35.3317C67.1002 35.3061 67.103 35.2804 67.0916 35.2633L67.0631 35.2775C66.19 33.3972 65.7306 31.4684 65.6821 29.494C65.6336 27.5167 65.9475 25.6335 66.6265 23.8474C67.3056 22.0584 68.31 20.4349 69.6424 18.9712C70.9749 17.5074 72.5813 16.3405 74.4616 15.4674C76.2278 14.6485 78.0538 14.1606 79.937 14.0065C81.8201 13.8524 83.6177 14.0978 85.3325 14.7426C85.8546 14.9338 86.3083 15.1991 86.6935 15.533C87.0787 15.8697 87.3726 16.2463 87.578 16.6657C87.7834 17.0852 87.8919 17.5274 87.9004 17.9896C87.909 18.4547 87.8148 18.9141 87.6151 19.3735C87.3868 19.8671 87.1358 20.258 86.859 20.5462C86.5822 20.8343 86.2826 21.054 85.9631 21.2024C85.4181 21.4563 84.8503 21.5534 84.2654 21.4934C83.6776 21.4364 83.1127 21.3365 82.5705 21.1995C81.5034 20.9656 80.5219 20.8942 79.6288 20.9884C78.7358 21.0826 77.8655 21.3251 77.021 21.7188C76.0623 22.1639 75.232 22.7888 74.5329 23.5934C73.831 24.398 73.3089 25.2911 72.9665 26.2726C72.6212 27.2542 72.4586 28.2785 72.4729 29.3456C72.4871 30.4127 72.7183 31.4256 73.1634 32.3843L73.1491 32.4243V32.4157Z" fill="#FF6D91"/>
<path d="M125.817 39.7458C125.817 40.2024 125.729 40.6332 125.552 41.0355C125.375 41.4378 125.132 41.7916 124.821 42.0912C124.51 42.3937 124.154 42.6248 123.749 42.7903C123.343 42.9558 122.904 43.0385 122.427 43.0385C121.951 43.0385 121.54 42.9558 121.138 42.7903C120.733 42.6248 120.376 42.3908 120.065 42.0912C119.754 41.7916 119.511 41.4378 119.335 41.0355C119.158 40.6332 119.069 40.2024 119.069 39.7458V28.0703C119.069 27.999 119.081 27.9305 119.101 27.8677C119.081 26.832 118.892 25.8676 118.541 24.9774C118.188 24.0872 117.705 23.3082 117.095 22.6463C116.484 21.9843 115.754 21.4593 114.903 21.077C114.053 20.6946 113.109 20.5006 112.073 20.5006C111.037 20.5006 110.03 20.6832 109.12 21.0456C108.207 21.408 107.419 21.9158 106.757 22.5692C106.095 23.2226 105.57 23.9987 105.188 24.9003C104.806 25.802 104.612 26.7921 104.612 27.8677V39.6831C104.612 40.1396 104.523 40.5733 104.346 40.9899C104.169 41.4064 103.933 41.7631 103.63 42.0627C103.331 42.3651 102.977 42.6019 102.574 42.7789C102.172 42.9558 101.73 43.0442 101.253 43.0442C100.777 43.0442 100.332 42.9558 99.9181 42.7789C99.5015 42.6019 99.1449 42.3651 98.8453 42.0627C98.5457 41.7631 98.306 41.4064 98.1291 40.9899C97.9522 40.5733 97.8638 40.1396 97.8638 39.6831V6.38842C97.8638 5.91192 97.9522 5.46681 98.1291 5.05309C98.306 4.63937 98.5486 4.27701 98.8596 3.966C99.1706 3.655 99.5329 3.41247 99.9467 3.23557C100.36 3.05867 100.797 2.97021 101.253 2.97021C101.71 2.97021 102.172 3.05867 102.574 3.23557C102.98 3.41247 103.331 3.655 103.63 3.966C103.93 4.27701 104.169 4.63937 104.346 5.05309C104.523 5.46681 104.612 5.91478 104.612 6.38842V16.5232C105.69 15.6529 106.854 14.9739 108.11 14.486C109.362 13.9981 110.686 13.7555 112.073 13.7555C114.042 13.7555 115.865 14.135 117.546 14.8911C119.223 15.6472 120.676 16.6744 121.897 17.9698C123.121 19.2652 124.077 20.7831 124.773 22.5236C125.466 24.2641 125.814 26.1187 125.814 28.0874V39.7458H125.817Z" fill="#FC966C"/>
<path d="M129.952 28.5866C129.952 26.5351 130.345 24.612 131.133 22.8202C131.92 21.0283 132.988 19.459 134.334 18.1094C135.681 16.7627 137.25 15.7013 139.045 14.9224C140.837 14.1463 142.749 13.7554 144.78 13.7554C146.812 13.7554 148.76 14.1434 150.564 14.9224C152.367 15.6984 153.936 16.7627 155.274 18.1094C156.612 19.4562 157.662 21.0283 158.43 22.8202C159.198 24.612 159.58 26.5351 159.58 28.5866V39.5916C159.58 40.0681 159.491 40.5132 159.315 40.9298C159.138 41.3435 158.895 41.7059 158.584 42.0169C158.273 42.3279 157.905 42.5761 157.48 42.7644C157.055 42.9499 156.604 43.0441 156.127 43.0441C155.32 43.0441 154.635 42.8072 154.076 42.3279C153.517 41.8514 153.143 41.2522 152.957 40.5246C151.776 41.4148 150.495 42.1196 149.117 42.6389C147.739 43.1553 146.292 43.415 144.78 43.415C142.749 43.415 140.837 43.0269 139.045 42.248C137.253 41.4691 135.681 40.4076 134.334 39.0609C132.988 37.7142 131.92 36.1392 131.133 34.3359C130.345 32.5327 129.952 30.6153 129.952 28.5837V28.5866ZM136.697 28.5866C136.697 29.6851 136.908 30.7265 137.333 31.7109C137.758 32.6953 138.337 33.557 139.074 34.2903C139.81 35.0264 140.663 35.6056 141.639 36.0307C142.612 36.4559 143.659 36.667 144.777 36.667C145.896 36.667 146.948 36.4559 147.933 36.0307C148.917 35.6056 149.773 35.0264 150.498 34.2903C151.223 33.5541 151.793 32.6953 152.207 31.7109C152.621 30.7265 152.829 29.6851 152.829 28.5866C152.829 27.4881 152.621 26.4153 152.207 25.4309C151.793 24.4465 151.223 23.5905 150.498 22.8658C149.773 22.1411 148.917 21.5647 147.933 21.1396C146.948 20.7145 145.896 20.5033 144.777 20.5033C143.659 20.5033 142.637 20.7173 141.653 21.1396C140.668 21.5647 139.807 22.1382 139.074 22.8658C138.337 23.5905 137.758 24.4465 137.333 25.4309C136.908 26.4153 136.697 27.4681 136.697 28.5866Z" fill="#FFC55D"/>
<path d="M172.108 29.1149C172.108 30.1734 172.305 31.1635 172.699 32.0851C173.093 33.0067 173.632 33.8056 174.317 34.479C175.002 35.1523 175.809 35.6802 176.742 36.0654C177.675 36.4477 178.671 36.6417 179.727 36.6417C180.782 36.6417 181.772 36.4392 182.697 36.0369C183.621 35.6345 184.417 35.0839 185.091 34.3905C185.764 33.6972 186.298 32.8812 186.691 31.951C187.085 31.018 187.282 30.0136 187.282 28.9351V17.4935C187.282 17.037 187.376 16.6062 187.562 16.2039C187.747 15.7987 187.998 15.442 188.309 15.131C188.62 14.82 188.988 14.5775 189.413 14.4006C189.839 14.2237 190.278 14.1353 190.735 14.1353C191.191 14.1353 191.645 14.2237 192.041 14.4006C192.435 14.5775 192.783 14.82 193.083 15.131C193.382 15.442 193.616 15.7987 193.782 16.2039C193.947 16.609 194.03 17.037 194.03 17.4935V29.0578C194.03 30.7583 193.75 32.3676 193.191 33.8912C192.632 35.4148 191.864 36.7873 190.891 38.0113C189.916 39.2354 188.757 40.2796 187.41 41.1499C186.064 42.0201 184.603 42.6421 183.028 43.0159V50.1662C183.028 50.6427 182.939 51.0878 182.763 51.5044C182.586 51.9181 182.343 52.2747 182.032 52.5772C181.721 52.8768 181.364 53.1164 180.959 53.2933C180.554 53.4702 180.126 53.5587 179.67 53.5587C178.694 53.5587 177.886 53.2363 177.244 52.5943C176.602 51.9523 176.28 51.142 176.28 50.169V42.9874C174.705 42.5936 173.253 41.9602 171.929 41.09C170.602 40.2197 169.452 39.1726 168.476 37.9514C167.5 36.7273 166.739 35.3606 166.191 33.8484C165.64 32.3362 165.366 30.7384 165.366 29.0606V17.4964C165.366 17.0399 165.455 16.609 165.632 16.2067C165.808 15.8016 166.045 15.4449 166.348 15.1339C166.65 14.8229 167.004 14.5804 167.421 14.4035C167.834 14.2266 168.271 14.1381 168.727 14.1381C169.184 14.1381 169.618 14.2266 170.034 14.4035C170.448 14.5804 170.81 14.8229 171.121 15.1339C171.432 15.4449 171.675 15.8016 171.852 16.2067C172.029 16.6119 172.117 17.0399 172.117 17.4964V29.1234L172.108 29.1149Z" fill="#F8931B"/>
<path d="M69.2942 13.2848C72.9627 13.2848 75.9366 10.3109 75.9366 6.64238C75.9366 2.9739 72.9627 0 69.2942 0C65.6258 0 62.6519 2.9739 62.6519 6.64238C62.6519 10.3109 65.6258 13.2848 69.2942 13.2848Z" fill="#FFC65F"/>
<path d="M80.6359 32.9179C83.028 32.9179 84.9672 30.9787 84.9672 28.5866C84.9672 26.1945 83.028 24.2554 80.6359 24.2554C78.2438 24.2554 76.3047 26.1945 76.3047 28.5866C76.3047 30.9787 78.2438 32.9179 80.6359 32.9179Z" fill="#FFC65F"/>
</svg>
