<svg width="180" height="197" viewBox="0 0 180 197" fill="none" xmlns="http://www.w3.org/2000/svg">
<g filter="url(#filter0_d_3828_22265)">
<path d="M72.4995 95.001H69.9995C49.9995 95.001 39.9995 90.001 39.9995 65.001V40.001C39.9995 20.001 49.9995 10.001 69.9995 10.001H110C130 10.001 140 20.001 140 40.001V65.001C140 85.001 130 95.001 110 95.001H107.5C105.95 95.001 104.45 95.751 103.5 97.001L95.9995 107.001C92.6995 111.401 87.2995 111.401 83.9995 107.001L76.4995 97.001C75.6995 95.901 73.8495 95.001 72.4995 95.001Z" fill="#FFCB46"/>
<path d="M72.4995 95.001H69.9995C49.9995 95.001 39.9995 90.001 39.9995 65.001V40.001C39.9995 20.001 49.9995 10.001 69.9995 10.001H110C130 10.001 140 20.001 140 40.001V65.001C140 85.001 130 95.001 110 95.001H107.5C105.95 95.001 104.45 95.751 103.5 97.001L95.9995 107.001C92.6995 111.401 87.2995 111.401 83.9995 107.001L76.4995 97.001C75.6995 95.901 73.8495 95.001 72.4995 95.001Z" stroke="#0E0E0F" stroke-width="4" stroke-miterlimit="10" stroke-linecap="round" stroke-linejoin="round"/>
</g>
<path d="M62.9472 66.0479C61.0272 66.0479 59.2352 65.6895 57.5712 64.9727C55.9072 64.2559 54.448 63.2703 53.1936 62.0159C51.9392 60.7359 50.9536 59.2639 50.2368 57.5999C49.5456 55.9103 49.2 54.1055 49.2 52.1855C49.2 50.2655 49.5456 48.4735 50.2368 46.8095C50.9536 45.1455 51.9264 43.6863 53.1552 42.4319C54.4096 41.1519 55.856 40.1663 57.4944 39.4751C59.1584 38.7583 60.9504 38.3999 62.8704 38.3999C64.7904 38.3999 66.5696 38.7583 68.208 39.4751C69.872 40.1663 71.3312 41.1519 72.5856 42.4319C73.84 43.6863 74.8128 45.1583 75.504 46.8479C76.2208 48.5119 76.5792 50.3039 76.5792 52.2239C76.5792 54.1439 76.2208 55.9487 75.504 57.6383C74.8128 59.3023 73.84 60.7615 72.5856 62.0159C71.3568 63.2703 69.9104 64.2559 68.2464 64.9727C66.608 65.6895 64.8416 66.0479 62.9472 66.0479ZM62.8704 61.8239C64.688 61.8239 66.2752 61.4143 67.632 60.5951C69.0144 59.7759 70.0896 58.6495 70.8576 57.2159C71.6512 55.7567 72.048 54.0799 72.048 52.1855C72.048 50.7775 71.8176 49.4975 71.3568 48.3455C70.9216 47.1679 70.2944 46.1567 69.4752 45.3119C68.656 44.4415 67.6832 43.7759 66.5568 43.3151C65.456 42.8543 64.2272 42.6239 62.8704 42.6239C61.0784 42.6239 59.4912 43.0335 58.1088 43.8527C56.752 44.6463 55.6768 45.7599 54.8832 47.1935C54.1152 48.6271 53.7312 50.2911 53.7312 52.1855C53.7312 53.5935 53.9488 54.8991 54.384 56.1023C54.8448 57.2799 55.472 58.2911 56.2656 59.1359C57.0848 59.9807 58.0576 60.6463 59.184 61.1327C60.3104 61.5935 61.5392 61.8239 62.8704 61.8239ZM75.2352 67.5071L63.1392 55.4111L65.9808 52.5695L78.0768 64.6655L75.2352 67.5071Z" fill="#0E0E0F"/>
<path d="M89.0328 66.0479C87.4712 66.0479 86.076 65.7023 84.8472 65.0111C83.644 64.3199 82.6968 63.3727 82.0056 62.1695C81.34 60.9407 81.0072 59.5327 81.0072 57.9455V47.2319H85.2312V57.7535C85.2312 58.6495 85.372 59.4175 85.6536 60.0575C85.9608 60.6719 86.396 61.1455 86.9592 61.4783C87.548 61.8111 88.2392 61.9775 89.0328 61.9775C90.2616 61.9775 91.196 61.6191 91.836 60.9023C92.5016 60.1599 92.8344 59.1103 92.8344 57.7535V47.2319H97.0584V57.9455C97.0584 59.5583 96.7128 60.9791 96.0216 62.2079C95.356 63.4111 94.4216 64.3583 93.2184 65.0495C92.0152 65.7151 90.62 66.0479 89.0328 66.0479Z" fill="#0E0E0F"/>
<path d="M101.344 65.6639V47.2319H105.568V65.6639H101.344ZM103.456 43.8527C102.739 43.8527 102.137 43.6095 101.651 43.1231C101.19 42.6367 100.96 42.0351 100.96 41.3183C100.96 40.6015 101.19 39.9999 101.651 39.5135C102.137 39.0271 102.739 38.7839 103.456 38.7839C104.198 38.7839 104.8 39.0271 105.261 39.5135C105.721 39.9999 105.952 40.6015 105.952 41.3183C105.952 42.0351 105.721 42.6367 105.261 43.1231C104.8 43.6095 104.198 43.8527 103.456 43.8527Z" fill="#0E0E0F"/>
<path d="M108.923 63.3599L119.214 49.5359H124.168L113.877 63.3599H108.923ZM108.923 65.6639V63.3599L112.763 61.8239H123.937V65.6639H108.923ZM109.614 51.0719V47.2319H124.168V49.5359L120.328 51.0719H109.614Z" fill="#0E0E0F"/>
<path d="M59.5728 150V147.78H63.2328C63.8861 147.78 64.3928 147.58 64.7528 147.18C65.1261 146.78 65.3128 146.307 65.3128 145.76C65.3128 145.387 65.2328 145.047 65.0728 144.74C64.9128 144.433 64.6728 144.193 64.3528 144.02C64.0461 143.833 63.6728 143.74 63.2328 143.74H59.5728V141.54H62.9328C63.4928 141.54 63.9395 141.4 64.2728 141.12C64.6195 140.84 64.7928 140.42 64.7928 139.86C64.7928 139.287 64.6195 138.86 64.2728 138.58C63.9395 138.3 63.4928 138.16 62.9328 138.16H59.5728V135.94H63.2528C64.1861 135.94 64.9661 136.113 65.5928 136.46C66.2328 136.793 66.7128 137.24 67.0328 137.8C67.3528 138.347 67.5128 138.947 67.5128 139.6C67.5128 140.4 67.2661 141.093 66.7728 141.68C66.2928 142.253 65.5861 142.68 64.6528 142.96L64.7728 142.08C65.8128 142.373 66.6128 142.86 67.1728 143.54C67.7461 144.207 68.0328 145.013 68.0328 145.96C68.0328 146.707 67.8461 147.387 67.4728 148C67.1128 148.6 66.5795 149.087 65.8728 149.46C65.1795 149.82 64.3328 150 63.3328 150H59.5728ZM57.5728 150V135.94H60.2728V150H57.5728ZM73.95 150.2C73.07 150.2 72.2767 149.98 71.57 149.54C70.8633 149.1 70.31 148.5 69.91 147.74C69.51 146.98 69.31 146.127 69.31 145.18C69.31 144.22 69.51 143.36 69.91 142.6C70.31 141.84 70.8633 141.24 71.57 140.8C72.2767 140.36 73.07 140.14 73.95 140.14C74.6433 140.14 75.2633 140.28 75.81 140.56C76.3567 140.84 76.79 141.233 77.11 141.74C77.4433 142.233 77.6233 142.793 77.65 143.42V146.9C77.6233 147.54 77.4433 148.107 77.11 148.6C76.79 149.093 76.3567 149.487 75.81 149.78C75.2633 150.06 74.6433 150.2 73.95 150.2ZM74.43 147.78C75.1633 147.78 75.7567 147.54 76.21 147.06C76.6633 146.567 76.89 145.933 76.89 145.16C76.89 144.653 76.7833 144.207 76.57 143.82C76.37 143.42 76.0833 143.113 75.71 142.9C75.35 142.673 74.9233 142.56 74.43 142.56C73.95 142.56 73.5233 142.673 73.15 142.9C72.79 143.113 72.5033 143.42 72.29 143.82C72.09 144.207 71.99 144.653 71.99 145.16C71.99 145.68 72.09 146.14 72.29 146.54C72.5033 146.927 72.79 147.233 73.15 147.46C73.5233 147.673 73.95 147.78 74.43 147.78ZM76.75 150V147.4L77.17 145.04L76.75 142.72V140.34H79.35V150H76.75ZM86.2278 150.2C85.2411 150.2 84.3545 149.98 83.5678 149.54C82.7811 149.1 82.1611 148.5 81.7078 147.74C81.2545 146.98 81.0278 146.127 81.0278 145.18C81.0278 144.22 81.2545 143.36 81.7078 142.6C82.1611 141.84 82.7811 141.24 83.5678 140.8C84.3678 140.347 85.2545 140.12 86.2278 140.12C86.9878 140.12 87.6878 140.26 88.3278 140.54C88.9678 140.82 89.5211 141.22 89.9878 141.74L88.3078 143.44C88.0545 143.16 87.7478 142.947 87.3878 142.8C87.0411 142.653 86.6545 142.58 86.2278 142.58C85.7478 142.58 85.3145 142.693 84.9278 142.92C84.5545 143.133 84.2545 143.433 84.0278 143.82C83.8145 144.193 83.7078 144.64 83.7078 145.16C83.7078 145.667 83.8145 146.12 84.0278 146.52C84.2545 146.907 84.5545 147.213 84.9278 147.44C85.3145 147.653 85.7478 147.76 86.2278 147.76C86.6678 147.76 87.0611 147.687 87.4078 147.54C87.7678 147.38 88.0745 147.153 88.3278 146.86L90.0278 148.56C89.5345 149.093 88.9678 149.5 88.3278 149.78C87.6878 150.06 86.9878 150.2 86.2278 150.2ZM98.0116 150V144.46C98.0116 143.887 97.8316 143.42 97.4716 143.06C97.1116 142.7 96.6449 142.52 96.0716 142.52C95.6982 142.52 95.3649 142.6 95.0716 142.76C94.7782 142.92 94.5449 143.147 94.3716 143.44C94.2116 143.733 94.1316 144.073 94.1316 144.46L93.1116 143.94C93.1116 143.18 93.2716 142.52 93.5916 141.96C93.9116 141.387 94.3516 140.94 94.9116 140.62C95.4849 140.3 96.1382 140.14 96.8716 140.14C97.6049 140.14 98.2516 140.3 98.8116 140.62C99.3849 140.94 99.8316 141.38 100.152 141.94C100.472 142.5 100.632 143.147 100.632 143.88V150H98.0116ZM91.5116 150V135.54H94.1316V150H91.5116ZM106.782 150.2C105.902 150.2 105.109 149.98 104.402 149.54C103.695 149.1 103.142 148.5 102.742 147.74C102.342 146.98 102.142 146.127 102.142 145.18C102.142 144.22 102.342 143.36 102.742 142.6C103.142 141.84 103.695 141.24 104.402 140.8C105.109 140.36 105.902 140.14 106.782 140.14C107.475 140.14 108.095 140.28 108.642 140.56C109.189 140.84 109.622 141.233 109.942 141.74C110.275 142.233 110.455 142.793 110.482 143.42V146.9C110.455 147.54 110.275 148.107 109.942 148.6C109.622 149.093 109.189 149.487 108.642 149.78C108.095 150.06 107.475 150.2 106.782 150.2ZM107.262 147.78C107.995 147.78 108.589 147.54 109.042 147.06C109.495 146.567 109.722 145.933 109.722 145.16C109.722 144.653 109.615 144.207 109.402 143.82C109.202 143.42 108.915 143.113 108.542 142.9C108.182 142.673 107.755 142.56 107.262 142.56C106.782 142.56 106.355 142.673 105.982 142.9C105.622 143.113 105.335 143.42 105.122 143.82C104.922 144.207 104.822 144.653 104.822 145.16C104.822 145.68 104.922 146.14 105.122 146.54C105.335 146.927 105.622 147.233 105.982 147.46C106.355 147.673 106.782 147.78 107.262 147.78ZM109.582 150V147.4L110.002 145.04L109.582 142.72V140.34H112.182V150H109.582ZM117.54 150.08L113.5 140.34H116.34L119.02 147.78H118.06L120.84 140.34H123.7L119.4 150.06L117.54 150.08ZM114.86 154.04L117.8 147.82L119.4 150.06L117.64 154.04H114.86ZM48.0659 194.624C45.3272 194.624 42.7792 194.139 40.4219 193.168C38.0645 192.197 36.0019 190.845 34.2339 189.112C32.5005 187.379 31.1312 185.368 30.1259 183.08C29.1552 180.757 28.6699 178.261 28.6699 175.592C28.6699 172.888 29.1552 170.392 30.1259 168.104C31.0965 165.816 32.4485 163.823 34.1819 162.124C35.9499 160.391 37.9952 159.056 40.3179 158.12C42.6752 157.149 45.2232 156.664 47.9619 156.664C50.7352 156.664 53.2832 157.149 55.6059 158.12C57.9632 159.056 60.0085 160.391 61.7419 162.124C63.5099 163.823 64.8792 165.833 65.8499 168.156C66.8205 170.444 67.3059 172.94 67.3059 175.644C67.3059 178.313 66.8205 180.809 65.8499 183.132C64.8792 185.42 63.5099 187.431 61.7419 189.164C60.0085 190.863 57.9805 192.197 55.6579 193.168C53.3352 194.139 50.8045 194.624 48.0659 194.624ZM47.9619 187.188C50.1805 187.188 52.1045 186.703 53.7339 185.732C55.3632 184.761 56.6285 183.409 57.5299 181.676C58.4659 179.908 58.9339 177.88 58.9339 175.592C58.9339 173.859 58.6739 172.299 58.1539 170.912C57.6339 169.491 56.8885 168.277 55.9179 167.272C54.9472 166.232 53.7859 165.452 52.4339 164.932C51.1165 164.377 49.6259 164.1 47.9619 164.1C45.7779 164.1 43.8712 164.585 42.2419 165.556C40.6125 166.492 39.3299 167.827 38.3939 169.56C37.4925 171.259 37.0419 173.269 37.0419 175.592C37.0419 177.325 37.3019 178.903 37.8219 180.324C38.3419 181.745 39.0872 182.976 40.0579 184.016C41.0285 185.021 42.1725 185.801 43.4899 186.356C44.8419 186.911 46.3325 187.188 47.9619 187.188ZM64.4459 196.912L47.2859 179.752L52.0179 175.02L69.1779 192.18L64.4459 196.912ZM87.9153 194.572C84.8993 194.572 82.23 193.931 79.9073 192.648C77.6193 191.365 75.8167 189.597 74.4993 187.344C73.2167 185.056 72.5753 182.456 72.5753 179.544V157.288H80.7913V180.012C80.7913 181.468 81.1033 182.733 81.7273 183.808C82.3513 184.883 83.2007 185.715 84.2753 186.304C85.3847 186.859 86.598 187.136 87.9153 187.136C89.302 187.136 90.5153 186.859 91.5553 186.304C92.5953 185.715 93.41 184.9 93.9993 183.86C94.6233 182.785 94.9353 181.52 94.9353 180.064V157.288H103.151V179.596C103.151 182.508 102.51 185.091 101.227 187.344C99.9447 189.597 98.1593 191.365 95.8713 192.648C93.5833 193.931 90.9313 194.572 87.9153 194.572ZM109.659 194V157.288H117.823V194H109.659ZM122.917 188.28L141.377 162.956H151.257L132.745 188.28H122.917ZM122.917 194V188.28L128.325 186.98H150.789V194H122.917ZM123.957 164.308V157.288H151.257V162.956L145.745 164.308H123.957Z" fill="#0E0E0F"/>
<defs>
<filter id="filter0_d_3828_22265" x="37.9995" y="8.00098" width="104" height="108.3" filterUnits="userSpaceOnUse" color-interpolation-filters="sRGB">
<feFlood flood-opacity="0" result="BackgroundImageFix"/>
<feColorMatrix in="SourceAlpha" type="matrix" values="0 0 0 0 0 0 0 0 0 0 0 0 0 0 0 0 0 0 127 0" result="hardAlpha"/>
<feOffset dy="4"/>
<feComposite in2="hardAlpha" operator="out"/>
<feColorMatrix type="matrix" values="0 0 0 0 0.054902 0 0 0 0 0.054902 0 0 0 0 0.0588235 0 0 0 1 0"/>
<feBlend mode="normal" in2="BackgroundImageFix" result="effect1_dropShadow_3828_22265"/>
<feBlend mode="normal" in="SourceGraphic" in2="effect1_dropShadow_3828_22265" result="shape"/>
</filter>
</defs>
</svg>
