<svg width="11" height="11" viewBox="0 0 11 11" fill="none" xmlns="http://www.w3.org/2000/svg">
<path d="M5.0625 1.12451H4.1875C2 1.12451 1.125 1.99951 1.125 4.18701V6.81201C1.125 8.99951 2 9.87451 4.1875 9.87451H6.8125C9 9.87451 9.875 8.99951 9.875 6.81201V5.93701" stroke="#FAFAFA" stroke-width="0.75" stroke-linecap="round" stroke-linejoin="round"/>
<path d="M7.26757 1.57081L3.82007 5.01831C3.68882 5.14956 3.55757 5.40769 3.53132 5.59581L3.34319 6.91269C3.27319 7.38956 3.61007 7.72206 4.08694 7.65644L5.40382 7.46831C5.58757 7.44206 5.84569 7.31081 5.98132 7.17956L9.42882 3.73206C10.0238 3.13706 10.3038 2.44581 9.42882 1.57081C8.55382 0.695811 7.86257 0.975811 7.26757 1.57081Z" stroke="#FAFAFA" stroke-width="0.75" stroke-miterlimit="10" stroke-linecap="round" stroke-linejoin="round"/>
<path d="M6.77319 2.06494C7.06632 3.11057 7.88444 3.92869 8.93444 4.22619" stroke="#FAFAFA" stroke-width="0.75" stroke-miterlimit="10" stroke-linecap="round" stroke-linejoin="round"/>
</svg>
