<svg width="24" height="24" viewBox="0 0 24 24" fill="none" xmlns="http://www.w3.org/2000/svg">
<path d="M8.5 19H8C4 19 2 18 2 13V8C2 4 4 2 8 2H16C20 2 22 4 22 8V13C22 17 20 19 16 19H15.5C15.19 19 14.89 19.15 14.7 19.4L13.2 21.4C12.54 22.28 11.46 22.28 10.8 21.4L9.3 19.4C9.14 19.18 8.77 19 8.5 19Z" stroke="#3F3F46" stroke-miterlimit="10" stroke-linecap="round" stroke-linejoin="round"/>
<path d="M6.864 13.76C6.464 13.76 6.09067 13.6853 5.744 13.536C5.39733 13.3867 5.09333 13.1813 4.832 12.92C4.57067 12.6533 4.36533 12.3467 4.216 12C4.072 11.648 4 11.272 4 10.872C4 10.472 4.072 10.0987 4.216 9.752C4.36533 9.40533 4.568 9.10133 4.824 8.84C5.08533 8.57333 5.38667 8.368 5.728 8.224C6.07467 8.07467 6.448 8 6.848 8C7.248 8 7.61867 8.07467 7.96 8.224C8.30667 8.368 8.61067 8.57333 8.872 8.84C9.13333 9.10133 9.336 9.408 9.48 9.76C9.62933 10.1067 9.704 10.48 9.704 10.88C9.704 11.28 9.62933 11.656 9.48 12.008C9.336 12.3547 9.13333 12.6587 8.872 12.92C8.616 13.1813 8.31467 13.3867 7.968 13.536C7.62667 13.6853 7.25867 13.76 6.864 13.76ZM6.848 12.88C7.22667 12.88 7.55733 12.7947 7.84 12.624C8.128 12.4533 8.352 12.2187 8.512 11.92C8.67733 11.616 8.76 11.2667 8.76 10.872C8.76 10.5787 8.712 10.312 8.616 10.072C8.52533 9.82667 8.39467 9.616 8.224 9.44C8.05333 9.25867 7.85067 9.12 7.616 9.024C7.38667 8.928 7.13067 8.88 6.848 8.88C6.47467 8.88 6.144 8.96533 5.856 9.136C5.57333 9.30133 5.34933 9.53333 5.184 9.832C5.024 10.1307 4.944 10.4773 4.944 10.872C4.944 11.1653 4.98933 11.4373 5.08 11.688C5.176 11.9333 5.30667 12.144 5.472 12.32C5.64267 12.496 5.84533 12.6347 6.08 12.736C6.31467 12.832 6.57067 12.88 6.848 12.88ZM9.424 14.064L6.904 11.544L7.496 10.952L10.016 13.472L9.424 14.064Z" fill="#0E0E0F"/>
<path d="M12.2985 13.76C11.9732 13.76 11.6825 13.688 11.4265 13.544C11.1758 13.4 10.9785 13.2027 10.8345 12.952C10.6958 12.696 10.6265 12.4027 10.6265 12.072V9.84H11.5065V12.032C11.5065 12.2187 11.5358 12.3787 11.5945 12.512C11.6585 12.64 11.7492 12.7387 11.8665 12.808C11.9892 12.8773 12.1332 12.912 12.2985 12.912C12.5545 12.912 12.7492 12.8373 12.8825 12.688C13.0212 12.5333 13.0905 12.3147 13.0905 12.032V9.84H13.9705V12.072C13.9705 12.408 13.8985 12.704 13.7545 12.96C13.6158 13.2107 13.4212 13.408 13.1705 13.552C12.9198 13.6907 12.6292 13.76 12.2985 13.76Z" fill="#0E0E0F"/>
<path d="M14.8633 13.68V9.84H15.7433V13.68H14.8633ZM15.3033 9.136C15.154 9.136 15.0286 9.08533 14.9273 8.984C14.8313 8.88267 14.7833 8.75733 14.7833 8.608C14.7833 8.45867 14.8313 8.33333 14.9273 8.232C15.0286 8.13067 15.154 8.08 15.3033 8.08C15.458 8.08 15.5833 8.13067 15.6793 8.232C15.7753 8.33333 15.8233 8.45867 15.8233 8.608C15.8233 8.75733 15.7753 8.88267 15.6793 8.984C15.5833 9.08533 15.458 9.136 15.3033 9.136Z" fill="#0E0E0F"/>
<path d="M16.4423 13.2L18.5863 10.32H19.6183L17.4743 13.2H16.4423ZM16.4423 13.68V13.2L17.2423 12.88H19.5703V13.68H16.4423ZM16.5863 10.64V9.84H19.6183V10.32L18.8183 10.64H16.5863Z" fill="#0E0E0F"/>
</svg>
