<svg width="24" height="25" viewBox="0 0 24 25" fill="none" xmlns="http://www.w3.org/2000/svg">
<path d="M5.5 0.5V6.11702" stroke="#3F3F46"/>
<path d="M12.3536 0.146447C12.1583 -0.0488155 11.8417 -0.0488155 11.6464 0.146447L8.46447 3.32843C8.2692 3.52369 8.2692 3.84027 8.46447 4.03553C8.65973 4.2308 8.97631 4.2308 9.17157 4.03553L12 1.20711L14.8284 4.03553C15.0237 4.2308 15.3403 4.2308 15.5355 4.03553C15.7308 3.84027 15.7308 3.52369 15.5355 3.32843L12.3536 0.146447ZM11.5 0.5V24.5H12.5V0.5H11.5Z" fill="#3F3F46"/>
<path d="M2.5 7.60644C2.5 6.77802 3.17157 6.10645 4 6.10645H7C7.82843 6.10645 8.5 6.77802 8.5 7.60645V20.4256H2.5V7.60644Z" stroke="#3F3F46"/>
<path d="M18.5 12.1914C18.5 11.0868 19.3954 10.1914 20.5 10.1914C21.6046 10.1914 22.5 11.0868 22.5 12.1914V12.2978C22.5 13.4024 21.6046 14.2978 20.5 14.2978C19.3954 14.2978 18.5 13.4024 18.5 12.2978V12.1914Z" stroke="#3F3F46"/>
<path d="M17.5 17.2764C17.5 15.6195 18.8431 14.2764 20.5 14.2764C22.1569 14.2764 23.5 15.6195 23.5 17.2764V17.4253C23.5 19.0822 22.1569 20.4253 20.5 20.4253C18.8431 20.4253 17.5 19.0822 17.5 17.4253V17.2764Z" stroke="#3F3F46"/>
<path d="M3.5 20.5H7.5V23.5H3.5V20.5Z" stroke="#3F3F46"/>
<path d="M0 20.415H11" stroke="#3F3F46"/>
<path d="M12 23.9893H23" stroke="#3F3F46"/>
<path d="M5 10.7129L9 10.7129" stroke="#3F3F46"/>
<path d="M12 8.67041H15" stroke="#3F3F46"/>
<path d="M12 11.7339L16 11.7339" stroke="#3F3F46"/>
<path d="M12 14.7979H15" stroke="#3F3F46"/>
<path d="M12 17.8618H16" stroke="#3F3F46"/>
<path d="M12 20.9253H15" stroke="#3F3F46"/>
<path d="M5 13.7764L9 13.7764" stroke="#3F3F46"/>
<path d="M5 16.8403H9" stroke="#3F3F46"/>
<path d="M2 23.9893H9" stroke="#3F3F46"/>
</svg>
