<svg width="164" height="164" viewBox="0 0 164 164" fill="none" xmlns="http://www.w3.org/2000/svg">
<g filter="url(#filter0_d_75_17117)">
<path d="M2 81C2 36.8172 37.8172 1 82 1C126.183 1 162 36.8172 162 81C162 125.183 126.183 161 82 161C37.8172 161 2 125.183 2 81Z" fill="#FAFAFA"/>
<path d="M2.5 81C2.5 79.6914 2.53161 78.3902 2.59412 77.0971L2.0947 77.073C2.22235 74.4321 2.47806 71.8248 2.85575 69.2572L3.35042 69.3299C3.73204 66.7356 4.23896 64.1821 4.86483 61.6758L4.37972 61.5546C5.0179 58.999 5.77898 56.4921 6.65632 54.0404L7.12709 54.2089C8.00766 51.7483 9.0061 49.3437 10.1156 47.0019L9.66376 46.7878C10.7884 44.4142 12.0264 42.1048 13.3708 39.8665L13.7994 40.124C15.1419 37.8889 16.5911 35.7253 18.1401 33.6402L17.7387 33.342C19.3017 31.2379 20.9655 29.2133 22.7231 27.2752L23.0935 27.6111C24.8418 25.6834 26.6834 23.8418 28.6111 22.0935L28.2753 21.7231C30.2133 19.9655 32.238 18.3017 34.342 16.7387L34.6402 17.14C36.7253 15.5911 38.889 14.1419 41.124 12.7994L40.8665 12.3708C43.1048 11.0264 45.4142 9.78837 47.7878 8.66376L48.0019 9.11561C50.3437 8.00609 52.7483 7.00765 55.2089 6.12708L55.0404 5.65632C57.4921 4.77898 59.999 4.0179 62.5546 3.37972L62.6758 3.86483C65.1821 3.23896 67.7356 2.73204 70.3299 2.35042L70.2572 1.85575C72.8248 1.47806 75.4321 1.22235 78.0729 1.0947L78.0971 1.59412C79.3902 1.53161 80.6914 1.5 82 1.5C83.3086 1.5 84.6098 1.53161 85.9029 1.59412L85.927 1.0947C88.5679 1.22235 91.1752 1.47806 93.7428 1.85575L93.6701 2.35042C96.2644 2.73204 98.8179 3.23896 101.324 3.86483L101.445 3.37972C104.001 4.0179 106.508 4.77898 108.96 5.65632L108.791 6.12709C111.252 7.00766 113.656 8.0061 115.998 9.11561L116.212 8.66376C118.586 9.78837 120.895 11.0264 123.133 12.3708L122.876 12.7994C125.111 14.1419 127.275 15.5911 129.36 17.1401L129.658 16.7387C131.762 18.3017 133.787 19.9655 135.725 21.7231L135.389 22.0935C137.317 23.8418 139.158 25.6834 140.906 27.6111L141.277 27.2753C143.034 29.2133 144.698 31.238 146.261 33.342L145.86 33.6402C147.409 35.7253 148.858 37.889 150.201 40.124L150.629 39.8665C151.974 42.1048 153.212 44.4142 154.336 46.7878L153.884 47.0019C154.994 49.3437 155.992 51.7483 156.873 54.2089L157.344 54.0404C158.221 56.4921 158.982 58.999 159.62 61.5546L159.135 61.6758C159.761 64.1821 160.268 66.7356 160.65 69.3299L161.144 69.2572C161.522 71.8248 161.778 74.4321 161.905 77.0729L161.406 77.0971C161.468 78.3902 161.5 79.6914 161.5 81C161.5 82.3086 161.468 83.6098 161.406 84.9029L161.905 84.927C161.778 87.5679 161.522 90.1752 161.144 92.7428L160.65 92.6701C160.268 95.2644 159.761 97.8179 159.135 100.324L159.62 100.445C158.982 103.001 158.221 105.508 157.344 107.96L156.873 107.791C155.992 110.252 154.994 112.656 153.884 114.998L154.336 115.212C153.212 117.586 151.974 119.895 150.629 122.133L150.201 121.876C148.858 124.111 147.409 126.275 145.86 128.36L146.261 128.658C144.698 130.762 143.034 132.787 141.277 134.725L140.906 134.389C139.158 136.317 137.317 138.158 135.389 139.906L135.725 140.277C133.787 142.034 131.762 143.698 129.658 145.261L129.36 144.86C127.275 146.409 125.111 147.858 122.876 149.201L123.133 149.629C120.895 150.974 118.586 152.212 116.212 153.336L115.998 152.884C113.656 153.994 111.252 154.992 108.791 155.873L108.96 156.344C106.508 157.221 104.001 157.982 101.445 158.62L101.324 158.135C98.8179 158.761 96.2644 159.268 93.6701 159.65L93.7428 160.144C91.1752 160.522 88.5679 160.778 85.9271 160.905L85.9029 160.406C84.6098 160.468 83.3086 160.5 82 160.5C80.6914 160.5 79.3902 160.468 78.0971 160.406L78.073 160.905C75.4321 160.778 72.8248 160.522 70.2572 160.144L70.3299 159.65C67.7356 159.268 65.1821 158.761 62.6758 158.135L62.5546 158.62C59.999 157.982 57.4921 157.221 55.0404 156.344L55.2089 155.873C52.7483 154.992 50.3437 153.994 48.0019 152.884L47.7878 153.336C45.4142 152.212 43.1048 150.974 40.8665 149.629L41.124 149.201C38.8889 147.858 36.7253 146.409 34.6402 144.86L34.342 145.261C32.2379 143.698 30.2133 142.034 28.2752 140.277L28.6111 139.906C26.6834 138.158 24.8418 136.317 23.0935 134.389L22.7231 134.725C20.9655 132.787 19.3017 130.762 17.7387 128.658L18.14 128.36C16.5911 126.275 15.1419 124.111 13.7994 121.876L13.3708 122.133C12.0264 119.895 10.7884 117.586 9.66376 115.212L10.1156 114.998C9.00609 112.656 8.00765 110.252 7.12708 107.791L6.65632 107.96C5.77898 105.508 5.0179 103.001 4.37972 100.445L4.86483 100.324C4.23896 97.8179 3.73204 95.2644 3.35042 92.6701L2.85575 92.7428C2.47806 90.1752 2.22235 87.5679 2.0947 84.9271L2.59412 84.9029C2.53161 83.6098 2.5 82.3086 2.5 81Z" stroke="#3F3F46" stroke-dasharray="8 8"/>
<path opacity="0.4" d="M74.5 76C77.2614 76 79.5 73.7614 79.5 71C79.5 68.2386 77.2614 66 74.5 66C71.7386 66 69.5 68.2386 69.5 71C69.5 73.7614 71.7386 76 74.5 76Z" stroke="#3F3F46" stroke-width="1.5" stroke-linecap="round" stroke-linejoin="round"/>
<path d="M84.5 56H74.5C62 56 57 61 57 73.5V88.5C57 101 62 106 74.5 106H89.5C102 106 107 101 107 88.5V76" stroke="#3F3F46" stroke-width="1.5" stroke-linecap="round" stroke-linejoin="round"/>
<g opacity="0.4">
<path d="M97 71V56L102 61" stroke="#3F3F46" stroke-width="1.5" stroke-linecap="round" stroke-linejoin="round"/>
<path d="M97 56L92 61" stroke="#3F3F46" stroke-width="1.5" stroke-linecap="round" stroke-linejoin="round"/>
</g>
<path opacity="0.4" d="M58.6748 98.375L70.9998 90.1C72.9748 88.775 75.8248 88.925 77.5998 90.45L78.4248 91.175C80.3748 92.85 83.5248 92.85 85.4748 91.175L95.8748 82.25C97.8248 80.575 100.975 80.575 102.925 82.25L107 85.75" stroke="#3F3F46" stroke-width="1.5" stroke-linecap="round" stroke-linejoin="round"/>
</g>
<defs>
<filter id="filter0_d_75_17117" x="0" y="0" width="164" height="164" filterUnits="userSpaceOnUse" color-interpolation-filters="sRGB">
<feFlood flood-opacity="0" result="BackgroundImageFix"/>
<feColorMatrix in="SourceAlpha" type="matrix" values="0 0 0 0 0 0 0 0 0 0 0 0 0 0 0 0 0 0 127 0" result="hardAlpha"/>
<feOffset dy="1"/>
<feGaussianBlur stdDeviation="1"/>
<feColorMatrix type="matrix" values="0 0 0 0 0.0665871 0 0 0 0 0.0799546 0 0 0 0 0.106689 0 0 0 0.05 0"/>
<feBlend mode="normal" in2="BackgroundImageFix" result="effect1_dropShadow_75_17117"/>
<feBlend mode="normal" in="SourceGraphic" in2="effect1_dropShadow_75_17117" result="shape"/>
</filter>
</defs>
</svg>
