<svg width="24" height="24" viewBox="0 0 24 24" fill="none" xmlns="http://www.w3.org/2000/svg">
<path d="M4.77952 7.93802H9.49723C10.2619 7.93802 9.92952 6.91791 9.92952 6.91791L8.26321 1.32533C8.10321 0.789004 7.59813 1.03862 7.3389 1.2103C5.53388 2.5566 4.28578 4.58961 4.00045 6.91653C3.99839 6.93782 3.89332 7.93802 4.77952 7.93802Z" stroke="#0E0E0F"/>
<path d="M20.062 10.3404C20.0578 9.34915 19.1006 9.26022 18.8273 9.25542H4.7792C3.99978 9.25542 3.97128 9.86899 3.98708 10.098C4.42417 14.0023 7.86322 17.0444 12.0436 17.0444C16.136 17.0444 19.5116 14.1266 20.062 10.3404Z" stroke="#0E0E0F"/>
<path d="M6.49825 22.9998C7.91251 22.9998 9.059 21.8533 9.059 20.439C9.059 19.0248 7.91251 17.8783 6.49825 17.8783C5.08399 17.8783 3.9375 19.0248 3.9375 20.439C3.9375 21.8533 5.08399 22.9998 6.49825 22.9998Z" stroke="#141418"/>
<path d="M17.5017 22.9998C18.9159 22.9998 20.0624 21.8533 20.0624 20.439C20.0624 19.0248 18.9159 17.8783 17.5017 17.8783C16.0874 17.8783 14.9409 19.0248 14.9409 20.439C14.9409 21.8533 16.0874 22.9998 17.5017 22.9998Z" stroke="#141418"/>
</svg>
