<svg width="21" height="21" viewBox="0 0 21 21" fill="none" xmlns="http://www.w3.org/2000/svg">
<path d="M15.5301 14.0981L15.8551 16.7314C15.9385 17.423 15.1968 17.9064 14.6051 17.548L11.1135 15.473C10.7301 15.473 10.3551 15.4481 9.98847 15.3981C10.6051 14.6731 10.9718 13.7564 10.9718 12.7647C10.9718 10.398 8.9218 8.4814 6.38846 8.4814C5.4218 8.4814 4.53013 8.75638 3.78847 9.23971C3.76347 9.03138 3.75513 8.82304 3.75513 8.60637C3.75513 4.81471 7.0468 1.73972 11.1135 1.73972C15.1801 1.73972 18.4718 4.81471 18.4718 8.60637C18.4718 10.8564 17.3135 12.8481 15.5301 14.0981Z" stroke="#0E0E0F" stroke-linecap="round" stroke-linejoin="round"/>
<path d="M10.9718 12.7647C10.9718 13.7564 10.6052 14.6731 9.98851 15.3981C9.16351 16.3981 7.85518 17.0397 6.38851 17.0397L4.21351 18.3314C3.84684 18.5564 3.38017 18.248 3.43017 17.823L3.63851 16.1814C2.52184 15.4064 1.80518 14.1647 1.80518 12.7647C1.80518 11.298 2.58851 10.0064 3.78851 9.23973C4.53018 8.75639 5.42184 8.48141 6.38851 8.48141C8.92184 8.48141 10.9718 10.398 10.9718 12.7647Z" stroke="#0E0E0F" stroke-linecap="round" stroke-linejoin="round"/>
</svg>
