<svg width="16" height="17" viewBox="0 0 16 17" fill="none" xmlns="http://www.w3.org/2000/svg">
<path d="M14 4.48665C11.78 4.26665 9.54667 4.15332 7.32 4.15332C6 4.15332 4.68 4.21999 3.36 4.35332L2 4.48665" stroke="#A81E3E" stroke-linecap="round" stroke-linejoin="round"/>
<path d="M5.66675 3.8135L5.81341 2.94016C5.92008 2.30683 6.00008 1.8335 7.12675 1.8335H8.87341C10.0001 1.8335 10.0867 2.3335 10.1867 2.94683L10.3334 3.8135" stroke="#A81E3E" stroke-linecap="round" stroke-linejoin="round"/>
<path d="M12.5667 6.59326L12.1334 13.3066C12.06 14.3533 12 15.1666 10.14 15.1666H5.86002C4.00002 15.1666 3.94002 14.3533 3.86668 13.3066L3.43335 6.59326" stroke="#A81E3E" stroke-linecap="round" stroke-linejoin="round"/>
<path d="M6.88672 11.5H9.10672" stroke="#A81E3E" stroke-linecap="round" stroke-linejoin="round"/>
<path d="M6.33325 8.8335H9.66659" stroke="#A81E3E" stroke-width="1.5" stroke-linecap="round" stroke-linejoin="round"/>
</svg>
