<svg width="17" height="16" viewBox="0 0 17 16" fill="none" xmlns="http://www.w3.org/2000/svg">
<path d="M6.47391 7.49027C6.7447 7.43614 6.92031 7.17274 6.86616 6.90194C6.81201 6.63118 6.5486 6.45556 6.27782 6.50972C5.67555 6.63016 5.22082 7.0508 4.9788 7.61554C4.73932 8.1744 4.70378 8.873 4.89068 9.6212C4.95761 9.88907 5.22905 10.052 5.49696 9.98507C5.76487 9.9182 5.9278 9.64674 5.86087 9.3788C5.71468 8.79367 5.76248 8.3256 5.89796 8.00947C6.03091 7.6992 6.24276 7.53654 6.47391 7.49027ZM4.52328 2.27995C4.46868 3.20401 4.78352 4.14766 5.46807 4.86824C4.21639 5.22798 3.22095 6.29315 3.02775 7.67887C2.80881 9.2492 3.13156 10.8473 3.94279 12.2095L4.1768 12.6025C4.18548 12.6171 4.19488 12.6312 4.20498 12.6448L5.14896 13.9159C5.99992 15.0618 7.67653 15.1685 8.6658 14.1396C8.78033 14.0205 8.97093 14.0205 9.08546 14.1396C10.0747 15.1685 11.7513 15.0618 12.6023 13.9159L13.5463 12.6448C13.5564 12.6312 13.5658 12.6171 13.5745 12.6025L13.8085 12.2095C14.6197 10.8473 14.9425 9.2492 14.7235 7.67887C14.4511 5.72463 12.5831 4.40793 10.6509 4.80824L9.3828 5.07097L9.3808 5.0714C9.401 4.5515 9.48213 3.99081 9.64166 3.51229C9.83453 2.93365 10.1031 2.5858 10.4013 2.46155C10.6562 2.35534 10.7767 2.0626 10.6705 1.8077C10.5643 1.5528 10.2715 1.43226 10.0167 1.53847C9.31486 1.83088 8.91673 2.5247 8.69293 3.19606C8.68253 3.22742 8.67233 3.25896 8.66247 3.2907C8.5026 2.98107 8.29293 2.69049 8.0334 2.43097C7.30504 1.7026 6.33203 1.36678 5.37988 1.4232C4.91783 1.45059 4.55059 1.81789 4.52328 2.27995ZM5.51814 2.41803C6.17132 2.40019 6.82852 2.6403 7.3263 3.13808C7.824 3.63576 8.06406 4.29278 8.0464 4.94583C7.92547 4.94913 7.8044 4.9436 7.68426 4.92922L7.27298 4.84401C6.89412 4.73104 6.53736 4.52495 6.2382 4.22578C5.74052 3.7281 5.50041 3.07108 5.51814 2.41803ZM6.89746 5.78744L7.03237 5.8154C7.19237 5.86072 7.35496 5.89431 7.51879 5.91618L8.16553 6.05018C8.634 6.14722 9.11733 6.14722 9.58573 6.05018L10.8538 5.78744C12.2198 5.50443 13.5405 6.43532 13.7331 7.81694C13.9207 9.16207 13.6442 10.531 12.9493 11.6979L12.7283 12.069L11.7995 13.3197C11.3172 13.9691 10.3669 14.0296 9.80626 13.4465C9.29833 12.9182 8.45293 12.9182 7.945 13.4465C7.3843 14.0296 6.43408 13.9691 5.95179 13.3197L5.02298 12.069L4.80199 11.6979C4.1071 10.531 3.83062 9.16207 4.01817 7.81694C4.2108 6.43532 5.53147 5.50442 6.89746 5.78744Z" fill="#AF4D8E"/>
</svg>
