<svg width="20" height="21" viewBox="0 0 20 21" fill="none" xmlns="http://www.w3.org/2000/svg">
<path d="M6.2334 15.3647L8.81673 17.3647C9.15006 17.6981 9.90006 17.8647 10.4001 17.8647H13.5667C14.5667 17.8647 15.6501 17.1147 15.9001 16.1147L17.9001 10.0314C18.3167 8.86474 17.5667 7.86474 16.3167 7.86474H12.9834C12.4834 7.86474 12.0667 7.44807 12.1501 6.86474L12.5667 4.19807C12.7334 3.44807 12.2334 2.61474 11.4834 2.36474C10.8167 2.11474 9.9834 2.44807 9.65006 2.94807L6.2334 8.03141" stroke="#0E0E0F" stroke-miterlimit="10"/>
<path d="M1.9834 15.3647V7.19805C1.9834 6.03138 2.4834 5.61472 3.65007 5.61472H4.4834C5.65006 5.61472 6.15007 6.03138 6.15007 7.19805V15.3647C6.15007 16.5314 5.65006 16.948 4.4834 16.948H3.65007C2.4834 16.948 1.9834 16.5314 1.9834 15.3647Z" stroke="#0E0E0F" stroke-linecap="round" stroke-linejoin="round"/>
</svg>
