<svg width="25" height="24" viewBox="0 0 25 24" fill="none" xmlns="http://www.w3.org/2000/svg">
<path d="M12.4999 22.7599C11.4099 22.7599 10.3299 22.4399 9.4799 21.8099L5.1799 18.5999C4.0399 17.7499 3.1499 15.9799 3.1499 14.5599V7.11994C3.1499 5.57994 4.2799 3.93994 5.7299 3.39994L10.7199 1.52994C11.7099 1.15994 13.2699 1.15994 14.2599 1.52994L19.2599 3.39994C20.7099 3.93994 21.8399 5.57994 21.8399 7.11994V14.5499C21.8399 15.9699 20.9499 17.7399 19.8099 18.5899L15.5099 21.7999C14.6699 22.4399 13.5899 22.7599 12.4999 22.7599ZM11.2499 2.93994L6.2599 4.80994C5.3999 5.12994 4.6499 6.20994 4.6499 7.12994V14.5599C4.6499 15.5099 5.3199 16.8399 6.0699 17.3999L10.3699 20.6099C11.5199 21.4699 13.4699 21.4699 14.6199 20.6099L18.9199 17.3999C19.6799 16.8299 20.3399 15.4999 20.3399 14.5599V7.11994C20.3399 6.20994 19.5899 5.12994 18.7299 4.79994L13.7399 2.92994C13.0799 2.68994 11.9199 2.68994 11.2499 2.93994Z" fill="#141418"/>
<path d="M12.5 13.25C10.98 13.25 9.75 12.02 9.75 10.5C9.75 8.98 10.98 7.75 12.5 7.75C14.02 7.75 15.25 8.98 15.25 10.5C15.25 12.02 14.02 13.25 12.5 13.25ZM12.5 9.25C11.81 9.25 11.25 9.81 11.25 10.5C11.25 11.19 11.81 11.75 12.5 11.75C13.19 11.75 13.75 11.19 13.75 10.5C13.75 9.81 13.19 9.25 12.5 9.25Z" fill="#845DC2"/>
<path d="M12.5 16.25C12.09 16.25 11.75 15.91 11.75 15.5V12.5C11.75 12.09 12.09 11.75 12.5 11.75C12.91 11.75 13.25 12.09 13.25 12.5V15.5C13.25 15.91 12.91 16.25 12.5 16.25Z" fill="#845DC2"/>
</svg>
