<svg width="17" height="17" viewBox="0 0 17 17" fill="none" xmlns="http://www.w3.org/2000/svg">
<path d="M9.95437 10.8925H8.69955L8.45556 11.5238H7.68872L8.9784 8.51758H9.64067L10.9303 11.5238H10.1635L9.95437 10.8925ZM8.87383 10.4115H9.74523L9.32696 9.26913L8.87383 10.4115Z" fill="#0E0E0F"/>
<path fill-rule="evenodd" clip-rule="evenodd" d="M2.47518 6.62825H2.08286L1.7952 6.89502L1.125 7.51654V1.453C1.125 1.2758 1.31 1 1.69179 1H11.4842C11.866 1 12.051 1.2758 12.051 1.453V6.17525C12.051 6.35245 11.866 6.62825 11.4842 6.62825H2.47518ZM0.125 9.80775L1.125 8.88037L2.36702 7.72855V11.624C2.36702 12.7342 3.3321 13.577 4.43381 13.577H13.2467L15.453 15.6232L16.293 16.4021V15.2565V7.62829C16.293 6.51817 15.3279 5.67529 14.2262 5.67529H13.051V1.453C13.051 0.65385 12.3459 0 11.4842 0H1.69179C0.830053 0 0.125 0.65385 0.125 1.453V8.44392V9.80775ZM12.9548 6.67529C12.7338 7.23002 12.1567 7.62825 11.4842 7.62825H2.47518L2.47513 7.62829H3.36702V11.624C3.36702 12.1122 3.81205 12.577 4.43381 12.577H13.4428H13.639L13.7828 12.7104L15.293 14.1109V7.62829C15.293 7.14012 14.848 6.67529 14.2262 6.67529H12.9548Z" fill="#0E0E0F"/>
<path d="M8.50723 3.70516C8.50723 4.06841 8.42889 4.35901 8.31138 4.61329C8.19387 4.86756 8.03719 5.08551 7.80218 5.23081L8.46806 5.70304L7.95886 6.13894L7.09712 5.52141C7.01878 5.52141 6.90128 5.55774 6.78377 5.55774C6.54875 5.55774 6.31373 5.52141 6.07871 5.44876C5.88287 5.37611 5.68702 5.23081 5.53034 5.08551C5.37366 4.94021 5.25615 4.72226 5.17781 4.50431C5.09947 4.28636 5.0603 4.03209 5.0603 3.74149V3.59619C5.0603 3.30559 5.09947 3.05131 5.17781 2.83336C5.25615 2.61541 5.37366 2.39746 5.53034 2.25216C5.68702 2.10686 5.8437 1.96156 6.07871 1.88891C6.27456 1.81626 6.50958 1.77994 6.78377 1.77994C7.01878 1.77994 7.2538 1.81626 7.48882 1.88891C7.68467 1.96156 7.88052 2.10686 8.03719 2.25216C8.19387 2.39746 8.31138 2.61541 8.38972 2.83336C8.46806 3.05131 8.50723 3.30559 8.50723 3.59619V3.70516ZM7.6455 3.52354C7.6455 3.12396 7.56716 2.83336 7.41048 2.65174C7.2538 2.43379 7.05795 2.36114 6.78377 2.36114C6.50958 2.36114 6.27456 2.47011 6.15705 2.65174C6.00037 2.86969 5.92203 3.16029 5.92203 3.52354V3.70516C5.92203 3.88679 5.9612 4.06841 6.00037 4.21371C6.03954 4.35901 6.07871 4.50431 6.15705 4.57696C6.23539 4.68594 6.31373 4.75859 6.43124 4.79491C6.54875 4.83124 6.66626 4.86756 6.78377 4.86756C7.05795 4.86756 7.29297 4.75859 7.41048 4.57696C7.56716 4.35901 7.6455 4.06841 7.6455 3.66884V3.52354Z" fill="#0E0E0F"/>
</svg>
