<svg width="21" height="21" viewBox="0 0 21 21" fill="none" xmlns="http://www.w3.org/2000/svg">
<path d="M14.4104 5.21472C16.0771 6.37305 17.2271 8.21472 17.4604 10.3397" stroke="#0E0E0F" stroke-linecap="round" stroke-linejoin="round"/>
<path d="M3.18555 10.3814C3.40221 8.26471 4.53555 6.42304 6.18555 5.25638" stroke="#0E0E0F" stroke-linecap="round" stroke-linejoin="round"/>
<path d="M7.10205 17.5231C8.06872 18.0147 9.16872 18.2897 10.3271 18.2897C11.4437 18.2897 12.4937 18.0397 13.4354 17.5814" stroke="#0E0E0F" stroke-linecap="round" stroke-linejoin="round"/>
<path d="M10.3272 6.48972C11.6066 6.48972 12.6438 5.45251 12.6438 4.17305C12.6438 2.89359 11.6066 1.85638 10.3272 1.85638C9.04771 1.85638 8.0105 2.89359 8.0105 4.17305C8.0105 5.45251 9.04771 6.48972 10.3272 6.48972Z" stroke="#0E0E0F" stroke-linecap="round" stroke-linejoin="round"/>
<path d="M4.30202 16.6731C5.58148 16.6731 6.61869 15.6359 6.61869 14.3564C6.61869 13.0769 5.58148 12.0397 4.30202 12.0397C3.02256 12.0397 1.98535 13.0769 1.98535 14.3564C1.98535 15.6359 3.02256 16.6731 4.30202 16.6731Z" stroke="#0E0E0F" stroke-linecap="round" stroke-linejoin="round"/>
<path d="M16.2522 16.6731C17.5317 16.6731 18.5689 15.6359 18.5689 14.3564C18.5689 13.0769 17.5317 12.0397 16.2522 12.0397C14.9728 12.0397 13.9355 13.0769 13.9355 14.3564C13.9355 15.6359 14.9728 16.6731 16.2522 16.6731Z" stroke="#0E0E0F" stroke-linecap="round" stroke-linejoin="round"/>
</svg>
