<svg width="20" height="21" viewBox="0 0 20 21" fill="none" xmlns="http://www.w3.org/2000/svg">
<path d="M7.49992 8.53841C8.42039 8.53841 9.16659 7.79222 9.16659 6.87174C9.16659 5.95127 8.42039 5.20508 7.49992 5.20508C6.57944 5.20508 5.83325 5.95127 5.83325 6.87174C5.83325 7.79222 6.57944 8.53841 7.49992 8.53841Z" stroke="#D15EAA" stroke-width="1.5" stroke-linecap="round" stroke-linejoin="round"/>
<path d="M10.8334 1.87175H7.50008C3.33341 1.87175 1.66675 3.53842 1.66675 7.70508V12.7051C1.66675 16.8718 3.33341 18.5384 7.50008 18.5384H12.5001C16.6667 18.5384 18.3334 16.8718 18.3334 12.7051V8.53842" stroke="#D15EAA" stroke-width="1.5" stroke-linecap="round" stroke-linejoin="round"/>
<path d="M15 6.87175V1.87175L16.6667 3.53842" stroke="#D15EAA" stroke-width="1.5" stroke-linecap="round" stroke-linejoin="round"/>
<path d="M14.9999 1.87175L13.3333 3.53842" stroke="#D15EAA" stroke-width="1.5" stroke-linecap="round" stroke-linejoin="round"/>
<path d="M2.2251 15.9968L6.33343 13.2384C6.99176 12.7968 7.94176 12.8468 8.53343 13.3551L8.80843 13.5968C9.45843 14.1551 10.5084 14.1551 11.1584 13.5968L14.6251 10.6218C15.2751 10.0634 16.3251 10.0634 16.9751 10.6218L18.3334 11.7884" stroke="#D15EAA" stroke-width="1.5" stroke-linecap="round" stroke-linejoin="round"/>
</svg>
