<svg width="17" height="18" viewBox="0 0 17 18" fill="none" xmlns="http://www.w3.org/2000/svg">
<path d="M4.54175 1V4.74468" stroke="#0E0E0F" stroke-width="0.933333"/>
<path d="M9.20498 0.670017C9.02274 0.487772 8.72726 0.487772 8.54502 0.670017L5.57517 3.63987C5.39292 3.82211 5.39292 4.11759 5.57517 4.29983C5.75741 4.48208 6.05289 4.48208 6.23513 4.29983L8.875 1.65997L11.5149 4.29983C11.6971 4.48208 11.9926 4.48208 12.1748 4.29983C12.3571 4.11759 12.3571 3.82211 12.1748 3.63987L9.20498 0.670017ZM8.40833 1V17H9.34167V1H8.40833Z" fill="#0E0E0F"/>
<path d="M2.67492 5.73754C2.67492 5.25889 3.06294 4.87087 3.54159 4.87087H5.54159C6.02023 4.87087 6.40825 5.25889 6.40825 5.73754V14.1503H2.67492V5.73754Z" stroke="#0E0E0F" stroke-width="0.933333"/>
<path d="M13.3417 8.79435C13.3417 8.13161 13.8789 7.59435 14.5417 7.59435C15.2044 7.59435 15.7417 8.13161 15.7417 8.79435V8.86528C15.7417 9.52802 15.2044 10.0653 14.5417 10.0653C13.8789 10.0653 13.3417 9.52802 13.3417 8.86527V8.79435Z" stroke="#0E0E0F" stroke-width="0.933333"/>
<path d="M12.6749 12.1844C12.6749 11.1535 13.5107 10.3177 14.5416 10.3177C15.5725 10.3177 16.4083 11.1535 16.4083 12.1844V12.2837C16.4083 13.3146 15.5725 14.1504 14.5416 14.1504C13.5107 14.1504 12.6749 13.3146 12.6749 12.2837V12.1844Z" stroke="#0E0E0F" stroke-width="0.933333"/>
<path d="M3.34167 14.4667H5.74167V16.2H3.34167V14.4667Z" stroke="#0E0E0F" stroke-width="0.933333"/>
<path d="M0.875 14.2766H8.20833" stroke="#0E0E0F" stroke-width="0.933333"/>
<path d="M8.875 16.6596H16.2083" stroke="#0E0E0F" stroke-width="0.933333"/>
<path d="M4.20825 7.8085L6.87492 7.8085" stroke="#0E0E0F" stroke-width="0.933333"/>
<path d="M8.875 6.44678L10.875 6.44678" stroke="#0E0E0F" stroke-width="0.933333"/>
<path d="M8.875 8.48935H11.5417" stroke="#0E0E0F" stroke-width="0.933333"/>
<path d="M8.875 10.5319H10.875" stroke="#0E0E0F" stroke-width="0.933333"/>
<path d="M8.875 12.5745H11.5417" stroke="#0E0E0F" stroke-width="0.933333"/>
<path d="M8.875 14.617H10.875" stroke="#0E0E0F" stroke-width="0.933333"/>
<path d="M4.20825 9.85107H6.87492" stroke="#0E0E0F" stroke-width="0.933333"/>
<path d="M4.20825 11.8936H6.87492" stroke="#0E0E0F" stroke-width="0.933333"/>
<path d="M2.20825 16.6596H6.87492" stroke="#0E0E0F" stroke-width="0.933333"/>
</svg>
