<svg width="17" height="16" viewBox="0 0 17 16" fill="none" xmlns="http://www.w3.org/2000/svg">
<path d="M3.04639 12.1143V4.57146C3.04639 1.82862 3.7321 1.14291 6.47494 1.14291H11.2749C14.0177 1.14291 14.7035 1.82862 14.7035 4.57146V11.4286C14.7035 11.5246 14.7035 11.6206 14.6966 11.7166" stroke="#0E0E0F" stroke-width="0.857143" stroke-linecap="round" stroke-linejoin="round"/>
<path d="M5.00066 10.0572H14.7035V12.4572C14.7035 13.7806 13.6269 14.8572 12.3035 14.8572H5.44637C4.12295 14.8572 3.04639 13.7806 3.04639 12.4572V12.0115C3.04639 10.9349 3.9241 10.0572 5.00066 10.0572Z" stroke="#0E0E0F" stroke-width="0.857143" stroke-linecap="round" stroke-linejoin="round"/>
<path d="M6.01782 13.1429L12.875 13.1429" stroke="#0E0E0F" stroke-width="0.571429" stroke-linecap="round" stroke-linejoin="round"/>
<path d="M7.16064 11.7143L12.8749 11.7143" stroke="#0E0E0F" stroke-width="0.571429" stroke-linecap="round" stroke-linejoin="round"/>
<path d="M7.73218 5.96521V5.26473C7.73218 4.39227 8.34878 4.03573 9.10379 4.47196L9.71199 4.82431L10.3202 5.17664C11.0752 5.61287 11.0752 6.32595 10.3202 6.76218L9.71199 7.11451L9.10379 7.46686C8.34878 7.90309 7.73218 7.54655 7.73218 6.67409V5.96521Z" stroke="#0E0E0F" stroke-width="0.685714" stroke-miterlimit="10" stroke-linecap="round" stroke-linejoin="round"/>
</svg>
