<svg width="20" height="22" viewBox="0 0 20 22" fill="none" xmlns="http://www.w3.org/2000/svg">
<path d="M7.45009 6.06068L7.44994 6.06072L7.45326 6.07092L7.45328 6.07097L7.45352 6.07171L7.45368 6.07221L7.45377 6.07249L7.45402 6.0734C7.4551 6.07699 7.45707 6.08371 7.45963 6.09309C7.46478 6.11204 7.47203 6.1408 7.47905 6.17577C7.49393 6.24984 7.50394 6.33278 7.50048 6.4035C7.49981 6.41712 7.49874 6.42854 7.49751 6.43801C7.49734 6.43801 7.49716 6.43802 7.49699 6.43802H2.77928C2.65817 6.43802 2.61473 6.40649 2.60046 6.39479C2.57935 6.37748 2.55307 6.34337 2.53098 6.27712C2.48666 6.14419 2.49546 5.99588 2.49752 5.96899C2.76679 3.79254 3.93346 1.88696 5.62577 0.619932C5.67337 0.588994 5.72559 0.558869 5.77656 0.535741C5.78512 0.531856 5.7932 0.528371 5.80081 0.525247L7.45009 6.06068Z" stroke="#141418"/>
<path d="M2.7792 8.75537H16.8224C16.9322 8.75771 17.1419 8.77896 17.3095 8.86872C17.3875 8.91048 17.4451 8.9611 17.4846 9.02285C17.5199 9.07795 17.5558 9.16509 17.5613 9.30831C17.0302 12.8192 13.8838 15.5444 10.0436 15.5444C6.10928 15.5444 2.89837 12.6873 2.48532 9.0543C2.48358 9.02215 2.48381 8.98122 2.4897 8.93938C2.49627 8.89268 2.50798 8.85853 2.52053 8.83626C2.53057 8.81845 2.54207 8.80563 2.5638 8.79378C2.58809 8.78053 2.65004 8.75537 2.7792 8.75537Z" stroke="#141418"/>
<path d="M6.559 19.4392C6.559 20.5773 5.63637 21.4999 4.49825 21.4999C3.36013 21.4999 2.4375 20.5773 2.4375 19.4392C2.4375 18.301 3.36013 17.3784 4.49825 17.3784C5.63637 17.3784 6.559 18.301 6.559 19.4392Z" stroke="#141418"/>
<path d="M17.5627 19.4392C17.5627 20.5773 16.64 21.4999 15.5019 21.4999C14.3638 21.4999 13.4412 20.5773 13.4412 19.4392C13.4412 18.301 14.3638 17.3784 15.5019 17.3784C16.64 17.3784 17.5627 18.301 17.5627 19.4392Z" stroke="#141418"/>
</svg>
