<svg width="24" height="24" viewBox="0 0 24 24" fill="none" xmlns="http://www.w3.org/2000/svg">
<path d="M12 22C17.5 22 22 17.5 22 12C22 6.5 17.5 2 12 2C6.5 2 2 6.5 2 12C2 17.5 6.5 22 12 22Z" fill="#A81E3E"/>
<path fill-rule="evenodd" clip-rule="evenodd" d="M16.8324 8.53082C17.1253 8.23793 17.1253 7.76305 16.8324 7.47016C16.5395 7.17726 16.0646 7.17726 15.7718 7.47016L12 11.2419L8.22833 7.47016C7.93543 7.17726 7.46056 7.17726 7.16767 7.47016C6.87477 7.76305 6.87477 8.23793 7.16767 8.53082L10.9394 12.3025L7.16767 16.0742C6.87477 16.3671 6.87477 16.842 7.16767 17.1349C7.46056 17.4278 7.93543 17.4278 8.22833 17.1349L12 13.3632L15.7718 17.1349C16.0646 17.4278 16.5395 17.4278 16.8324 17.1349C17.1253 16.842 17.1253 16.3671 16.8324 16.0742L13.0607 12.3025L16.8324 8.53082Z" fill="white"/>
</svg>
