<svg width="24" height="25" viewBox="0 0 24 25" fill="none" xmlns="http://www.w3.org/2000/svg">
<path d="M12.1532 16.7857H12.1043L12.391 16.1172H12.4115L12.3956 16.1585L12.1532 16.7857ZM15.419 16.7857L15.3152 16.4726L15.4496 16.7857H15.419Z" fill="#0E0E0F" stroke="#3F3F46"/>
<path fill-rule="evenodd" clip-rule="evenodd" d="M3.52527 10.4424H3.13295L2.84529 10.7091L1 12.4204V2.1795C1 1.60272 1.53753 1 2.35018 1H17.0388C17.8514 1 18.389 1.60272 18.389 2.1795V9.26287C18.389 9.83965 17.8514 10.4424 17.0388 10.4424H3.52527ZM0 14.7116L1 13.7842L3.52527 11.4424H17.0388C18.146 11.4424 19.0807 10.7228 19.3261 9.76302H21.1518C22.2044 9.76302 23.0019 10.5548 23.0019 11.4425V21.7393L20.3167 19.249L20.1728 19.1156H19.9767H6.46315C5.41052 19.1156 4.61297 18.3239 4.61297 17.4361V11.4425H3.61297V17.4361C3.61297 18.9458 4.93058 20.1156 6.46315 20.1156H19.7805L23.1619 23.2515L24.0019 24.0305V22.8849V11.4425C24.0019 9.93282 22.6843 8.76302 21.1518 8.76302H19.389V2.1795C19.389 0.980775 18.3314 0 17.0388 0H2.35018C1.05758 0 0 0.980775 0 2.1795V13.3478V14.7116Z" fill="#0E0E0F"/>
<path d="M12.5732 5.55776C12.5732 6.10263 12.4557 6.53853 12.2795 6.91995C12.1032 7.30136 11.8682 7.62828 11.5156 7.84623L12.5145 8.55457L11.7507 9.20842L10.4581 8.28213C10.3406 8.28213 10.1643 8.33662 9.98803 8.33662C9.6355 8.33662 9.28297 8.28214 8.93045 8.17316C8.63668 8.06418 8.3429 7.84623 8.10789 7.62828C7.87287 7.41033 7.6966 7.08341 7.5791 6.75648C7.46159 6.42956 7.40283 6.04815 7.40283 5.61225V5.3943C7.40283 4.9584 7.46159 4.57698 7.5791 4.25006C7.6966 3.92313 7.87287 3.59621 8.10789 3.37826C8.3429 3.16031 8.57792 2.94236 8.93045 2.83338C9.22422 2.72441 9.57675 2.66992 9.98803 2.66992C10.3406 2.66992 10.6931 2.72441 11.0456 2.83338C11.3394 2.94236 11.6332 3.16031 11.8682 3.37826C12.1032 3.59621 12.2795 3.92313 12.397 4.25006C12.5145 4.57698 12.5732 4.9584 12.5732 5.3943V5.55776ZM11.2806 5.28532C11.2806 4.68596 11.1631 4.25006 10.9281 3.97762C10.6931 3.6507 10.3993 3.54172 9.98803 3.54172C9.57675 3.54172 9.22422 3.70518 9.04796 3.97762C8.81294 4.30455 8.69543 4.74045 8.69543 5.28532V5.55776C8.69543 5.8302 8.75418 6.10263 8.81294 6.32058C8.87169 6.53853 8.93045 6.75648 9.04796 6.86546C9.16547 7.02892 9.28297 7.1379 9.45924 7.19238C9.6355 7.24687 9.81176 7.30136 9.98803 7.30136C10.3993 7.30136 10.7518 7.1379 10.9281 6.86546C11.1631 6.53853 11.2806 6.10263 11.2806 5.50327V5.28532Z" fill="#0E0E0F"/>
</svg>
